<?xml version="1.0" encoding="UTF-8"?>
<svg xmlns="http://www.w3.org/2000/svg" xmlns:xlink="http://www.w3.org/1999/xlink" width="318pt" height="241pt" viewBox="0 0 318 241" version="1.1">
<g id="surface1">
<rect x="0" y="0" width="318" height="241" style="fill:rgb(100%,100%,100%);fill-opacity:1;stroke:none;"/>
<path style=" stroke:none;fill-rule:nonzero;fill:rgb(100%,100%,100%);fill-opacity:1;" d="M 65.375 182.25 L 309.496094 182.25 L 309.496094 9 L 65.375 9 Z M 65.375 182.25 "/>
<path style="fill-rule:nonzero;fill:rgb(12.156863%,46.666667%,70.588235%);fill-opacity:1;stroke-width:1;stroke-linecap:butt;stroke-linejoin:round;stroke:rgb(12.156863%,46.666667%,70.588235%);stroke-opacity:1;stroke-miterlimit:4;" d="M -0.00071 3.000734 C 0.796165 3.000734 1.558665 2.685109 2.121165 2.122609 C 2.683665 1.560109 2.99929 0.794484 2.99929 0.000734 C 2.99929 -0.796141 2.683665 -1.558641 2.121165 -2.121141 C 1.558665 -2.683641 0.796165 -2.999266 -0.00071 -2.999266 C -0.79446 -2.999266 -1.560085 -2.683641 -2.122585 -2.121141 C -2.685085 -1.558641 -3.00071 -0.796141 -3.00071 0.000734 C -3.00071 0.794484 -2.685085 1.560109 -2.122585 2.122609 C -1.560085 2.685109 -0.79446 3.000734 -0.00071 3.000734 Z M -0.00071 3.000734 " transform="matrix(1.25,0,0,1.25,76.469638,66.61627)"/>
<path style="fill-rule:nonzero;fill:rgb(12.156863%,46.666667%,70.588235%);fill-opacity:1;stroke-width:1;stroke-linecap:butt;stroke-linejoin:round;stroke:rgb(12.156863%,46.666667%,70.588235%);stroke-opacity:1;stroke-miterlimit:4;" d="M 0.000913 3.000087 C 0.794663 3.000087 1.560288 2.684462 2.122788 2.121962 C 2.685288 1.559462 3.000913 0.796962 3.000913 0.000087 C 3.000913 -0.796788 2.685288 -1.559288 2.122788 -2.121788 C 1.560288 -2.684288 0.794663 -2.999913 0.000913 -2.999913 C -0.795962 -2.999913 -1.558462 -2.684288 -2.120962 -2.121788 C -2.683462 -1.559288 -2.999087 -0.796788 -2.999087 0.000087 C -2.999087 0.796962 -2.683462 1.559462 -2.120962 2.121962 C -1.558462 2.684462 -0.795962 3.000087 0.000913 3.000087 Z M 0.000913 3.000087 " transform="matrix(1.25,0,0,1.25,80.998859,91.570204)"/>
<path style="fill-rule:nonzero;fill:rgb(12.156863%,46.666667%,70.588235%);fill-opacity:1;stroke-width:1;stroke-linecap:butt;stroke-linejoin:round;stroke:rgb(12.156863%,46.666667%,70.588235%);stroke-opacity:1;stroke-miterlimit:4;" d="M -0.000588 2.999533 C 0.796287 2.999533 1.558787 2.683908 2.121287 2.121408 C 2.683787 1.558908 2.999412 0.796408 2.999412 -0.000467 C 2.999412 -0.794217 2.683787 -1.559842 2.121287 -2.122342 C 1.558787 -2.684842 0.796287 -3.000467 -0.000588 -3.000467 C -0.794338 -3.000467 -1.559963 -2.684842 -2.122463 -2.122342 C -2.684963 -1.559842 -3.000588 -0.794217 -3.000588 -0.000467 C -3.000588 0.796408 -2.684963 1.558908 -2.122463 2.121408 C -1.559963 2.683908 -0.794338 2.999533 -0.000588 2.999533 Z M -0.000588 2.999533 " transform="matrix(1.25,0,0,1.25,85.528079,80.164646)"/>
<path style="fill-rule:nonzero;fill:rgb(12.156863%,46.666667%,70.588235%);fill-opacity:1;stroke-width:1;stroke-linecap:butt;stroke-linejoin:round;stroke:rgb(12.156863%,46.666667%,70.588235%);stroke-opacity:1;stroke-miterlimit:4;" d="M 0.001035 2.999055 C 0.794785 2.999055 1.557285 2.68343 2.119785 2.12093 C 2.68541 1.55843 3.001035 0.79593 3.001035 -0.000945 C 3.001035 -0.794695 2.68541 -1.557195 2.119785 -2.12282 C 1.557285 -2.68532 0.794785 -3.000945 0.001035 -3.000945 C -0.79584 -3.000945 -1.55834 -2.68532 -2.12084 -2.12282 C -2.68334 -1.557195 -2.998965 -0.794695 -2.998965 -0.000945 C -2.998965 0.79593 -2.68334 1.55843 -2.12084 2.12093 C -1.55834 2.68343 -0.79584 2.999055 0.001035 2.999055 Z M 0.001035 2.999055 " transform="matrix(1.25,0,0,1.25,90.0573,33.423056)"/>
<path style="fill-rule:nonzero;fill:rgb(12.156863%,46.666667%,70.588235%);fill-opacity:1;stroke-width:1;stroke-linecap:butt;stroke-linejoin:round;stroke:rgb(12.156863%,46.666667%,70.588235%);stroke-opacity:1;stroke-miterlimit:4;" d="M -0.000467 3.000852 C 0.796408 3.000852 1.558908 2.685227 2.121408 2.122727 C 2.683908 1.560227 2.999533 0.794602 2.999533 0.000852 C 2.999533 -0.796023 2.683908 -1.558523 2.121408 -2.121023 C 1.558908 -2.683523 0.796408 -2.999148 -0.000467 -2.999148 C -0.794217 -2.999148 -1.559842 -2.683523 -2.122342 -2.121023 C -2.684842 -1.558523 -3.000467 -0.796023 -3.000467 0.000852 C -3.000467 0.794602 -2.684842 1.560227 -2.122342 2.122727 C -1.559842 2.685227 -0.794217 3.000852 -0.000467 3.000852 Z M -0.000467 3.000852 " transform="matrix(1.25,0,0,1.25,94.586521,45.448154)"/>
<path style="fill-rule:nonzero;fill:rgb(12.156863%,46.666667%,70.588235%);fill-opacity:1;stroke-width:1;stroke-linecap:butt;stroke-linejoin:round;stroke:rgb(12.156863%,46.666667%,70.588235%);stroke-opacity:1;stroke-miterlimit:4;" d="M 0.001157 2.99939 C 0.794907 2.99939 1.557407 2.683765 2.119907 2.121265 C 2.682407 1.558765 3.001157 0.796265 3.001157 -0.00061 C 3.001157 -0.79436 2.682407 -1.559985 2.119907 -2.122485 C 1.557407 -2.684985 0.794907 -3.00061 0.001157 -3.00061 C -0.795718 -3.00061 -1.558218 -2.684985 -2.120718 -2.122485 C -2.683218 -1.559985 -2.998843 -0.79436 -2.998843 -0.00061 C -2.998843 0.796265 -2.683218 1.558765 -2.120718 2.121265 C -1.558218 2.683765 -0.795718 2.99939 0.001157 2.99939 Z M 0.001157 2.99939 " transform="matrix(1.25,0,0,1.25,99.115741,41.508575)"/>
<path style="fill-rule:nonzero;fill:rgb(12.156863%,46.666667%,70.588235%);fill-opacity:1;stroke-width:1;stroke-linecap:butt;stroke-linejoin:round;stroke:rgb(12.156863%,46.666667%,70.588235%);stroke-opacity:1;stroke-miterlimit:4;" d="M -0.000345 3.000357 C 0.79653 3.000357 1.55903 2.684732 2.12153 2.122232 C 2.68403 1.559732 2.999655 0.794107 2.999655 0.000357 C 2.999655 -0.796518 2.68403 -1.559018 2.12153 -2.121518 C 1.55903 -2.684018 0.79653 -2.999643 -0.000345 -2.999643 C -0.794095 -2.999643 -1.55972 -2.684018 -2.12222 -2.121518 C -2.68472 -1.559018 -3.000345 -0.796518 -3.000345 0.000357 C -3.000345 0.794107 -2.68472 1.559732 -2.12222 2.122232 C -1.55972 2.684732 -0.794095 3.000357 -0.000345 3.000357 Z M -0.000345 3.000357 " transform="matrix(1.25,0,0,1.25,103.644963,61.374554)"/>
<path style="fill-rule:nonzero;fill:rgb(12.156863%,46.666667%,70.588235%);fill-opacity:1;stroke-width:1;stroke-linecap:butt;stroke-linejoin:round;stroke:rgb(12.156863%,46.666667%,70.588235%);stroke-opacity:1;stroke-miterlimit:4;" d="M 0.001278 3.001289 C 0.795028 3.001289 1.557528 2.682539 2.120028 2.120039 C 2.682528 1.557539 3.001278 0.795039 3.001278 0.001289 C 3.001278 -0.795586 2.682528 -1.558086 2.120028 -2.120586 C 1.557528 -2.683086 0.795028 -2.998711 0.001278 -2.998711 C -0.795597 -2.998711 -1.558097 -2.683086 -2.120597 -2.120586 C -2.683097 -1.558086 -2.998722 -0.795586 -2.998722 0.001289 C -2.998722 0.795039 -2.683097 1.557539 -2.120597 2.120039 C -1.558097 2.682539 -0.795597 3.001289 0.001278 3.001289 Z M 0.001278 3.001289 " transform="matrix(1.25,0,0,1.25,108.174184,27.724951)"/>
<path style="fill-rule:nonzero;fill:rgb(12.156863%,46.666667%,70.588235%);fill-opacity:1;stroke-width:1;stroke-linecap:butt;stroke-linejoin:round;stroke:rgb(12.156863%,46.666667%,70.588235%);stroke-opacity:1;stroke-miterlimit:4;" d="M -0.000223 2.998502 C 0.796652 2.998502 1.559152 2.682877 2.121652 2.120377 C 2.684152 1.557877 2.999777 0.795377 2.999777 -0.001498 C 2.999777 -0.795248 2.684152 -1.557748 2.121652 -2.120248 C 1.559152 -2.682748 0.796652 -3.001498 -0.000223 -3.001498 C -0.797098 -3.001498 -1.559598 -2.682748 -2.122098 -2.120248 C -2.684598 -1.557748 -3.000223 -0.795248 -3.000223 -0.001498 C -3.000223 0.795377 -2.684598 1.557877 -2.122098 2.120377 C -1.559598 2.682877 -0.797098 2.998502 -0.000223 2.998502 Z M -0.000223 2.998502 " transform="matrix(1.25,0,0,1.25,112.703404,83.833904)"/>
<path style="fill-rule:nonzero;fill:rgb(12.156863%,46.666667%,70.588235%);fill-opacity:1;stroke-width:1;stroke-linecap:butt;stroke-linejoin:round;stroke:rgb(12.156863%,46.666667%,70.588235%);stroke-opacity:1;stroke-miterlimit:4;" d="M 0.0014 3.000438 C 0.79515 3.000438 1.55765 2.684813 2.12015 2.122313 C 2.68265 1.559813 3.0014 0.794188 3.0014 0.000438 C 3.0014 -0.796437 2.68265 -1.558937 2.12015 -2.121437 C 1.55765 -2.683937 0.79515 -2.999562 0.0014 -2.999562 C -0.795475 -2.999562 -1.557975 -2.683937 -2.120475 -2.121437 C -2.682975 -1.558937 -2.9986 -0.796437 -2.9986 0.000438 C -2.9986 0.794188 -2.682975 1.559813 -2.120475 2.122313 C -1.557975 2.684813 -0.795475 3.000438 0.0014 3.000438 Z M 0.0014 3.000438 " transform="matrix(1.25,0,0,1.25,117.232625,73.222109)"/>
<path style="fill-rule:nonzero;fill:rgb(12.156863%,46.666667%,70.588235%);fill-opacity:1;stroke-width:1;stroke-linecap:butt;stroke-linejoin:round;stroke:rgb(12.156863%,46.666667%,70.588235%);stroke-opacity:1;stroke-miterlimit:4;" d="M -0.000101 3.000919 C 0.796774 3.000919 1.559274 2.685294 2.121774 2.122794 C 2.684274 1.560294 2.999899 0.794669 2.999899 0.000919 C 2.999899 -0.795956 2.684274 -1.558456 2.121774 -2.120956 C 1.559274 -2.683456 0.796774 -2.999081 -0.000101 -2.999081 C -0.796976 -2.999081 -1.559476 -2.683456 -2.121976 -2.120956 C -2.684476 -1.558456 -3.000101 -0.795956 -3.000101 0.000919 C -3.000101 0.794669 -2.684476 1.560294 -2.121976 2.122794 C -1.559476 2.685294 -0.796976 3.000919 -0.000101 3.000919 Z M -0.000101 3.000919 " transform="matrix(1.25,0,0,1.25,121.761845,73.768383)"/>
<path style="fill-rule:nonzero;fill:rgb(12.156863%,46.666667%,70.588235%);fill-opacity:1;stroke-width:1;stroke-linecap:butt;stroke-linejoin:round;stroke:rgb(12.156863%,46.666667%,70.588235%);stroke-opacity:1;stroke-miterlimit:4;" d="M 0.001522 2.999457 C 0.795272 2.999457 1.557772 2.683832 2.120272 2.121332 C 2.682772 1.558832 3.001522 0.796332 3.001522 -0.000543 C 3.001522 -0.794293 2.682772 -1.559918 2.120272 -2.122418 C 1.557772 -2.684918 0.795272 -3.000543 0.001522 -3.000543 C -0.795353 -3.000543 -1.557853 -2.684918 -2.120353 -2.122418 C -2.682853 -1.559918 -2.998478 -0.794293 -2.998478 -0.000543 C -2.998478 0.796332 -2.682853 1.558832 -2.120353 2.121332 C -1.557853 2.683832 -0.795353 2.999457 0.001522 2.999457 Z M 0.001522 2.999457 " transform="matrix(1.25,0,0,1.25,126.291066,75.453804)"/>
<path style="fill-rule:nonzero;fill:rgb(12.156863%,46.666667%,70.588235%);fill-opacity:1;stroke-width:1;stroke-linecap:butt;stroke-linejoin:round;stroke:rgb(12.156863%,46.666667%,70.588235%);stroke-opacity:1;stroke-miterlimit:4;" d="M 0.00002 2.998909 C 0.796895 2.998909 1.559395 2.683284 2.121895 2.120784 C 2.684395 1.558284 3.00002 0.795784 3.00002 -0.001091 C 3.00002 -0.794841 2.684395 -1.557341 2.121895 -2.119841 C 1.559395 -2.682341 0.796895 -3.001091 0.00002 -3.001091 C -0.796855 -3.001091 -1.559355 -2.682341 -2.121855 -2.119841 C -2.684355 -1.557341 -2.99998 -0.794841 -2.99998 -0.001091 C -2.99998 0.795784 -2.684355 1.558284 -2.121855 2.120784 C -1.559355 2.683284 -0.796855 2.998909 0.00002 2.998909 Z M 0.00002 2.998909 " transform="matrix(1.25,0,0,1.25,130.820288,65.544332)"/>
<path style="fill-rule:nonzero;fill:rgb(12.156863%,46.666667%,70.588235%);fill-opacity:1;stroke-width:1;stroke-linecap:butt;stroke-linejoin:round;stroke:rgb(12.156863%,46.666667%,70.588235%);stroke-opacity:1;stroke-miterlimit:4;" d="M -0.001481 2.998994 C 0.795394 2.998994 1.557894 2.683369 2.120394 2.120869 C 2.682894 1.558369 2.998519 0.795869 2.998519 -0.001006 C 2.998519 -0.794756 2.682894 -1.557256 2.120394 -2.122881 C 1.557894 -2.685381 0.795394 -3.001006 -0.001481 -3.001006 C -0.795231 -3.001006 -1.557731 -2.685381 -2.120231 -2.122881 C -2.682731 -1.557256 -3.001481 -0.794756 -3.001481 -0.001006 C -3.001481 0.795869 -2.682731 1.558369 -2.120231 2.120869 C -1.557731 2.683369 -0.795231 2.998994 -0.001481 2.998994 Z M -0.001481 2.998994 " transform="matrix(1.25,0,0,1.25,135.349508,74.755164)"/>
<path style="fill-rule:nonzero;fill:rgb(12.156863%,46.666667%,70.588235%);fill-opacity:1;stroke-width:1;stroke-linecap:butt;stroke-linejoin:round;stroke:rgb(12.156863%,46.666667%,70.588235%);stroke-opacity:1;stroke-miterlimit:4;" d="M 0.000142 3.001311 C 0.797017 3.001311 1.559517 2.682561 2.122017 2.120061 C 2.684517 1.557561 3.000142 0.795061 3.000142 0.001311 C 3.000142 -0.795564 2.684517 -1.558064 2.122017 -2.120564 C 1.559517 -2.683064 0.797017 -2.998689 0.000142 -2.998689 C -0.796733 -2.998689 -1.559233 -2.683064 -2.121733 -2.120564 C -2.684233 -1.558064 -2.999858 -0.795564 -2.999858 0.001311 C -2.999858 0.795061 -2.684233 1.557561 -2.121733 2.120061 C -1.559233 2.682561 -0.796733 3.001311 0.000142 3.001311 Z M 0.000142 3.001311 " transform="matrix(1.25,0,0,1.25,139.878729,53.455393)"/>
<path style="fill-rule:nonzero;fill:rgb(12.156863%,46.666667%,70.588235%);fill-opacity:1;stroke-width:1;stroke-linecap:butt;stroke-linejoin:round;stroke:rgb(12.156863%,46.666667%,70.588235%);stroke-opacity:1;stroke-miterlimit:4;" d="M -0.00136 2.999566 C 0.795515 2.999566 1.558015 2.683941 2.120515 2.121441 C 2.683015 1.558941 2.99864 0.796441 2.99864 -0.000434 C 2.99864 -0.794184 2.683015 -1.559809 2.120515 -2.122309 C 1.558015 -2.684809 0.795515 -3.000434 -0.00136 -3.000434 C -0.79511 -3.000434 -1.55761 -2.684809 -2.12011 -2.122309 C -2.68261 -1.559809 -3.00136 -0.794184 -3.00136 -0.000434 C -3.00136 0.796441 -2.68261 1.558941 -2.12011 2.121441 C -1.55761 2.683941 -0.79511 2.999566 -0.00136 2.999566 Z M -0.00136 2.999566 " transform="matrix(1.25,0,0,1.25,144.40795,35.176324)"/>
<path style="fill-rule:nonzero;fill:rgb(12.156863%,46.666667%,70.588235%);fill-opacity:1;stroke-width:1;stroke-linecap:butt;stroke-linejoin:round;stroke:rgb(12.156863%,46.666667%,70.588235%);stroke-opacity:1;stroke-miterlimit:4;" d="M 0.000264 2.999439 C 0.797139 2.999439 1.559639 2.683814 2.122139 2.121314 C 2.684639 1.558814 3.000264 0.796314 3.000264 -0.000561 C 3.000264 -0.794311 2.684639 -1.559936 2.122139 -2.122436 C 1.559639 -2.684936 0.797139 -3.000561 0.000264 -3.000561 C -0.796611 -3.000561 -1.559111 -2.684936 -2.121611 -2.122436 C -2.684111 -1.559936 -2.999736 -0.794311 -2.999736 -0.000561 C -2.999736 0.796314 -2.684111 1.558814 -2.121611 2.121314 C -1.559111 2.683814 -0.796611 2.999439 0.000264 2.999439 Z M 0.000264 2.999439 " transform="matrix(1.25,0,0,1.25,148.93717,42.938201)"/>
<path style="fill-rule:nonzero;fill:rgb(12.156863%,46.666667%,70.588235%);fill-opacity:1;stroke-width:1;stroke-linecap:butt;stroke-linejoin:round;stroke:rgb(12.156863%,46.666667%,70.588235%);stroke-opacity:1;stroke-miterlimit:4;" d="M -0.001238 2.99927 C 0.795637 2.99927 1.558137 2.683645 2.120637 2.121145 C 2.683137 1.558645 2.998762 0.796145 2.998762 -0.00073 C 2.998762 -0.79448 2.683137 -1.560105 2.120637 -2.122605 C 1.558137 -2.685105 0.795637 -3.00073 -0.001238 -3.00073 C -0.794988 -3.00073 -1.557488 -2.685105 -2.119988 -2.122605 C -2.682488 -1.560105 -3.001238 -0.79448 -3.001238 -0.00073 C -3.001238 0.796145 -2.682488 1.558645 -2.119988 2.121145 C -1.557488 2.683645 -0.794988 2.99927 -0.001238 2.99927 Z M -0.001238 2.99927 " transform="matrix(1.25,0,0,1.25,153.466391,33.625913)"/>
<path style="fill-rule:nonzero;fill:rgb(12.156863%,46.666667%,70.588235%);fill-opacity:1;stroke-width:1;stroke-linecap:butt;stroke-linejoin:round;stroke:rgb(12.156863%,46.666667%,70.588235%);stroke-opacity:1;stroke-miterlimit:4;" d="M 0.000386 3.000604 C 0.794136 3.000604 1.559761 2.684979 2.122261 2.122479 C 2.684761 1.559979 3.000386 0.794354 3.000386 0.000604 C 3.000386 -0.796271 2.684761 -1.558771 2.122261 -2.121271 C 1.559761 -2.683771 0.794136 -2.999396 0.000386 -2.999396 C -0.796489 -2.999396 -1.558989 -2.683771 -2.121489 -2.121271 C -2.683989 -1.558771 -2.999614 -0.796271 -2.999614 0.000604 C -2.999614 0.794354 -2.683989 1.559979 -2.121489 2.122479 C -1.558989 2.684979 -0.796489 3.000604 0.000386 3.000604 Z M 0.000386 3.000604 " transform="matrix(1.25,0,0,1.25,157.995611,40.850808)"/>
<path style="fill-rule:nonzero;fill:rgb(12.156863%,46.666667%,70.588235%);fill-opacity:1;stroke-width:1;stroke-linecap:butt;stroke-linejoin:round;stroke:rgb(12.156863%,46.666667%,70.588235%);stroke-opacity:1;stroke-miterlimit:4;" d="M -0.001116 3 C 0.795759 3 1.558259 2.684375 2.120759 2.121875 C 2.683259 1.559375 2.998884 0.796875 2.998884 -0.000000000000008882 C 2.998884 -0.796875 2.683259 -1.559375 2.120759 -2.121875 C 1.558259 -2.684375 0.795759 -3 -0.001116 -3 C -0.794866 -3 -1.557366 -2.684375 -2.119866 -2.121875 C -2.682366 -1.559375 -3.001116 -0.796875 -3.001116 -0.000000000000008882 C -3.001116 0.796875 -2.682366 1.559375 -2.119866 2.121875 C -1.557366 2.684375 -0.794866 3 -0.001116 3 Z M -0.001116 3 " transform="matrix(1.25,0,0,1.25,162.524833,16.875)"/>
<path style="fill-rule:nonzero;fill:rgb(12.156863%,46.666667%,70.588235%);fill-opacity:1;stroke-width:1;stroke-linecap:butt;stroke-linejoin:round;stroke:rgb(12.156863%,46.666667%,70.588235%);stroke-opacity:1;stroke-miterlimit:4;" d="M 0.000507 2.999354 C 0.794257 2.999354 1.559882 2.683729 2.122382 2.121229 C 2.684882 1.558729 3.000507 0.796229 3.000507 -0.000646 C 3.000507 -0.794396 2.684882 -1.560021 2.122382 -2.122521 C 1.559882 -2.685021 0.794257 -3.000646 0.000507 -3.000646 C -0.796368 -3.000646 -1.558868 -2.685021 -2.121368 -2.122521 C -2.683868 -1.560021 -2.999493 -0.794396 -2.999493 -0.000646 C -2.999493 0.796229 -2.683868 1.558729 -2.121368 2.121229 C -1.558868 2.683729 -0.796368 2.999354 0.000507 2.999354 Z M 0.000507 2.999354 " transform="matrix(1.25,0,0,1.25,167.054054,26.000808)"/>
<path style="fill-rule:nonzero;fill:rgb(12.156863%,46.666667%,70.588235%);fill-opacity:1;stroke-width:1;stroke-linecap:butt;stroke-linejoin:round;stroke:rgb(12.156863%,46.666667%,70.588235%);stroke-opacity:1;stroke-miterlimit:4;" d="M -0.000994 3.000194 C 0.795881 3.000194 1.558381 2.684569 2.120881 2.122069 C 2.683381 1.559569 2.999006 0.797069 2.999006 0.000194 C 2.999006 -0.796681 2.683381 -1.559181 2.120881 -2.121681 C 1.558381 -2.684181 0.795881 -2.999806 -0.000994 -2.999806 C -0.794744 -2.999806 -1.557244 -2.684181 -2.122869 -2.121681 C -2.685369 -1.559181 -3.000994 -0.796681 -3.000994 0.000194 C -3.000994 0.797069 -2.685369 1.559569 -2.122869 2.122069 C -1.557244 2.684569 -0.794744 3.000194 -0.000994 3.000194 Z M -0.000994 3.000194 " transform="matrix(1.25,0,0,1.25,171.583274,49.718508)"/>
<path style="fill-rule:nonzero;fill:rgb(12.156863%,46.666667%,70.588235%);fill-opacity:1;stroke-width:1;stroke-linecap:butt;stroke-linejoin:round;stroke:rgb(12.156863%,46.666667%,70.588235%);stroke-opacity:1;stroke-miterlimit:4;" d="M 0.000629 3.001041 C 0.794379 3.001041 1.560004 2.685416 2.122504 2.119791 C 2.685004 1.557291 3.000629 0.794791 3.000629 0.001041 C 3.000629 -0.795834 2.685004 -1.558334 2.122504 -2.120834 C 1.560004 -2.683334 0.794379 -2.998959 0.000629 -2.998959 C -0.796246 -2.998959 -1.558746 -2.683334 -2.121246 -2.120834 C -2.683746 -1.558334 -2.999371 -0.795834 -2.999371 0.001041 C -2.999371 0.794791 -2.683746 1.557291 -2.121246 2.119791 C -1.558746 2.685416 -0.796246 3.001041 0.000629 3.001041 Z M 0.000629 3.001041 " transform="matrix(1.25,0,0,1.25,176.112495,58.213543)"/>
<path style="fill-rule:nonzero;fill:rgb(12.156863%,46.666667%,70.588235%);fill-opacity:1;stroke-width:1;stroke-linecap:butt;stroke-linejoin:round;stroke:rgb(12.156863%,46.666667%,70.588235%);stroke-opacity:1;stroke-miterlimit:4;" d="M -0.000873 2.99998 C 0.796002 2.99998 1.558502 2.684355 2.121002 2.121855 C 2.683502 1.559355 2.999127 0.796855 2.999127 -0.00002 C 2.999127 -0.796895 2.683502 -1.559395 2.121002 -2.121895 C 1.558502 -2.684395 0.796002 -3.00002 -0.000873 -3.00002 C -0.794623 -3.00002 -1.560248 -2.684395 -2.122748 -2.121895 C -2.685248 -1.559395 -3.000873 -0.796895 -3.000873 -0.00002 C -3.000873 0.796855 -2.685248 1.559355 -2.122748 2.121855 C -1.560248 2.684355 -0.794623 2.99998 -0.000873 2.99998 Z M -0.000873 2.99998 " transform="matrix(1.25,0,0,1.25,180.641716,53.718775)"/>
<path style="fill-rule:nonzero;fill:rgb(12.156863%,46.666667%,70.588235%);fill-opacity:1;stroke-width:1;stroke-linecap:butt;stroke-linejoin:round;stroke:rgb(12.156863%,46.666667%,70.588235%);stroke-opacity:1;stroke-miterlimit:4;" d="M 0.000751 3.001001 C 0.794501 3.001001 1.560126 2.685376 2.122626 2.122876 C 2.685126 1.557251 3.000751 0.794751 3.000751 0.001001 C 3.000751 -0.795874 2.685126 -1.558374 2.122626 -2.120874 C 1.560126 -2.683374 0.794501 -2.998999 0.000751 -2.998999 C -0.796124 -2.998999 -1.558624 -2.683374 -2.121124 -2.120874 C -2.683624 -1.558374 -2.999249 -0.795874 -2.999249 0.001001 C -2.999249 0.794751 -2.683624 1.557251 -2.121124 2.122876 C -1.558624 2.685376 -0.796124 3.001001 0.000751 3.001001 Z M 0.000751 3.001001 " transform="matrix(1.25,0,0,1.25,185.170936,76.279999)"/>
<path style="fill-rule:nonzero;fill:rgb(12.156863%,46.666667%,70.588235%);fill-opacity:1;stroke-width:1;stroke-linecap:butt;stroke-linejoin:round;stroke:rgb(12.156863%,46.666667%,70.588235%);stroke-opacity:1;stroke-miterlimit:4;" d="M -0.000751 2.999445 C 0.796124 2.999445 1.558624 2.68382 2.121124 2.12132 C 2.683624 1.55882 2.999249 0.79632 2.999249 -0.000555 C 2.999249 -0.794305 2.683624 -1.55993 2.121124 -2.12243 C 1.558624 -2.68493 0.796124 -3.000555 -0.000751 -3.000555 C -0.794501 -3.000555 -1.560126 -2.68493 -2.122626 -2.12243 C -2.685126 -1.55993 -3.000751 -0.794305 -3.000751 -0.000555 C -3.000751 0.79632 -2.685126 1.55882 -2.122626 2.12132 C -1.560126 2.68382 -0.794501 2.999445 -0.000751 2.999445 Z M -0.000751 2.999445 " transform="matrix(1.25,0,0,1.25,189.700158,95.992881)"/>
<path style="fill-rule:nonzero;fill:rgb(12.156863%,46.666667%,70.588235%);fill-opacity:1;stroke-width:1;stroke-linecap:butt;stroke-linejoin:round;stroke:rgb(12.156863%,46.666667%,70.588235%);stroke-opacity:1;stroke-miterlimit:4;" d="M 0.000873 2.999874 C 0.794623 2.999874 1.560248 2.684249 2.122748 2.121749 C 2.685248 1.559249 3.000873 0.796749 3.000873 -0.000126 C 3.000873 -0.797001 2.685248 -1.559501 2.122748 -2.122001 C 1.560248 -2.684501 0.794623 -3.000126 0.000873 -3.000126 C -0.796002 -3.000126 -1.558502 -2.684501 -2.121002 -2.122001 C -2.683502 -1.559501 -2.999127 -0.797001 -2.999127 -0.000126 C -2.999127 0.796749 -2.683502 1.559249 -2.121002 2.121749 C -1.558502 2.684249 -0.796002 2.999874 0.000873 2.999874 Z M 0.000873 2.999874 " transform="matrix(1.25,0,0,1.25,194.229377,87.992345)"/>
<path style="fill-rule:nonzero;fill:rgb(12.156863%,46.666667%,70.588235%);fill-opacity:1;stroke-width:1;stroke-linecap:butt;stroke-linejoin:round;stroke:rgb(12.156863%,46.666667%,70.588235%);stroke-opacity:1;stroke-miterlimit:4;" d="M -0.000629 3.000483 C 0.796246 3.000483 1.558746 2.684858 2.121246 2.122358 C 2.683746 1.559858 2.999371 0.794233 2.999371 0.000483 C 2.999371 -0.796392 2.683746 -1.558892 2.121246 -2.121392 C 1.558746 -2.683892 0.796246 -2.999517 -0.000629 -2.999517 C -0.794379 -2.999517 -1.560004 -2.683892 -2.122504 -2.121392 C -2.685004 -1.558892 -3.000629 -0.796392 -3.000629 0.000483 C -3.000629 0.794233 -2.685004 1.559858 -2.122504 2.122358 C -1.560004 2.684858 -0.794379 3.000483 -0.000629 3.000483 Z M -0.000629 3.000483 " transform="matrix(1.25,0,0,1.25,198.758599,115.229865)"/>
<path style="fill-rule:nonzero;fill:rgb(12.156863%,46.666667%,70.588235%);fill-opacity:1;stroke-width:1;stroke-linecap:butt;stroke-linejoin:round;stroke:rgb(12.156863%,46.666667%,70.588235%);stroke-opacity:1;stroke-miterlimit:4;" d="M 0.000994 2.998487 C 0.794744 2.998487 1.557244 2.682862 2.122869 2.120362 C 2.685369 1.557862 3.000994 0.795362 3.000994 -0.001513 C 3.000994 -0.795263 2.685369 -1.557763 2.122869 -2.120263 C 1.557244 -2.682763 0.794744 -3.001513 0.000994 -3.001513 C -0.795881 -3.001513 -1.558381 -2.682763 -2.120881 -2.120263 C -2.683381 -1.557763 -2.999006 -0.795263 -2.999006 -0.001513 C -2.999006 0.795362 -2.683381 1.557862 -2.120881 2.120362 C -1.558381 2.682862 -0.795881 2.998487 0.000994 2.998487 Z M 0.000994 2.998487 " transform="matrix(1.25,0,0,1.25,203.28782,103.497985)"/>
<path style="fill-rule:nonzero;fill:rgb(12.156863%,46.666667%,70.588235%);fill-opacity:1;stroke-width:1;stroke-linecap:butt;stroke-linejoin:round;stroke:rgb(12.156863%,46.666667%,70.588235%);stroke-opacity:1;stroke-miterlimit:4;" d="M -0.000507 2.999205 C 0.796368 2.999205 1.558868 2.68358 2.121368 2.12108 C 2.683868 1.55858 2.999493 0.79608 2.999493 -0.000795 C 2.999493 -0.794545 2.683868 -1.56017 2.121368 -2.12267 C 1.558868 -2.68517 0.796368 -3.000795 -0.000507 -3.000795 C -0.794257 -3.000795 -1.559882 -2.68517 -2.122382 -2.12267 C -2.684882 -1.56017 -3.000507 -0.794545 -3.000507 -0.000795 C -3.000507 0.79608 -2.684882 1.55858 -2.122382 2.12108 C -1.559882 2.68358 -0.794257 2.999205 -0.000507 2.999205 Z M -0.000507 2.999205 " transform="matrix(1.25,0,0,1.25,207.81704,100.915056)"/>
<path style="fill-rule:nonzero;fill:rgb(12.156863%,46.666667%,70.588235%);fill-opacity:1;stroke-width:1;stroke-linecap:butt;stroke-linejoin:round;stroke:rgb(12.156863%,46.666667%,70.588235%);stroke-opacity:1;stroke-miterlimit:4;" d="M 0.001116 3.001038 C 0.794866 3.001038 1.557366 2.685413 2.119866 2.119788 C 2.682366 1.557288 3.001116 0.794788 3.001116 0.001038 C 3.001116 -0.795837 2.682366 -1.558337 2.119866 -2.120837 C 1.557366 -2.683337 0.794866 -2.998962 0.001116 -2.998962 C -0.795759 -2.998962 -1.558259 -2.683337 -2.120759 -2.120837 C -2.683259 -1.558337 -2.998884 -0.795837 -2.998884 0.001038 C -2.998884 0.794788 -2.683259 1.557288 -2.120759 2.119788 C -1.558259 2.685413 -0.795759 3.001038 0.001116 3.001038 Z M 0.001116 3.001038 " transform="matrix(1.25,0,0,1.25,212.346261,85.069015)"/>
<path style="fill-rule:nonzero;fill:rgb(12.156863%,46.666667%,70.588235%);fill-opacity:1;stroke-width:1;stroke-linecap:butt;stroke-linejoin:round;stroke:rgb(12.156863%,46.666667%,70.588235%);stroke-opacity:1;stroke-miterlimit:4;" d="M -0.000386 3.000378 C 0.796489 3.000378 1.558989 2.684753 2.121489 2.122253 C 2.683989 1.559753 2.999614 0.794128 2.999614 0.000378 C 2.999614 -0.796497 2.683989 -1.558997 2.121489 -2.121497 C 1.558989 -2.683997 0.796489 -2.999622 -0.000386 -2.999622 C -0.794136 -2.999622 -1.559761 -2.683997 -2.122261 -2.121497 C -2.684761 -1.558997 -3.000386 -0.796497 -3.000386 0.000378 C -3.000386 0.794128 -2.684761 1.559753 -2.122261 2.122253 C -1.559761 2.684753 -0.794136 3.000378 -0.000386 3.000378 Z M -0.000386 3.000378 " transform="matrix(1.25,0,0,1.25,216.875482,100.019059)"/>
<path style="fill-rule:nonzero;fill:rgb(12.156863%,46.666667%,70.588235%);fill-opacity:1;stroke-width:1;stroke-linecap:butt;stroke-linejoin:round;stroke:rgb(12.156863%,46.666667%,70.588235%);stroke-opacity:1;stroke-miterlimit:4;" d="M 0.001238 2.998917 C 0.794988 2.998917 1.557488 2.683292 2.119988 2.120792 C 2.682488 1.558292 3.001238 0.795792 3.001238 -0.001083 C 3.001238 -0.794833 2.682488 -1.557333 2.119988 -2.119833 C 1.557488 -2.685458 0.794988 -3.001083 0.001238 -3.001083 C -0.795637 -3.001083 -1.558137 -2.685458 -2.120637 -2.119833 C -2.683137 -1.557333 -2.998762 -0.794833 -2.998762 -0.001083 C -2.998762 0.795792 -2.683137 1.558292 -2.120637 2.120792 C -1.558137 2.683292 -0.795637 2.998917 0.001238 2.998917 Z M 0.001238 2.998917 " transform="matrix(1.25,0,0,1.25,221.404702,87.962291)"/>
<path style="fill-rule:nonzero;fill:rgb(12.156863%,46.666667%,70.588235%);fill-opacity:1;stroke-width:1;stroke-linecap:butt;stroke-linejoin:round;stroke:rgb(12.156863%,46.666667%,70.588235%);stroke-opacity:1;stroke-miterlimit:4;" d="M -0.000264 2.999954 C 0.796611 2.999954 1.559111 2.684329 2.121611 2.121829 C 2.684111 1.559329 2.999736 0.796829 2.999736 -0.000046 C 2.999736 -0.796921 2.684111 -1.559421 2.121611 -2.121921 C 1.559111 -2.684421 0.796611 -3.000046 -0.000264 -3.000046 C -0.797139 -3.000046 -1.559639 -2.684421 -2.122139 -2.121921 C -2.684639 -1.559421 -3.000264 -0.796921 -3.000264 -0.000046 C -3.000264 0.796829 -2.684639 1.559329 -2.122139 2.121829 C -1.559639 2.684329 -0.797139 2.999954 -0.000264 2.999954 Z M -0.000264 2.999954 " transform="matrix(1.25,0,0,1.25,225.933924,89.949276)"/>
<path style="fill-rule:nonzero;fill:rgb(12.156863%,46.666667%,70.588235%);fill-opacity:1;stroke-width:1;stroke-linecap:butt;stroke-linejoin:round;stroke:rgb(12.156863%,46.666667%,70.588235%);stroke-opacity:1;stroke-miterlimit:4;" d="M 0.00136 2.999025 C 0.79511 2.999025 1.55761 2.6834 2.12011 2.1209 C 2.68261 1.5584 3.00136 0.7959 3.00136 -0.000975 C 3.00136 -0.794725 2.68261 -1.557225 2.12011 -2.12285 C 1.55761 -2.68535 0.79511 -3.000975 0.00136 -3.000975 C -0.795515 -3.000975 -1.558015 -2.68535 -2.120515 -2.12285 C -2.683015 -1.557225 -2.99864 -0.794725 -2.99864 -0.000975 C -2.99864 0.7959 -2.683015 1.5584 -2.120515 2.1209 C -1.558015 2.6834 -0.795515 2.999025 0.00136 2.999025 Z M 0.00136 2.999025 " transform="matrix(1.25,0,0,1.25,230.463144,102.848875)"/>
<path style="fill-rule:nonzero;fill:rgb(12.156863%,46.666667%,70.588235%);fill-opacity:1;stroke-width:1;stroke-linecap:butt;stroke-linejoin:round;stroke:rgb(12.156863%,46.666667%,70.588235%);stroke-opacity:1;stroke-miterlimit:4;" d="M -0.000142 2.999756 C 0.796733 2.999756 1.559233 2.684131 2.121733 2.121631 C 2.684233 1.559131 2.999858 0.796631 2.999858 -0.000244 C 2.999858 -0.797119 2.684233 -1.559619 2.121733 -2.122119 C 1.559233 -2.684619 0.796733 -3.000244 -0.000142 -3.000244 C -0.797017 -3.000244 -1.559517 -2.684619 -2.122017 -2.122119 C -2.684517 -1.559619 -3.000142 -0.797119 -3.000142 -0.000244 C -3.000142 0.796631 -2.684517 1.559131 -2.122017 2.121631 C -1.559517 2.684131 -0.797017 2.999756 -0.000142 2.999756 Z M -0.000142 2.999756 " transform="matrix(1.25,0,0,1.25,234.992365,83.113586)"/>
<path style="fill-rule:nonzero;fill:rgb(12.156863%,46.666667%,70.588235%);fill-opacity:1;stroke-width:1;stroke-linecap:butt;stroke-linejoin:round;stroke:rgb(12.156863%,46.666667%,70.588235%);stroke-opacity:1;stroke-miterlimit:4;" d="M 0.001481 3.000662 C 0.795231 3.000662 1.557731 2.685037 2.120231 2.122537 C 2.682731 1.560037 3.001481 0.794412 3.001481 0.000662 C 3.001481 -0.796213 2.682731 -1.558713 2.120231 -2.121213 C 1.557731 -2.683713 0.795231 -2.999338 0.001481 -2.999338 C -0.795394 -2.999338 -1.557894 -2.683713 -2.120394 -2.121213 C -2.682894 -1.558713 -2.998519 -0.796213 -2.998519 0.000662 C -2.998519 0.794412 -2.682894 1.560037 -2.120394 2.122537 C -1.557894 2.685037 -0.795394 3.000662 0.001481 3.000662 Z M 0.001481 3.000662 " transform="matrix(1.25,0,0,1.25,239.521586,94.171048)"/>
<path style="fill-rule:nonzero;fill:rgb(12.156863%,46.666667%,70.588235%);fill-opacity:1;stroke-width:1;stroke-linecap:butt;stroke-linejoin:round;stroke:rgb(12.156863%,46.666667%,70.588235%);stroke-opacity:1;stroke-miterlimit:4;" d="M -0.00002 3.001128 C 0.796855 3.001128 1.559355 2.682378 2.121855 2.119878 C 2.684355 1.557378 2.99998 0.794878 2.99998 0.001128 C 2.99998 -0.795747 2.684355 -1.558247 2.121855 -2.120747 C 1.559355 -2.683247 0.796855 -2.998872 -0.00002 -2.998872 C -0.796895 -2.998872 -1.559395 -2.683247 -2.121895 -2.120747 C -2.684395 -1.558247 -3.00002 -0.795747 -3.00002 0.001128 C -3.00002 0.794878 -2.684395 1.557378 -2.121895 2.119878 C -1.559395 2.682378 -0.796895 3.001128 -0.00002 3.001128 Z M -0.00002 3.001128 " transform="matrix(1.25,0,0,1.25,244.050806,106.56109)"/>
<path style="fill-rule:nonzero;fill:rgb(12.156863%,46.666667%,70.588235%);fill-opacity:1;stroke-width:1;stroke-linecap:butt;stroke-linejoin:round;stroke:rgb(12.156863%,46.666667%,70.588235%);stroke-opacity:1;stroke-miterlimit:4;" d="M -0.001522 3.000794 C 0.795353 3.000794 1.557853 2.685169 2.120353 2.122669 C 2.682853 1.560169 2.998478 0.794544 2.998478 0.000794 C 2.998478 -0.796081 2.682853 -1.558581 2.120353 -2.121081 C 1.557853 -2.683581 0.795353 -2.999206 -0.001522 -2.999206 C -0.795272 -2.999206 -1.557772 -2.683581 -2.120272 -2.121081 C -2.682772 -1.558581 -3.001522 -0.796081 -3.001522 0.000794 C -3.001522 0.794544 -2.682772 1.560169 -2.120272 2.122669 C -1.557772 2.685169 -0.795272 3.000794 -0.001522 3.000794 Z M -0.001522 3.000794 " transform="matrix(1.25,0,0,1.25,248.580027,121.471664)"/>
<path style="fill-rule:nonzero;fill:rgb(12.156863%,46.666667%,70.588235%);fill-opacity:1;stroke-width:1;stroke-linecap:butt;stroke-linejoin:round;stroke:rgb(12.156863%,46.666667%,70.588235%);stroke-opacity:1;stroke-miterlimit:4;" d="M 0.000101 3.000962 C 0.796976 3.000962 1.559476 2.685337 2.121976 2.122837 C 2.684476 1.557212 3.000101 0.794712 3.000101 0.000962 C 3.000101 -0.795913 2.684476 -1.558413 2.121976 -2.120913 C 1.559476 -2.683413 0.796976 -2.999038 0.000101 -2.999038 C -0.796774 -2.999038 -1.559274 -2.683413 -2.121774 -2.120913 C -2.684274 -1.558413 -2.999899 -0.795913 -2.999899 0.000962 C -2.999899 0.794712 -2.684274 1.557212 -2.121774 2.122837 C -1.559274 2.685337 -0.796774 3.000962 0.000101 3.000962 Z M 0.000101 3.000962 " transform="matrix(1.25,0,0,1.25,253.109249,139.889422)"/>
<path style="fill-rule:nonzero;fill:rgb(12.156863%,46.666667%,70.588235%);fill-opacity:1;stroke-width:1;stroke-linecap:butt;stroke-linejoin:round;stroke:rgb(12.156863%,46.666667%,70.588235%);stroke-opacity:1;stroke-miterlimit:4;" d="M -0.0014 3.000844 C 0.795475 3.000844 1.557975 2.685219 2.120475 2.122719 C 2.682975 1.560219 2.9986 0.794594 2.9986 0.000844 C 2.9986 -0.796031 2.682975 -1.558531 2.120475 -2.121031 C 1.557975 -2.683531 0.795475 -2.999156 -0.0014 -2.999156 C -0.79515 -2.999156 -1.55765 -2.683531 -2.12015 -2.121031 C -2.68265 -1.558531 -3.0014 -0.796031 -3.0014 0.000844 C -3.0014 0.794594 -2.68265 1.560219 -2.12015 2.122719 C -1.55765 2.685219 -0.79515 3.000844 -0.0014 3.000844 Z M -0.0014 3.000844 " transform="matrix(1.25,0,0,1.25,257.638469,137.850507)"/>
<path style="fill-rule:nonzero;fill:rgb(12.156863%,46.666667%,70.588235%);fill-opacity:1;stroke-width:1;stroke-linecap:butt;stroke-linejoin:round;stroke:rgb(12.156863%,46.666667%,70.588235%);stroke-opacity:1;stroke-miterlimit:4;" d="M 0.000223 2.998821 C 0.797098 2.998821 1.559598 2.683196 2.122098 2.120696 C 2.684598 1.558196 3.000223 0.795696 3.000223 -0.001179 C 3.000223 -0.794929 2.684598 -1.557429 2.122098 -2.119929 C 1.559598 -2.682429 0.797098 -3.001179 0.000223 -3.001179 C -0.796652 -3.001179 -1.559152 -2.682429 -2.121652 -2.119929 C -2.684152 -1.557429 -2.999777 -0.794929 -2.999777 -0.001179 C -2.999777 0.795696 -2.684152 1.558196 -2.121652 2.120696 C -1.559152 2.683196 -0.796652 2.998821 0.000223 2.998821 Z M 0.000223 2.998821 " transform="matrix(1.25,0,0,1.25,262.16769,155.360849)"/>
<path style="fill-rule:nonzero;fill:rgb(12.156863%,46.666667%,70.588235%);fill-opacity:1;stroke-width:1;stroke-linecap:butt;stroke-linejoin:round;stroke:rgb(12.156863%,46.666667%,70.588235%);stroke-opacity:1;stroke-miterlimit:4;" d="M -0.001278 3.001049 C 0.795597 3.001049 1.558097 2.685424 2.120597 2.119799 C 2.683097 1.557299 2.998722 0.794799 2.998722 0.001049 C 2.998722 -0.795826 2.683097 -1.558326 2.120597 -2.120826 C 1.558097 -2.683326 0.795597 -2.998951 -0.001278 -2.998951 C -0.795028 -2.998951 -1.557528 -2.683326 -2.120028 -2.120826 C -2.682528 -1.558326 -3.001278 -0.795826 -3.001278 0.001049 C -3.001278 0.794799 -2.682528 1.557299 -2.120028 2.119799 C -1.557528 2.685424 -0.795028 3.001049 -0.001278 3.001049 Z M -0.001278 3.001049 " transform="matrix(1.25,0,0,1.25,266.69691,168.819001)"/>
<path style="fill-rule:nonzero;fill:rgb(12.156863%,46.666667%,70.588235%);fill-opacity:1;stroke-width:1;stroke-linecap:butt;stroke-linejoin:round;stroke:rgb(12.156863%,46.666667%,70.588235%);stroke-opacity:1;stroke-miterlimit:4;" d="M 0.000345 2.999019 C 0.794095 2.999019 1.55972 2.683394 2.12222 2.120894 C 2.68472 1.558394 3.000345 0.795894 3.000345 -0.000981 C 3.000345 -0.794731 2.68472 -1.557231 2.12222 -2.122856 C 1.55972 -2.685356 0.794095 -3.000981 0.000345 -3.000981 C -0.79653 -3.000981 -1.55903 -2.685356 -2.12153 -2.122856 C -2.68403 -1.557231 -2.999655 -0.794731 -2.999655 -0.000981 C -2.999655 0.795894 -2.68403 1.558394 -2.12153 2.120894 C -1.55903 2.683394 -0.79653 2.999019 0.000345 2.999019 Z M 0.000345 2.999019 " transform="matrix(1.25,0,0,1.25,271.226131,172.219976)"/>
<path style="fill-rule:nonzero;fill:rgb(12.156863%,46.666667%,70.588235%);fill-opacity:1;stroke-width:1;stroke-linecap:butt;stroke-linejoin:round;stroke:rgb(12.156863%,46.666667%,70.588235%);stroke-opacity:1;stroke-miterlimit:4;" d="M -0.001157 3 C 0.795718 3 1.558218 2.684375 2.120718 2.121875 C 2.683218 1.559375 2.998843 0.796875 2.998843 0 C 2.998843 -0.796875 2.683218 -1.559375 2.120718 -2.121875 C 1.558218 -2.684375 0.795718 -3 -0.001157 -3 C -0.794907 -3 -1.557407 -2.684375 -2.119907 -2.121875 C -2.682407 -1.559375 -3.001157 -0.796875 -3.001157 0 C -3.001157 0.796875 -2.682407 1.559375 -2.119907 2.121875 C -1.557407 2.684375 -0.794907 3 -0.001157 3 Z M -0.001157 3 " transform="matrix(1.25,0,0,1.25,275.755353,174.375)"/>
<path style="fill-rule:nonzero;fill:rgb(12.156863%,46.666667%,70.588235%);fill-opacity:1;stroke-width:1;stroke-linecap:butt;stroke-linejoin:round;stroke:rgb(12.156863%,46.666667%,70.588235%);stroke-opacity:1;stroke-miterlimit:4;" d="M 0.000467 3.000563 C 0.794217 3.000563 1.559842 2.684938 2.122342 2.122438 C 2.684842 1.559938 3.000467 0.794313 3.000467 0.000563 C 3.000467 -0.796312 2.684842 -1.558812 2.122342 -2.121312 C 1.559842 -2.683812 0.794217 -2.999437 0.000467 -2.999437 C -0.796408 -2.999437 -1.558908 -2.683812 -2.121408 -2.121312 C -2.683908 -1.558812 -2.999533 -0.796312 -2.999533 0.000563 C -2.999533 0.794313 -2.683908 1.559938 -2.121408 2.122438 C -1.558908 2.684938 -0.796408 3.000563 0.000467 3.000563 Z M 0.000467 3.000563 " transform="matrix(1.25,0,0,1.25,280.284572,139.069609)"/>
<path style="fill-rule:nonzero;fill:rgb(12.156863%,46.666667%,70.588235%);fill-opacity:1;stroke-width:1;stroke-linecap:butt;stroke-linejoin:round;stroke:rgb(12.156863%,46.666667%,70.588235%);stroke-opacity:1;stroke-miterlimit:4;" d="M -0.001035 2.99994 C 0.79584 2.99994 1.55834 2.684315 2.12084 2.121815 C 2.68334 1.559315 2.998965 0.796815 2.998965 -0.00006 C 2.998965 -0.796935 2.68334 -1.559435 2.12084 -2.121935 C 1.55834 -2.684435 0.79584 -3.00006 -0.001035 -3.00006 C -0.794785 -3.00006 -1.557285 -2.684435 -2.119785 -2.121935 C -2.68541 -1.559435 -3.001035 -0.796935 -3.001035 -0.00006 C -3.001035 0.796815 -2.68541 1.559315 -2.119785 2.121815 C -1.557285 2.684315 -0.794785 2.99994 -0.001035 2.99994 Z M -0.001035 2.99994 " transform="matrix(1.25,0,0,1.25,284.813794,159.414137)"/>
<path style="fill-rule:nonzero;fill:rgb(12.156863%,46.666667%,70.588235%);fill-opacity:1;stroke-width:1;stroke-linecap:butt;stroke-linejoin:round;stroke:rgb(12.156863%,46.666667%,70.588235%);stroke-opacity:1;stroke-miterlimit:4;" d="M 0.000588 2.998841 C 0.794338 2.998841 1.559963 2.683216 2.122463 2.120716 C 2.684963 1.558216 3.000588 0.795716 3.000588 -0.001159 C 3.000588 -0.794909 2.684963 -1.557409 2.122463 -2.119909 C 1.559963 -2.682409 0.794338 -3.001159 0.000588 -3.001159 C -0.796287 -3.001159 -1.558787 -2.682409 -2.121287 -2.119909 C -2.683787 -1.557409 -2.999412 -0.794909 -2.999412 -0.001159 C -2.999412 0.795716 -2.683787 1.558216 -2.121287 2.120716 C -1.558787 2.683216 -0.796287 2.998841 0.000588 2.998841 Z M 0.000588 2.998841 " transform="matrix(1.25,0,0,1.25,289.343015,141.587386)"/>
<path style="fill-rule:nonzero;fill:rgb(12.156863%,46.666667%,70.588235%);fill-opacity:1;stroke-width:1;stroke-linecap:butt;stroke-linejoin:round;stroke:rgb(12.156863%,46.666667%,70.588235%);stroke-opacity:1;stroke-miterlimit:4;" d="M -0.000913 3.00107 C 0.795962 3.00107 1.558462 2.685445 2.120962 2.11982 C 2.683462 1.55732 2.999087 0.79482 2.999087 0.00107 C 2.999087 -0.795805 2.683462 -1.558305 2.120962 -2.120805 C 1.558462 -2.683305 0.795962 -2.99893 -0.000913 -2.99893 C -0.794663 -2.99893 -1.560288 -2.683305 -2.122788 -2.120805 C -2.685288 -1.558305 -3.000913 -0.795805 -3.000913 0.00107 C -3.000913 0.79482 -2.685288 1.55732 -2.122788 2.11982 C -1.560288 2.685445 -0.794663 3.00107 -0.000913 3.00107 Z M -0.000913 3.00107 " transform="matrix(1.25,0,0,1.25,293.872235,137.619756)"/>
<path style="fill-rule:nonzero;fill:rgb(12.156863%,46.666667%,70.588235%);fill-opacity:1;stroke-width:1;stroke-linecap:butt;stroke-linejoin:round;stroke:rgb(12.156863%,46.666667%,70.588235%);stroke-opacity:1;stroke-miterlimit:4;" d="M 0.00071 2.999064 C 0.79446 2.999064 1.560085 2.683439 2.122585 2.120939 C 2.685085 1.558439 3.00071 0.795939 3.00071 -0.000936 C 3.00071 -0.794686 2.685085 -1.557186 2.122585 -2.122811 C 1.560085 -2.685311 0.79446 -3.000936 0.00071 -3.000936 C -0.796165 -3.000936 -1.558665 -2.685311 -2.121165 -2.122811 C -2.683665 -1.557186 -2.99929 -0.794686 -2.99929 -0.000936 C -2.99929 0.795939 -2.683665 1.558439 -2.121165 2.120939 C -1.558665 2.683439 -0.796165 2.999064 0.00071 2.999064 Z M 0.00071 2.999064 " transform="matrix(1.25,0,0,1.25,298.401456,104.633982)"/>
<path style="fill:none;stroke-width:0.8;stroke-linecap:butt;stroke-linejoin:round;stroke:rgb(0%,0%,0%);stroke-opacity:1;stroke-miterlimit:4;" d="M -0.00071 0 L -0.00071 3.5 " transform="matrix(1.25,0,0,1.25,76.469638,182.25)"/>
<path style=" stroke:none;fill-rule:nonzero;fill:rgb(0%,0%,0%);fill-opacity:1;" d="M 76.464844 192.199219 C 75.832031 192.199219 75.355469 192.511719 75.035156 193.136719 C 74.714844 193.757812 74.554688 194.699219 74.554688 195.953125 C 74.554688 197.199219 74.714844 198.136719 75.035156 198.761719 C 75.355469 199.386719 75.832031 199.699219 76.464844 199.699219 C 77.105469 199.699219 77.585938 199.386719 77.902344 198.761719 C 78.222656 198.136719 78.382812 197.199219 78.382812 195.953125 C 78.382812 194.699219 78.222656 193.757812 77.902344 193.136719 C 77.585938 192.511719 77.105469 192.199219 76.464844 192.199219 Z M 76.464844 191.222656 C 77.488281 191.222656 78.269531 191.625 78.808594 192.433594 C 79.347656 193.242188 79.617188 194.414062 79.617188 195.953125 C 79.617188 197.484375 79.347656 198.65625 78.808594 199.464844 C 78.269531 200.273438 77.488281 200.675781 76.464844 200.675781 C 75.445312 200.675781 74.664062 200.273438 74.125 199.464844 C 73.585938 198.65625 73.316406 197.484375 73.316406 195.953125 C 73.316406 194.414062 73.585938 193.242188 74.125 192.433594 C 74.664062 191.625 75.445312 191.222656 76.464844 191.222656 Z M 76.464844 191.222656 "/>
<path style="fill:none;stroke-width:0.8;stroke-linecap:butt;stroke-linejoin:round;stroke:rgb(0%,0%,0%);stroke-opacity:1;stroke-miterlimit:4;" d="M -0.000426 0 L -0.000426 3.5 " transform="matrix(1.25,0,0,1.25,120.856001,182.25)"/>
<path style=" stroke:none;fill-rule:nonzero;fill:rgb(0%,0%,0%);fill-opacity:1;" d="M 118.429688 199.460938 L 120.445312 199.460938 L 120.445312 192.507812 L 118.253906 192.949219 L 118.253906 191.824219 L 120.433594 191.386719 L 121.664062 191.386719 L 121.664062 199.460938 L 123.679688 199.460938 L 123.679688 200.5 L 118.429688 200.5 Z M 118.429688 199.460938 "/>
<path style="fill:none;stroke-width:0.8;stroke-linecap:butt;stroke-linejoin:round;stroke:rgb(0%,0%,0%);stroke-opacity:1;stroke-miterlimit:4;" d="M -0.000142 0 L -0.000142 3.5 " transform="matrix(1.25,0,0,1.25,165.242365,182.25)"/>
<path style=" stroke:none;fill-rule:nonzero;fill:rgb(0%,0%,0%);fill-opacity:1;" d="M 163.664062 199.460938 L 167.96875 199.460938 L 167.96875 200.5 L 162.183594 200.5 L 162.183594 199.460938 C 162.648438 198.976562 163.285156 198.328125 164.09375 197.511719 C 164.902344 196.695312 165.410156 196.167969 165.617188 195.933594 C 166.011719 195.488281 166.289062 195.113281 166.445312 194.808594 C 166.601562 194.5 166.679688 194.199219 166.679688 193.902344 C 166.679688 193.417969 166.511719 193.023438 166.171875 192.71875 C 165.832031 192.410156 165.386719 192.257812 164.84375 192.257812 C 164.457031 192.257812 164.046875 192.324219 163.617188 192.460938 C 163.1875 192.59375 162.730469 192.796875 162.242188 193.070312 L 162.242188 191.824219 C 162.738281 191.625 163.203125 191.476562 163.632812 191.375 C 164.066406 191.273438 164.460938 191.222656 164.820312 191.222656 C 165.761719 191.222656 166.515625 191.457031 167.078125 191.929688 C 167.636719 192.402344 167.917969 193.03125 167.917969 193.820312 C 167.917969 194.195312 167.847656 194.550781 167.707031 194.886719 C 167.566406 195.222656 167.3125 195.617188 166.941406 196.074219 C 166.839844 196.191406 166.515625 196.53125 165.972656 197.097656 C 165.425781 197.660156 164.65625 198.449219 163.664062 199.460938 Z M 163.664062 199.460938 "/>
<path style="fill:none;stroke-width:0.8;stroke-linecap:butt;stroke-linejoin:round;stroke:rgb(0%,0%,0%);stroke-opacity:1;stroke-miterlimit:4;" d="M 0.000142 0 L 0.000142 3.5 " transform="matrix(1.25,0,0,1.25,209.628729,182.25)"/>
<path style=" stroke:none;fill-rule:nonzero;fill:rgb(0%,0%,0%);fill-opacity:1;" d="M 210.722656 195.585938 C 211.3125 195.710938 211.773438 195.972656 212.105469 196.375 C 212.4375 196.773438 212.601562 197.265625 212.601562 197.851562 C 212.601562 198.75 212.292969 199.445312 211.675781 199.9375 C 211.058594 200.429688 210.179688 200.675781 209.039062 200.675781 C 208.65625 200.675781 208.265625 200.636719 207.859375 200.5625 C 207.453125 200.488281 207.035156 200.375 206.605469 200.222656 L 206.605469 199.035156 C 206.945312 199.234375 207.320312 199.382812 207.726562 199.484375 C 208.132812 199.585938 208.558594 199.636719 209.003906 199.636719 C 209.777344 199.636719 210.363281 199.484375 210.769531 199.179688 C 211.175781 198.875 211.375 198.433594 211.375 197.851562 C 211.375 197.3125 211.1875 196.890625 210.8125 196.589844 C 210.4375 196.285156 209.914062 196.136719 209.242188 196.136719 L 208.179688 196.136719 L 208.179688 195.121094 L 209.289062 195.121094 C 209.894531 195.121094 210.359375 195 210.679688 194.757812 C 211.003906 194.515625 211.164062 194.167969 211.164062 193.710938 C 211.164062 193.242188 210.996094 192.886719 210.664062 192.636719 C 210.335938 192.382812 209.859375 192.257812 209.242188 192.257812 C 208.902344 192.257812 208.539062 192.296875 208.152344 192.371094 C 207.765625 192.441406 207.34375 192.554688 206.878906 192.710938 L 206.878906 191.613281 C 207.347656 191.480469 207.785156 191.382812 208.195312 191.320312 C 208.605469 191.253906 208.988281 191.222656 209.351562 191.222656 C 210.289062 191.222656 211.027344 191.433594 211.570312 191.859375 C 212.117188 192.285156 212.390625 192.859375 212.390625 193.582031 C 212.390625 194.085938 212.246094 194.515625 211.957031 194.863281 C 211.667969 195.210938 211.257812 195.449219 210.722656 195.585938 Z M 210.722656 195.585938 "/>
<path style="fill:none;stroke-width:0.8;stroke-linecap:butt;stroke-linejoin:round;stroke:rgb(0%,0%,0%);stroke-opacity:1;stroke-miterlimit:4;" d="M 0.000426 0 L 0.000426 3.5 " transform="matrix(1.25,0,0,1.25,254.015093,182.25)"/>
<path style=" stroke:none;fill-rule:nonzero;fill:rgb(0%,0%,0%);fill-opacity:1;" d="M 254.761719 192.460938 L 251.648438 197.324219 L 254.761719 197.324219 Z M 254.4375 191.386719 L 255.988281 191.386719 L 255.988281 197.324219 L 257.289062 197.324219 L 257.289062 198.351562 L 255.988281 198.351562 L 255.988281 200.5 L 254.761719 200.5 L 254.761719 198.351562 L 250.648438 198.351562 L 250.648438 197.160156 Z M 254.4375 191.386719 "/>
<path style="fill:none;stroke-width:0.8;stroke-linecap:butt;stroke-linejoin:round;stroke:rgb(0%,0%,0%);stroke-opacity:1;stroke-miterlimit:4;" d="M 0.00071 0 L 0.00071 3.5 " transform="matrix(1.25,0,0,1.25,298.401456,182.25)"/>
<path style=" stroke:none;fill-rule:nonzero;fill:rgb(0%,0%,0%);fill-opacity:1;" d="M 295.773438 191.386719 L 300.613281 191.386719 L 300.613281 192.425781 L 296.902344 192.425781 L 296.902344 194.65625 C 297.082031 194.59375 297.261719 194.550781 297.4375 194.519531 C 297.617188 194.488281 297.796875 194.476562 297.976562 194.476562 C 298.996094 194.476562 299.800781 194.753906 300.394531 195.3125 C 300.988281 195.867188 301.285156 196.621094 301.285156 197.574219 C 301.285156 198.554688 300.980469 199.316406 300.371094 199.863281 C 299.757812 200.40625 298.898438 200.675781 297.789062 200.675781 C 297.40625 200.675781 297.015625 200.644531 296.617188 200.578125 C 296.222656 200.511719 295.8125 200.414062 295.390625 200.285156 L 295.390625 199.046875 C 295.753906 199.246094 296.132812 199.394531 296.523438 199.492188 C 296.914062 199.589844 297.328125 199.636719 297.761719 199.636719 C 298.46875 199.636719 299.023438 199.453125 299.433594 199.082031 C 299.847656 198.710938 300.050781 198.210938 300.050781 197.574219 C 300.050781 196.941406 299.847656 196.4375 299.433594 196.070312 C 299.023438 195.699219 298.46875 195.511719 297.761719 195.511719 C 297.433594 195.511719 297.105469 195.546875 296.777344 195.621094 C 296.449219 195.695312 296.117188 195.808594 295.773438 195.964844 Z M 295.773438 191.386719 "/>
<path style=" stroke:none;fill-rule:nonzero;fill:rgb(0%,0%,0%);fill-opacity:1;" d="M 193.761719 213.421875 L 188.816406 220.074219 L 194.015625 227.09375 L 191.367188 227.09375 L 187.386719 221.722656 L 183.410156 227.09375 L 180.757812 227.09375 L 186.070312 219.941406 L 181.210938 213.421875 L 183.859375 213.421875 L 187.484375 218.292969 L 191.109375 213.421875 Z M 193.761719 213.421875 "/>
<path style="fill:none;stroke-width:0.8;stroke-linecap:butt;stroke-linejoin:round;stroke:rgb(0%,0%,0%);stroke-opacity:1;stroke-miterlimit:4;" d="M 0.001562 0.00027 L -3.498438 0.00027 " transform="matrix(1.25,0,0,1.25,65.373047,144.628569)"/>
<path style=" stroke:none;fill-rule:nonzero;fill:rgb(0%,0%,0%);fill-opacity:1;" d="M 39.519531 144.941406 L 47.34375 144.941406 L 47.34375 145.976562 L 39.519531 145.976562 Z M 39.519531 144.941406 "/>
<path style=" stroke:none;fill-rule:nonzero;fill:rgb(0%,0%,0%);fill-opacity:1;" d="M 50.21875 148.339844 L 52.234375 148.339844 L 52.234375 141.386719 L 50.042969 141.828125 L 50.042969 140.703125 L 52.222656 140.265625 L 53.453125 140.265625 L 53.453125 148.339844 L 55.46875 148.339844 L 55.46875 149.378906 L 50.21875 149.378906 Z M 50.21875 148.339844 "/>
<path style="fill:none;stroke-width:0.8;stroke-linecap:butt;stroke-linejoin:round;stroke:rgb(0%,0%,0%);stroke-opacity:1;stroke-miterlimit:4;" d="M 0.001562 0.00084 L -3.498438 0.00084 " transform="matrix(1.25,0,0,1.25,65.373047,92.74895)"/>
<path style=" stroke:none;fill-rule:nonzero;fill:rgb(0%,0%,0%);fill-opacity:1;" d="M 52.644531 89.195312 C 52.007812 89.195312 51.53125 89.507812 51.210938 90.132812 C 50.890625 90.757812 50.734375 91.695312 50.734375 92.949219 C 50.734375 94.199219 50.890625 95.136719 51.210938 95.761719 C 51.53125 96.386719 52.007812 96.699219 52.644531 96.699219 C 53.28125 96.699219 53.761719 96.386719 54.082031 95.761719 C 54.402344 95.136719 54.5625 94.199219 54.5625 92.949219 C 54.5625 91.695312 54.402344 90.757812 54.082031 90.132812 C 53.761719 89.507812 53.28125 89.195312 52.644531 89.195312 Z M 52.644531 88.21875 C 53.664062 88.21875 54.445312 88.625 54.984375 89.433594 C 55.523438 90.242188 55.792969 91.414062 55.792969 92.949219 C 55.792969 94.484375 55.523438 95.65625 54.984375 96.464844 C 54.445312 97.273438 53.664062 97.675781 52.644531 97.675781 C 51.621094 97.675781 50.84375 97.273438 50.304688 96.464844 C 49.765625 95.65625 49.496094 94.484375 49.496094 92.949219 C 49.496094 91.414062 49.765625 90.242188 50.304688 89.433594 C 50.84375 88.625 51.621094 88.21875 52.644531 88.21875 Z M 52.644531 88.21875 "/>
<path style="fill:none;stroke-width:0.8;stroke-linecap:butt;stroke-linejoin:round;stroke:rgb(0%,0%,0%);stroke-opacity:1;stroke-miterlimit:4;" d="M 0.001562 0.001409 L -3.498438 0.001409 " transform="matrix(1.25,0,0,1.25,65.373047,40.869333)"/>
<path style=" stroke:none;fill-rule:nonzero;fill:rgb(0%,0%,0%);fill-opacity:1;" d="M 50.222656 44.582031 L 52.234375 44.582031 L 52.234375 37.628906 L 50.042969 38.066406 L 50.042969 36.945312 L 52.222656 36.503906 L 53.457031 36.503906 L 53.457031 44.582031 L 55.46875 44.582031 L 55.46875 45.617188 L 50.222656 45.617188 Z M 50.222656 44.582031 "/>
<path style=" stroke:none;fill-rule:nonzero;fill:rgb(0%,0%,0%);fill-opacity:1;" d="M 11.441406 179.777344 C 11.441406 181.566406 12.109375 182.992188 13.445312 184.046875 C 14.777344 185.097656 16.597656 185.625 18.902344 185.625 C 21.195312 185.625 23.011719 185.097656 24.347656 184.046875 C 25.679688 182.992188 26.347656 181.566406 26.347656 179.777344 C 26.347656 177.988281 25.679688 176.570312 24.347656 175.523438 C 23.011719 174.476562 21.195312 173.953125 18.902344 173.953125 C 16.597656 173.953125 14.777344 174.476562 13.445312 175.523438 C 12.109375 176.570312 11.441406 177.988281 11.441406 179.777344 Z M 9.441406 179.777344 C 9.441406 177.222656 10.296875 175.179688 12.011719 173.652344 C 13.726562 172.121094 16.023438 171.355469 18.902344 171.355469 C 21.773438 171.355469 24.066406 172.121094 25.78125 173.652344 C 27.496094 175.179688 28.351562 177.222656 28.351562 179.777344 C 28.351562 182.339844 27.496094 184.386719 25.789062 185.925781 C 24.078125 187.457031 21.78125 188.226562 18.902344 188.226562 C 16.023438 188.226562 13.726562 187.457031 12.011719 185.925781 C 10.296875 184.386719 9.441406 182.339844 9.441406 179.777344 Z M 9.441406 179.777344 "/>
<path style=" stroke:none;fill-rule:nonzero;fill:rgb(0%,0%,0%);fill-opacity:1;" d="M 21.171875 157.777344 C 19.519531 157.777344 18.226562 158.117188 17.285156 158.796875 C 16.34375 159.476562 15.875 160.410156 15.875 161.597656 C 15.875 162.789062 16.34375 163.722656 17.285156 164.402344 C 18.226562 165.082031 19.519531 165.421875 21.171875 165.421875 C 22.824219 165.421875 24.117188 165.082031 25.058594 164.402344 C 26 163.722656 26.46875 162.789062 26.46875 161.597656 C 26.46875 160.410156 26 159.476562 25.058594 158.796875 C 24.117188 158.117188 22.824219 157.777344 21.171875 157.777344 Z M 16.398438 165.421875 C 15.585938 164.949219 14.984375 164.351562 14.589844 163.632812 C 14.195312 162.910156 13.996094 162.050781 13.996094 161.050781 C 13.996094 159.390625 14.65625 158.039062 15.972656 157.003906 C 17.289062 155.964844 19.023438 155.445312 21.171875 155.445312 C 23.320312 155.445312 25.054688 155.964844 26.375 157.003906 C 27.691406 158.039062 28.351562 159.390625 28.351562 161.050781 C 28.351562 162.050781 28.152344 162.910156 27.757812 163.632812 C 27.363281 164.351562 26.757812 164.949219 25.945312 165.421875 L 27.996094 165.421875 L 27.996094 167.679688 L 9 167.679688 L 9 165.421875 Z M 16.398438 165.421875 "/>
<path style=" stroke:none;fill-rule:nonzero;fill:rgb(0%,0%,0%);fill-opacity:1;" d="M 14.726562 143.011719 L 16.851562 143.011719 C 16.527344 143.644531 16.28125 144.300781 16.121094 144.988281 C 15.957031 145.667969 15.875 146.378906 15.875 147.113281 C 15.875 148.226562 16.046875 149.0625 16.386719 149.621094 C 16.726562 150.175781 17.242188 150.457031 17.925781 150.457031 C 18.445312 150.457031 18.855469 150.257812 19.152344 149.859375 C 19.449219 149.460938 19.730469 148.65625 20 147.453125 L 20.171875 146.683594 C 20.511719 145.089844 20.996094 143.957031 21.617188 143.285156 C 22.238281 142.613281 23.109375 142.277344 24.222656 142.277344 C 25.492188 142.277344 26.5 142.777344 27.242188 143.785156 C 27.980469 144.789062 28.351562 146.171875 28.351562 147.929688 C 28.351562 148.660156 28.28125 149.421875 28.136719 150.21875 C 27.992188 151.011719 27.78125 151.847656 27.496094 152.726562 L 25.175781 152.726562 C 25.609375 151.894531 25.933594 151.078125 26.148438 150.273438 C 26.363281 149.46875 26.46875 148.667969 26.46875 147.878906 C 26.46875 146.820312 26.289062 146.007812 25.925781 145.441406 C 25.5625 144.871094 25.054688 144.585938 24.394531 144.585938 C 23.785156 144.585938 23.316406 144.789062 22.992188 145.203125 C 22.667969 145.609375 22.351562 146.511719 22.050781 147.90625 L 21.867188 148.6875 C 21.574219 150.078125 21.125 151.082031 20.519531 151.703125 C 19.914062 152.320312 19.082031 152.628906 18.023438 152.628906 C 16.738281 152.628906 15.746094 152.171875 15.046875 151.261719 C 14.347656 150.347656 13.996094 149.054688 13.996094 147.378906 C 13.996094 146.550781 14.058594 145.769531 14.179688 145.039062 C 14.300781 144.304688 14.480469 143.628906 14.726562 143.011719 Z M 14.726562 143.011719 "/>
<path style=" stroke:none;fill-rule:nonzero;fill:rgb(0%,0%,0%);fill-opacity:1;" d="M 20.597656 127.003906 L 21.695312 127.003906 L 21.695312 137.332031 C 23.242188 137.234375 24.421875 136.765625 25.230469 135.933594 C 26.039062 135.101562 26.445312 133.9375 26.445312 132.449219 C 26.445312 131.585938 26.339844 130.75 26.128906 129.941406 C 25.917969 129.132812 25.601562 128.328125 25.175781 127.527344 L 27.300781 127.527344 C 27.640625 128.335938 27.902344 129.160156 28.082031 130.007812 C 28.261719 130.855469 28.351562 131.710938 28.351562 132.582031 C 28.351562 134.765625 27.71875 136.492188 26.449219 137.765625 C 25.179688 139.039062 23.460938 139.675781 21.292969 139.675781 C 19.054688 139.675781 17.28125 139.070312 15.96875 137.863281 C 14.652344 136.65625 13.996094 135.023438 13.996094 132.972656 C 13.996094 131.132812 14.589844 129.679688 15.773438 128.609375 C 16.957031 127.539062 18.5625 127.003906 20.597656 127.003906 Z M 19.9375 129.25 C 18.710938 129.265625 17.730469 129.609375 17 130.28125 C 16.265625 130.953125 15.898438 131.84375 15.898438 132.949219 C 15.898438 134.203125 16.253906 135.203125 16.960938 135.957031 C 17.667969 136.710938 18.667969 137.144531 19.953125 137.257812 Z M 19.9375 129.25 "/>
<path style=" stroke:none;fill-rule:nonzero;fill:rgb(0%,0%,0%);fill-opacity:1;" d="M 16.421875 115.398438 C 16.277344 115.648438 16.167969 115.925781 16.101562 116.222656 C 16.03125 116.519531 15.996094 116.84375 15.996094 117.203125 C 15.996094 118.472656 16.410156 119.449219 17.234375 120.128906 C 18.058594 120.808594 19.246094 121.148438 20.792969 121.148438 L 27.996094 121.148438 L 27.996094 123.40625 L 14.324219 123.40625 L 14.324219 121.148438 L 16.449219 121.148438 C 15.617188 120.671875 15.003906 120.058594 14.601562 119.304688 C 14.199219 118.546875 13.996094 117.625 13.996094 116.542969 C 13.996094 116.386719 14.007812 116.21875 14.027344 116.03125 C 14.046875 115.84375 14.074219 115.636719 14.117188 115.410156 Z M 16.421875 115.398438 "/>
<path style=" stroke:none;fill-rule:nonzero;fill:rgb(0%,0%,0%);fill-opacity:1;" d="M 14.324219 114.648438 L 14.324219 112.269531 L 25.796875 107.996094 L 14.324219 103.722656 L 14.324219 101.34375 L 27.996094 106.472656 L 27.996094 109.523438 Z M 14.324219 114.648438 "/>
<path style=" stroke:none;fill-rule:nonzero;fill:rgb(0%,0%,0%);fill-opacity:1;" d="M 21.125 92.03125 C 21.125 93.847656 21.332031 95.105469 21.746094 95.804688 C 22.160156 96.503906 22.867188 96.855469 23.871094 96.855469 C 24.667969 96.855469 25.300781 96.59375 25.769531 96.066406 C 26.234375 95.539062 26.46875 94.828125 26.46875 93.925781 C 26.46875 92.679688 26.027344 91.679688 25.144531 90.925781 C 24.261719 90.171875 23.089844 89.796875 21.625 89.796875 L 21.125 89.796875 Z M 20.195312 87.550781 L 27.996094 87.550781 L 27.996094 89.796875 L 25.921875 89.796875 C 26.75 90.308594 27.363281 90.949219 27.757812 91.714844 C 28.152344 92.480469 28.351562 93.417969 28.351562 94.523438 C 28.351562 95.921875 27.957031 97.035156 27.171875 97.863281 C 26.386719 98.6875 25.332031 99.101562 24.015625 99.101562 C 22.480469 99.101562 21.320312 98.585938 20.539062 97.558594 C 19.757812 96.527344 19.367188 94.992188 19.367188 92.949219 L 19.367188 89.796875 L 19.144531 89.796875 C 18.109375 89.796875 17.3125 90.136719 16.746094 90.816406 C 16.179688 91.496094 15.898438 92.449219 15.898438 93.679688 C 15.898438 94.460938 15.992188 95.222656 16.179688 95.964844 C 16.367188 96.703125 16.648438 97.414062 17.023438 98.097656 L 14.945312 98.097656 C 14.628906 97.277344 14.390625 96.480469 14.234375 95.707031 C 14.074219 94.933594 13.996094 94.179688 13.996094 93.449219 C 13.996094 91.46875 14.507812 89.992188 15.535156 89.015625 C 16.558594 88.039062 18.113281 87.550781 20.195312 87.550781 Z M 20.195312 87.550781 "/>
<path style=" stroke:none;fill-rule:nonzero;fill:rgb(0%,0%,0%);fill-opacity:1;" d="M 10.441406 80.703125 L 14.324219 80.703125 L 14.324219 76.078125 L 16.070312 76.078125 L 16.070312 80.703125 L 23.492188 80.703125 C 24.605469 80.703125 25.324219 80.550781 25.640625 80.246094 C 25.957031 79.941406 26.117188 79.320312 26.117188 78.382812 L 26.117188 76.078125 L 27.996094 76.078125 L 27.996094 78.382812 C 27.996094 80.117188 27.671875 81.3125 27.027344 81.972656 C 26.378906 82.632812 25.199219 82.960938 23.492188 82.960938 L 16.070312 82.960938 L 16.070312 84.609375 L 14.324219 84.609375 L 14.324219 82.960938 L 10.441406 82.960938 Z M 10.441406 80.703125 "/>
<path style=" stroke:none;fill-rule:nonzero;fill:rgb(0%,0%,0%);fill-opacity:1;" d="M 14.324219 73.125 L 14.324219 70.878906 L 27.996094 70.878906 L 27.996094 73.125 Z M 9 73.125 L 9 70.878906 L 11.847656 70.878906 L 11.847656 73.125 Z M 9 73.125 "/>
<path style=" stroke:none;fill-rule:nonzero;fill:rgb(0%,0%,0%);fill-opacity:1;" d="M 15.898438 60.882812 C 15.898438 62.085938 16.367188 63.035156 17.308594 63.738281 C 18.25 64.4375 19.535156 64.789062 21.171875 64.789062 C 22.808594 64.789062 24.09375 64.441406 25.035156 63.746094 C 25.976562 63.046875 26.445312 62.09375 26.445312 60.882812 C 26.445312 59.683594 25.972656 58.734375 25.03125 58.039062 C 24.085938 57.335938 22.800781 56.988281 21.171875 56.988281 C 19.550781 56.988281 18.269531 57.335938 17.320312 58.039062 C 16.371094 58.734375 15.898438 59.683594 15.898438 60.882812 Z M 13.996094 60.882812 C 13.996094 58.929688 14.632812 57.394531 15.902344 56.28125 C 17.171875 55.164062 18.925781 54.605469 21.171875 54.605469 C 23.410156 54.605469 25.164062 55.164062 26.441406 56.28125 C 27.714844 57.394531 28.351562 58.929688 28.351562 60.882812 C 28.351562 62.84375 27.714844 64.378906 26.441406 65.492188 C 25.164062 66.601562 23.410156 67.15625 21.171875 67.15625 C 18.925781 67.15625 17.171875 66.601562 15.902344 65.492188 C 14.632812 64.378906 13.996094 62.84375 13.996094 60.882812 Z M 13.996094 60.882812 "/>
<path style=" stroke:none;fill-rule:nonzero;fill:rgb(0%,0%,0%);fill-opacity:1;" d="M 19.742188 39.515625 L 27.996094 39.515625 L 27.996094 41.761719 L 19.816406 41.761719 C 18.523438 41.761719 17.554688 42.015625 16.914062 42.519531 C 16.269531 43.023438 15.949219 43.78125 15.949219 44.789062 C 15.949219 46.003906 16.335938 46.960938 17.109375 47.660156 C 17.878906 48.359375 18.933594 48.710938 20.269531 48.710938 L 27.996094 48.710938 L 27.996094 50.96875 L 14.324219 50.96875 L 14.324219 48.710938 L 16.449219 48.710938 C 15.625 48.171875 15.011719 47.539062 14.605469 46.8125 C 14.199219 46.082031 13.996094 45.242188 13.996094 44.289062 C 13.996094 42.71875 14.480469 41.53125 15.453125 40.726562 C 16.425781 39.917969 17.855469 39.515625 19.742188 39.515625 Z M 19.742188 39.515625 "/>
<path style=" stroke:none;fill-rule:nonzero;fill:rgb(0%,0%,0%);fill-opacity:1;" d="M 14.726562 26.324219 L 16.851562 26.324219 C 16.527344 26.957031 16.28125 27.613281 16.121094 28.300781 C 15.957031 28.980469 15.875 29.691406 15.875 30.425781 C 15.875 31.539062 16.046875 32.375 16.386719 32.933594 C 16.726562 33.488281 17.242188 33.769531 17.925781 33.769531 C 18.445312 33.769531 18.855469 33.570312 19.152344 33.171875 C 19.449219 32.773438 19.730469 31.96875 20 30.765625 L 20.171875 29.996094 C 20.511719 28.402344 20.996094 27.269531 21.617188 26.597656 C 22.238281 25.925781 23.109375 25.589844 24.222656 25.589844 C 25.492188 25.589844 26.5 26.089844 27.242188 27.097656 C 27.980469 28.101562 28.351562 29.484375 28.351562 31.242188 C 28.351562 31.972656 28.28125 32.734375 28.136719 33.53125 C 27.992188 34.324219 27.78125 35.160156 27.496094 36.039062 L 25.175781 36.039062 C 25.609375 35.207031 25.933594 34.390625 26.148438 33.585938 C 26.363281 32.78125 26.46875 31.980469 26.46875 31.191406 C 26.46875 30.132812 26.289062 29.320312 25.925781 28.753906 C 25.5625 28.183594 25.054688 27.898438 24.394531 27.898438 C 23.785156 27.898438 23.316406 28.101562 22.992188 28.515625 C 22.667969 28.921875 22.351562 29.824219 22.050781 31.21875 L 21.867188 32 C 21.574219 33.390625 21.125 34.394531 20.519531 35.015625 C 19.914062 35.632812 19.082031 35.941406 18.023438 35.941406 C 16.738281 35.941406 15.746094 35.484375 15.046875 34.574219 C 14.347656 33.660156 13.996094 32.367188 13.996094 30.691406 C 13.996094 29.863281 14.058594 29.082031 14.179688 28.351562 C 14.300781 27.617188 14.480469 26.941406 14.726562 26.324219 Z M 14.726562 26.324219 "/>
<path style=" stroke:none;fill-rule:nonzero;fill:rgb(0%,0%,0%);fill-opacity:1;" d="M 29.265625 8.378906 C 30.894531 9.011719 31.953125 9.628906 32.449219 10.234375 C 32.945312 10.835938 33.195312 11.640625 33.195312 12.648438 L 33.195312 14.445312 L 31.316406 14.445312 L 31.316406 13.125 C 31.316406 12.507812 31.167969 12.027344 30.875 11.6875 C 30.582031 11.34375 29.890625 10.964844 28.800781 10.550781 L 27.777344 10.148438 L 14.324219 15.675781 L 14.324219 13.296875 L 25.015625 9.023438 L 14.324219 4.75 L 14.324219 2.371094 Z M 29.265625 8.378906 "/>
<path style="fill:none;stroke-width:1.5;stroke-linecap:square;stroke-linejoin:round;stroke:rgb(12.156863%,46.666667%,70.588235%);stroke-opacity:1;stroke-miterlimit:4;" d="M 61.175 74.2 L 65.446875 59.61875 L 67.58125 53.046875 L 69.359375 48.184375 L 71.1375 44.009375 L 72.5625 41.221875 L 73.984375 38.96875 L 75.053125 37.6375 L 76.11875 36.621875 L 77.1875 35.921875 L 78.253125 35.525 L 79.321875 35.43125 L 80.3875 35.61875 L 81.45625 36.075 L 82.525 36.78125 L 83.946875 38.059375 L 85.36875 39.66875 L 87.15 42.034375 L 89.996875 46.265625 L 93.196875 50.959375 L 94.978125 53.215625 L 96.4 54.71875 L 97.821875 55.884375 L 98.890625 56.509375 L 99.959375 56.896875 L 101.025 57.0375 L 102.09375 56.91875 L 103.159375 56.5375 L 104.228125 55.8875 L 105.29375 54.978125 L 106.3625 53.815625 L 107.784375 51.890625 L 109.209375 49.571875 L 110.9875 46.196875 L 113.121875 41.615625 L 117.0375 32.5 L 119.884375 26.1125 L 121.6625 22.5625 L 123.084375 20.090625 L 124.509375 18.025 L 125.575 16.78125 L 126.64375 15.815625 L 127.709375 15.15625 L 128.778125 14.8125 L 129.846875 14.79375 L 130.9125 15.109375 L 131.98125 15.759375 L 133.046875 16.740625 L 134.115625 18.046875 L 135.18125 19.665625 L 136.60625 22.284375 L 138.028125 25.384375 L 139.809375 29.853125 L 141.94375 35.9 L 145.14375 45.8125 L 149.771875 60.13125 L 151.90625 66.053125 L 153.684375 70.40625 L 155.10625 73.43125 L 156.53125 76 L 157.953125 78.08125 L 159.021875 79.315625 L 160.0875 80.2625 L 161.15625 80.925 L 162.225 81.3125 L 163.290625 81.43125 L 164.359375 81.3 L 165.425 80.934375 L 166.49375 80.35625 L 167.915625 79.3 L 169.696875 77.6125 L 172.1875 74.834375 L 175.74375 70.80625 L 177.521875 69.115625 L 178.946875 68.05625 L 180.0125 67.475 L 181.08125 67.103125 L 182.15 66.965625 L 183.215625 67.08125 L 184.284375 67.4625 L 185.35 68.11875 L 186.41875 69.059375 L 187.484375 70.2875 L 188.553125 71.796875 L 189.975 74.240625 L 191.4 77.146875 L 193.178125 81.371875 L 195.3125 87.171875 L 197.803125 94.65625 L 204.91875 116.540625 L 207.05625 122.115625 L 208.834375 126.06875 L 210.25625 128.696875 L 211.68125 130.79375 L 212.746875 132 L 213.815625 132.878125 L 214.88125 133.421875 L 215.95 133.634375 L 217.01875 133.5125 L 218.084375 133.06875 L 219.153125 132.3125 L 220.21875 131.259375 L 221.2875 129.928125 L 222.709375 127.7625 L 224.134375 125.20625 L 225.9125 121.575 L 228.403125 115.95 L 233.740625 103.71875 L 235.875 99.503125 L 237.653125 96.540625 L 238.721875 95.053125 " transform="matrix(1.25,0,0,1.25,0,0.000000000000014211)"/>
<path style="fill:none;stroke-width:0.8;stroke-linecap:square;stroke-linejoin:miter;stroke:rgb(0%,0%,0%);stroke-opacity:1;stroke-miterlimit:4;" d="M 52.3 145.8 L 52.3 7.2 " transform="matrix(1.25,0,0,1.25,0,0.000000000000014211)"/>
<path style="fill:none;stroke-width:0.8;stroke-linecap:square;stroke-linejoin:miter;stroke:rgb(0%,0%,0%);stroke-opacity:1;stroke-miterlimit:4;" d="M 247.596875 145.8 L 247.596875 7.2 " transform="matrix(1.25,0,0,1.25,0,0.000000000000014211)"/>
<path style="fill:none;stroke-width:0.8;stroke-linecap:square;stroke-linejoin:miter;stroke:rgb(0%,0%,0%);stroke-opacity:1;stroke-miterlimit:4;" d="M 52.3 145.8 L 247.596875 145.8 " transform="matrix(1.25,0,0,1.25,0,0.000000000000014211)"/>
<path style="fill:none;stroke-width:0.8;stroke-linecap:square;stroke-linejoin:miter;stroke:rgb(0%,0%,0%);stroke-opacity:1;stroke-miterlimit:4;" d="M 52.3 7.2 L 247.596875 7.2 " transform="matrix(1.25,0,0,1.25,0,0.000000000000014211)"/>
</g>
</svg>
