<?xml version="1.0" encoding="UTF-8"?>
<svg xmlns="http://www.w3.org/2000/svg" xmlns:xlink="http://www.w3.org/1999/xlink" width="289pt" height="212pt" viewBox="0 0 289 212" version="1.1">
<g id="surface1">
<rect x="0" y="0" width="289" height="212" style="fill:rgb(100%,100%,100%);fill-opacity:1;stroke:none;"/>
<path style=" stroke:none;fill-rule:nonzero;fill:rgb(100%,100%,100%);fill-opacity:1;" d="M 36.179688 182.25 L 280.304688 182.25 L 280.304688 9 L 36.179688 9 Z M 36.179688 182.25 "/>
<path style=" stroke:none;fill-rule:nonzero;fill:rgb(12.156863%,46.666667%,70.588235%);fill-opacity:0.25098;" d="M 47.273438 16.875 L 47.273438 172.546875 L 269.207031 172.546875 L 269.207031 16.875 Z M 47.273438 16.875 "/>
<path style="fill:none;stroke-width:0.8;stroke-linecap:butt;stroke-linejoin:round;stroke:rgb(0%,0%,0%);stroke-opacity:1;stroke-miterlimit:4;" d="M -0.00071 0.000000000000028422 L -0.00071 3.5 " transform="matrix(1.25,0,0,1.25,47.274325,182.25)"/>
<path style=" stroke:none;fill-rule:nonzero;fill:rgb(0%,0%,0%);fill-opacity:1;" d="M 47.269531 192.199219 C 46.636719 192.199219 46.160156 192.511719 45.839844 193.136719 C 45.519531 193.757812 45.359375 194.699219 45.359375 195.953125 C 45.359375 197.199219 45.519531 198.136719 45.839844 198.761719 C 46.160156 199.386719 46.636719 199.699219 47.269531 199.699219 C 47.910156 199.699219 48.390625 199.386719 48.707031 198.761719 C 49.027344 198.136719 49.1875 197.199219 49.1875 195.953125 C 49.1875 194.699219 49.027344 193.757812 48.707031 193.136719 C 48.390625 192.511719 47.910156 192.199219 47.269531 192.199219 Z M 47.269531 191.222656 C 48.292969 191.222656 49.074219 191.625 49.613281 192.433594 C 50.152344 193.242188 50.421875 194.414062 50.421875 195.953125 C 50.421875 197.484375 50.152344 198.65625 49.613281 199.464844 C 49.074219 200.273438 48.292969 200.675781 47.269531 200.675781 C 46.25 200.675781 45.46875 200.273438 44.929688 199.464844 C 44.390625 198.65625 44.121094 197.484375 44.121094 195.953125 C 44.121094 194.414062 44.390625 193.242188 44.929688 192.433594 C 45.46875 191.625 46.25 191.222656 47.269531 191.222656 Z M 47.269531 191.222656 "/>
<path style="fill:none;stroke-width:0.8;stroke-linecap:butt;stroke-linejoin:round;stroke:rgb(0%,0%,0%);stroke-opacity:1;stroke-miterlimit:4;" d="M -0.000426 0.000000000000028422 L -0.000426 3.5 " transform="matrix(1.25,0,0,1.25,91.660689,182.25)"/>
<path style=" stroke:none;fill-rule:nonzero;fill:rgb(0%,0%,0%);fill-opacity:1;" d="M 89.234375 199.460938 L 91.25 199.460938 L 91.25 192.507812 L 89.058594 192.949219 L 89.058594 191.824219 L 91.238281 191.386719 L 92.46875 191.386719 L 92.46875 199.460938 L 94.484375 199.460938 L 94.484375 200.5 L 89.234375 200.5 Z M 89.234375 199.460938 "/>
<path style="fill:none;stroke-width:0.8;stroke-linecap:butt;stroke-linejoin:round;stroke:rgb(0%,0%,0%);stroke-opacity:1;stroke-miterlimit:4;" d="M -0.000142 0.000000000000028422 L -0.000142 3.5 " transform="matrix(1.25,0,0,1.25,136.047053,182.25)"/>
<path style=" stroke:none;fill-rule:nonzero;fill:rgb(0%,0%,0%);fill-opacity:1;" d="M 134.46875 199.460938 L 138.773438 199.460938 L 138.773438 200.5 L 132.988281 200.5 L 132.988281 199.460938 C 133.453125 198.976562 134.089844 198.328125 134.898438 197.511719 C 135.707031 196.695312 136.214844 196.167969 136.421875 195.933594 C 136.816406 195.488281 137.09375 195.113281 137.25 194.808594 C 137.40625 194.5 137.484375 194.199219 137.484375 193.902344 C 137.484375 193.417969 137.316406 193.023438 136.976562 192.71875 C 136.636719 192.410156 136.191406 192.257812 135.648438 192.257812 C 135.261719 192.257812 134.851562 192.324219 134.421875 192.460938 C 133.992188 192.59375 133.535156 192.796875 133.046875 193.070312 L 133.046875 191.824219 C 133.542969 191.625 134.007812 191.476562 134.4375 191.375 C 134.871094 191.273438 135.265625 191.222656 135.625 191.222656 C 136.566406 191.222656 137.320312 191.457031 137.882812 191.929688 C 138.441406 192.402344 138.722656 193.03125 138.722656 193.820312 C 138.722656 194.195312 138.652344 194.550781 138.511719 194.886719 C 138.371094 195.222656 138.117188 195.617188 137.746094 196.074219 C 137.644531 196.191406 137.320312 196.53125 136.777344 197.097656 C 136.230469 197.660156 135.460938 198.449219 134.46875 199.460938 Z M 134.46875 199.460938 "/>
<path style="fill:none;stroke-width:0.8;stroke-linecap:butt;stroke-linejoin:round;stroke:rgb(0%,0%,0%);stroke-opacity:1;stroke-miterlimit:4;" d="M 0.000142 0.000000000000028422 L 0.000142 3.5 " transform="matrix(1.25,0,0,1.25,180.433416,182.25)"/>
<path style=" stroke:none;fill-rule:nonzero;fill:rgb(0%,0%,0%);fill-opacity:1;" d="M 181.527344 195.585938 C 182.117188 195.710938 182.578125 195.972656 182.910156 196.375 C 183.242188 196.773438 183.40625 197.265625 183.40625 197.851562 C 183.40625 198.75 183.097656 199.445312 182.480469 199.9375 C 181.863281 200.429688 180.984375 200.675781 179.84375 200.675781 C 179.460938 200.675781 179.070312 200.636719 178.664062 200.5625 C 178.257812 200.488281 177.839844 200.375 177.410156 200.222656 L 177.410156 199.035156 C 177.75 199.234375 178.125 199.382812 178.53125 199.484375 C 178.9375 199.585938 179.363281 199.636719 179.808594 199.636719 C 180.582031 199.636719 181.167969 199.484375 181.574219 199.179688 C 181.980469 198.875 182.179688 198.433594 182.179688 197.851562 C 182.179688 197.3125 181.992188 196.890625 181.617188 196.589844 C 181.242188 196.285156 180.71875 196.136719 180.046875 196.136719 L 178.984375 196.136719 L 178.984375 195.121094 L 180.09375 195.121094 C 180.699219 195.121094 181.164062 195 181.484375 194.757812 C 181.808594 194.515625 181.96875 194.167969 181.96875 193.710938 C 181.96875 193.242188 181.800781 192.886719 181.46875 192.636719 C 181.140625 192.382812 180.664062 192.257812 180.046875 192.257812 C 179.707031 192.257812 179.34375 192.296875 178.957031 192.371094 C 178.570312 192.441406 178.148438 192.554688 177.683594 192.710938 L 177.683594 191.613281 C 178.152344 191.480469 178.589844 191.382812 179 191.320312 C 179.410156 191.253906 179.792969 191.222656 180.15625 191.222656 C 181.09375 191.222656 181.832031 191.433594 182.375 191.859375 C 182.921875 192.285156 183.195312 192.859375 183.195312 193.582031 C 183.195312 194.085938 183.050781 194.515625 182.761719 194.863281 C 182.472656 195.210938 182.0625 195.449219 181.527344 195.585938 Z M 181.527344 195.585938 "/>
<path style="fill:none;stroke-width:0.8;stroke-linecap:butt;stroke-linejoin:round;stroke:rgb(0%,0%,0%);stroke-opacity:1;stroke-miterlimit:4;" d="M 0.000426 0.000000000000028422 L 0.000426 3.5 " transform="matrix(1.25,0,0,1.25,224.81978,182.25)"/>
<path style=" stroke:none;fill-rule:nonzero;fill:rgb(0%,0%,0%);fill-opacity:1;" d="M 225.566406 192.460938 L 222.453125 197.324219 L 225.566406 197.324219 Z M 225.242188 191.386719 L 226.792969 191.386719 L 226.792969 197.324219 L 228.09375 197.324219 L 228.09375 198.351562 L 226.792969 198.351562 L 226.792969 200.5 L 225.566406 200.5 L 225.566406 198.351562 L 221.453125 198.351562 L 221.453125 197.160156 Z M 225.242188 191.386719 "/>
<path style="fill:none;stroke-width:0.8;stroke-linecap:butt;stroke-linejoin:round;stroke:rgb(0%,0%,0%);stroke-opacity:1;stroke-miterlimit:4;" d="M 0.00071 0.000000000000028422 L 0.00071 3.5 " transform="matrix(1.25,0,0,1.25,269.206144,182.25)"/>
<path style=" stroke:none;fill-rule:nonzero;fill:rgb(0%,0%,0%);fill-opacity:1;" d="M 266.578125 191.386719 L 271.417969 191.386719 L 271.417969 192.425781 L 267.707031 192.425781 L 267.707031 194.65625 C 267.886719 194.59375 268.066406 194.550781 268.242188 194.519531 C 268.421875 194.488281 268.601562 194.476562 268.78125 194.476562 C 269.800781 194.476562 270.605469 194.753906 271.199219 195.3125 C 271.792969 195.867188 272.089844 196.621094 272.089844 197.574219 C 272.089844 198.554688 271.785156 199.316406 271.175781 199.863281 C 270.5625 200.40625 269.703125 200.675781 268.59375 200.675781 C 268.210938 200.675781 267.820312 200.644531 267.421875 200.578125 C 267.027344 200.511719 266.617188 200.414062 266.195312 200.285156 L 266.195312 199.046875 C 266.558594 199.246094 266.9375 199.394531 267.328125 199.492188 C 267.71875 199.589844 268.132812 199.636719 268.566406 199.636719 C 269.273438 199.636719 269.828125 199.453125 270.238281 199.082031 C 270.652344 198.710938 270.855469 198.210938 270.855469 197.574219 C 270.855469 196.941406 270.652344 196.4375 270.238281 196.070312 C 269.828125 195.699219 269.273438 195.511719 268.566406 195.511719 C 268.238281 195.511719 267.910156 195.546875 267.582031 195.621094 C 267.253906 195.695312 266.921875 195.808594 266.578125 195.964844 Z M 266.578125 191.386719 "/>
<path style="fill:none;stroke-width:0.8;stroke-linecap:butt;stroke-linejoin:round;stroke:rgb(0%,0%,0%);stroke-opacity:1;stroke-miterlimit:4;" d="M 0.001562 -0.001219 L -3.498438 -0.001219 " transform="matrix(1.25,0,0,1.25,36.177735,172.548399)"/>
<path style=" stroke:none;fill-rule:nonzero;fill:rgb(0%,0%,0%);fill-opacity:1;" d="M 10.324219 172.859375 L 18.148438 172.859375 L 18.148438 173.898438 L 10.324219 173.898438 Z M 10.324219 172.859375 "/>
<path style=" stroke:none;fill-rule:nonzero;fill:rgb(0%,0%,0%);fill-opacity:1;" d="M 21.871094 176.261719 L 26.175781 176.261719 L 26.175781 177.296875 L 20.390625 177.296875 L 20.390625 176.261719 C 20.855469 175.777344 21.496094 175.125 22.300781 174.3125 C 23.109375 173.496094 23.617188 172.96875 23.824219 172.730469 C 24.21875 172.289062 24.496094 171.914062 24.652344 171.605469 C 24.808594 171.296875 24.886719 170.996094 24.886719 170.699219 C 24.886719 170.214844 24.71875 169.820312 24.378906 169.515625 C 24.039062 169.210938 23.59375 169.058594 23.050781 169.058594 C 22.664062 169.058594 22.253906 169.125 21.824219 169.257812 C 21.398438 169.390625 20.9375 169.597656 20.449219 169.871094 L 20.449219 168.625 C 20.945312 168.425781 21.410156 168.273438 21.839844 168.171875 C 22.273438 168.070312 22.667969 168.019531 23.027344 168.019531 C 23.96875 168.019531 24.722656 168.257812 25.285156 168.730469 C 25.84375 169.199219 26.125 169.832031 26.125 170.621094 C 26.125 170.996094 26.054688 171.351562 25.914062 171.6875 C 25.777344 172.019531 25.519531 172.414062 25.148438 172.871094 C 25.046875 172.988281 24.722656 173.332031 24.179688 173.894531 C 23.632812 174.457031 22.867188 175.246094 21.871094 176.261719 Z M 21.871094 176.261719 "/>
<path style="fill:none;stroke-width:0.8;stroke-linecap:butt;stroke-linejoin:round;stroke:rgb(0%,0%,0%);stroke-opacity:1;stroke-miterlimit:4;" d="M 0.001562 -0.000915 L -3.498438 -0.000915 " transform="matrix(1.25,0,0,1.25,36.177735,133.63005)"/>
<path style=" stroke:none;fill-rule:nonzero;fill:rgb(0%,0%,0%);fill-opacity:1;" d="M 10.324219 133.941406 L 18.148438 133.941406 L 18.148438 134.980469 L 10.324219 134.980469 Z M 10.324219 133.941406 "/>
<path style=" stroke:none;fill-rule:nonzero;fill:rgb(0%,0%,0%);fill-opacity:1;" d="M 21.023438 137.34375 L 23.039062 137.34375 L 23.039062 130.390625 L 20.847656 130.828125 L 20.847656 129.707031 L 23.027344 129.265625 L 24.257812 129.265625 L 24.257812 137.34375 L 26.273438 137.34375 L 26.273438 138.378906 L 21.023438 138.378906 Z M 21.023438 137.34375 "/>
<path style="fill:none;stroke-width:0.8;stroke-linecap:butt;stroke-linejoin:round;stroke:rgb(0%,0%,0%);stroke-opacity:1;stroke-miterlimit:4;" d="M 0.001562 -0.00061 L -3.498438 -0.00061 " transform="matrix(1.25,0,0,1.25,36.177735,94.7117)"/>
<path style=" stroke:none;fill-rule:nonzero;fill:rgb(0%,0%,0%);fill-opacity:1;" d="M 23.449219 91.160156 C 22.8125 91.160156 22.335938 91.472656 22.015625 92.097656 C 21.695312 92.722656 21.539062 93.660156 21.539062 94.914062 C 21.539062 96.164062 21.695312 97.097656 22.015625 97.722656 C 22.335938 98.347656 22.8125 98.660156 23.449219 98.660156 C 24.085938 98.660156 24.566406 98.347656 24.886719 97.722656 C 25.207031 97.097656 25.367188 96.164062 25.367188 94.914062 C 25.367188 93.660156 25.207031 92.722656 24.886719 92.097656 C 24.566406 91.472656 24.085938 91.160156 23.449219 91.160156 Z M 23.449219 90.183594 C 24.46875 90.183594 25.25 90.585938 25.789062 91.394531 C 26.328125 92.203125 26.597656 93.375 26.597656 94.914062 C 26.597656 96.449219 26.328125 97.617188 25.789062 98.425781 C 25.25 99.234375 24.46875 99.636719 23.449219 99.636719 C 22.425781 99.636719 21.648438 99.234375 21.109375 98.425781 C 20.570312 97.617188 20.300781 96.449219 20.300781 94.914062 C 20.300781 93.375 20.570312 92.203125 21.109375 91.394531 C 21.648438 90.585938 22.425781 90.183594 23.449219 90.183594 Z M 23.449219 90.183594 "/>
<path style="fill:none;stroke-width:0.8;stroke-linecap:butt;stroke-linejoin:round;stroke:rgb(0%,0%,0%);stroke-opacity:1;stroke-miterlimit:4;" d="M 0.001562 -0.000305 L -3.498438 -0.000305 " transform="matrix(1.25,0,0,1.25,36.177735,55.79335)"/>
<path style=" stroke:none;fill-rule:nonzero;fill:rgb(0%,0%,0%);fill-opacity:1;" d="M 21.027344 59.503906 L 23.039062 59.503906 L 23.039062 52.550781 L 20.847656 52.992188 L 20.847656 51.867188 L 23.027344 51.429688 L 24.261719 51.429688 L 24.261719 59.503906 L 26.273438 59.503906 L 26.273438 60.542969 L 21.027344 60.542969 Z M 21.027344 59.503906 "/>
<path style="fill:none;stroke-width:0.8;stroke-linecap:butt;stroke-linejoin:round;stroke:rgb(0%,0%,0%);stroke-opacity:1;stroke-miterlimit:4;" d="M 0.001562 0.000000000000001776 L -3.498438 0.000000000000001776 " transform="matrix(1.25,0,0,1.25,36.177735,16.875)"/>
<path style=" stroke:none;fill-rule:nonzero;fill:rgb(0%,0%,0%);fill-opacity:1;" d="M 21.875 20.585938 L 26.175781 20.585938 L 26.175781 21.625 L 20.390625 21.625 L 20.390625 20.585938 C 20.859375 20.101562 21.496094 19.453125 22.304688 18.636719 C 23.113281 17.820312 23.621094 17.292969 23.828125 17.058594 C 24.222656 16.613281 24.496094 16.238281 24.652344 15.933594 C 24.808594 15.625 24.890625 15.324219 24.890625 15.027344 C 24.890625 14.542969 24.71875 14.148438 24.378906 13.84375 C 24.039062 13.535156 23.597656 13.382812 23.050781 13.382812 C 22.664062 13.382812 22.257812 13.449219 21.828125 13.585938 C 21.398438 13.71875 20.941406 13.921875 20.453125 14.195312 L 20.453125 12.949219 C 20.949219 12.75 21.410156 12.601562 21.84375 12.5 C 22.273438 12.398438 22.667969 12.347656 23.027344 12.347656 C 23.972656 12.347656 24.722656 12.582031 25.285156 13.054688 C 25.847656 13.527344 26.128906 14.15625 26.128906 14.945312 C 26.128906 15.320312 26.058594 15.675781 25.917969 16.011719 C 25.777344 16.347656 25.523438 16.742188 25.152344 17.199219 C 25.050781 17.316406 24.726562 17.65625 24.179688 18.222656 C 23.636719 18.785156 22.867188 19.574219 21.875 20.585938 Z M 21.875 20.585938 "/>
<path style="fill:none;stroke-width:1.5;stroke-linecap:square;stroke-linejoin:round;stroke:rgb(0%,0%,0%);stroke-opacity:0.501961;stroke-miterlimit:4;" d="M 37.81875 122.159375 L 40.665625 117.18125 L 44.934375 109.1875 L 48.1375 103.33125 L 49.915625 100.478125 L 51.340625 98.56875 L 52.40625 97.425 L 53.475 96.575 L 54.540625 96.0625 L 55.253125 95.921875 L 55.965625 95.95625 L 56.678125 96.165625 L 57.3875 96.553125 L 58.45625 97.48125 L 59.521875 98.809375 L 60.590625 100.51875 L 62.0125 103.33125 L 63.4375 106.65 L 65.571875 112.240625 L 69.13125 121.69375 L 70.909375 125.73125 L 72.33125 128.346875 L 73.4 129.875 L 74.465625 130.9875 L 75.178125 131.490625 L 75.890625 131.8 L 76.603125 131.909375 L 77.3125 131.828125 L 78.025 131.553125 L 78.7375 131.096875 L 79.803125 130.08125 L 80.871875 128.70625 L 82.29375 126.375 L 83.71875 123.578125 L 85.496875 119.596875 L 88.7 111.759375 L 91.9 104.1125 L 93.68125 100.365625 L 95.103125 97.778125 L 96.528125 95.64375 L 97.59375 94.390625 L 98.6625 93.4625 L 99.728125 92.884375 L 100.440625 92.703125 L 101.153125 92.6875 L 101.8625 92.846875 L 102.575 93.175 L 103.64375 93.990625 L 104.709375 95.18125 L 105.778125 96.73125 L 107.2 99.30625 L 108.625 102.375 L 110.759375 107.634375 L 115.740625 120.271875 L 117.1625 123.2375 L 118.5875 125.64375 L 119.653125 127.015625 L 120.721875 127.971875 L 121.434375 128.36875 L 122.14375 128.56875 L 122.85625 128.56875 L 123.56875 128.375 L 124.278125 127.984375 L 125.346875 127.05 L 126.415625 125.725 L 127.48125 124.04375 L 128.90625 121.334375 L 130.684375 117.375 L 133.53125 110.33125 L 137.0875 101.596875 L 139.221875 96.90625 L 141.359375 92.79375 L 143.1375 89.8125 L 145.271875 86.70625 L 147.40625 84.009375 L 149.896875 81.240625 L 152.3875 78.7875 L 154.878125 76.640625 L 157.0125 75.115625 L 158.79375 74.1375 L 160.215625 73.603125 L 161.6375 73.33125 L 162.70625 73.321875 L 163.775 73.5 L 164.840625 73.878125 L 165.909375 74.46875 L 166.975 75.290625 L 168.04375 76.34375 L 169.465625 78.121875 L 170.890625 80.328125 L 172.3125 82.940625 L 174.090625 86.734375 L 176.228125 91.915625 L 179.428125 100.41875 L 182.9875 109.7 L 185.121875 114.5875 L 186.9 118.040625 L 188.325 120.33125 L 189.746875 122.175 L 190.815625 123.2625 L 191.88125 124.1 L 192.95 124.69375 L 194.015625 125.053125 L 195.084375 125.1875 L 196.153125 125.10625 L 197.21875 124.809375 L 198.2875 124.30625 L 199.353125 123.59375 L 200.421875 122.66875 L 201.84375 121.096875 L 203.26875 119.115625 L 204.690625 116.71875 L 206.1125 113.896875 L 207.89375 109.796875 L 210.028125 104.18125 L 215.365625 89.275 " transform="matrix(1.25,0,0,1.25,0.000000000000028422,0)"/>
<path style="fill:none;stroke-width:1.5;stroke-linecap:square;stroke-linejoin:round;stroke:rgb(0%,0%,0%);stroke-opacity:0.501961;stroke-miterlimit:4;" d="M 37.81875 102.4875 L 39.6 105.409375 L 41.021875 107.396875 L 42.44375 109.034375 L 43.86875 110.303125 L 44.934375 111 L 46.003125 111.48125 L 47.071875 111.753125 L 48.1375 111.828125 L 49.20625 111.7125 L 50.628125 111.303125 L 52.05 110.640625 L 53.83125 109.540625 L 55.965625 107.95 L 59.16875 105.275 L 62.725 102.05 L 65.215625 99.51875 L 67.35 97.046875 L 69.484375 94.2375 L 71.975 90.575 L 76.95625 83.08125 L 78.38125 81.309375 L 79.803125 79.8875 L 80.871875 79.1125 L 81.9375 78.628125 L 83.00625 78.4625 L 83.71875 78.5375 L 84.428125 78.76875 L 85.496875 79.409375 L 86.565625 80.4 L 87.63125 81.728125 L 88.7 83.375 L 90.121875 86.003125 L 91.9 89.846875 L 94.746875 96.70625 L 97.59375 103.45 L 99.371875 107.115625 L 100.796875 109.5625 L 101.8625 111.053125 L 102.93125 112.21875 L 104 113.046875 L 105.065625 113.53125 L 106.134375 113.671875 L 107.2 113.4875 L 108.26875 112.990625 L 109.334375 112.209375 L 110.403125 111.178125 L 111.825 109.475 L 113.60625 106.934375 L 116.096875 102.90625 L 123.925 89.88125 L 127.48125 84.546875 L 132.10625 78.065625 L 136.378125 72.009375 L 138.86875 68.1125 L 141.003125 64.390625 L 143.1375 60.25 L 145.628125 54.909375 L 151.675 41.546875 L 153.1 38.9875 L 154.165625 37.396875 L 155.234375 36.153125 L 156.303125 35.315625 L 157.0125 35.003125 L 157.725 34.90625 L 158.4375 35.03125 L 159.146875 35.3875 L 159.859375 35.978125 L 160.571875 36.803125 L 161.6375 38.484375 L 162.70625 40.68125 L 163.775 43.365625 L 165.196875 47.625 L 166.975 53.85 L 169.109375 62.23125 L 175.159375 86.503125 L 177.29375 93.853125 L 179.071875 99.20625 L 180.853125 103.840625 L 182.63125 107.821875 L 184.409375 111.259375 L 186.54375 114.853125 L 189.390625 119.153125 L 194.728125 127.153125 L 199.709375 134.75625 L 201.4875 137.0125 L 202.9125 138.4 L 203.978125 139.109375 L 204.690625 139.390625 L 205.403125 139.5 L 206.1125 139.421875 L 206.825 139.14375 L 207.5375 138.65 L 208.25 137.93125 L 208.959375 136.975 L 210.028125 135.09375 L 211.09375 132.65625 L 212.1625 129.675 L 213.584375 124.884375 L 215.009375 119.253125 L 215.365625 117.728125 " transform="matrix(1.25,0,0,1.25,0.000000000000028422,0)"/>
<path style="fill:none;stroke-width:1.5;stroke-linecap:square;stroke-linejoin:round;stroke:rgb(0%,0%,0%);stroke-opacity:0.501961;stroke-miterlimit:4;" d="M 37.81875 27.696875 L 39.6 29.896875 L 46.003125 38.196875 L 47.425 39.53125 L 48.49375 40.296875 L 49.5625 40.8375 L 50.628125 41.128125 L 51.696875 41.165625 L 52.7625 40.940625 L 53.83125 40.465625 L 54.896875 39.75 L 56.321875 38.459375 L 57.74375 36.85 L 59.878125 34.05 L 63.4375 29.2875 L 64.859375 27.7 L 66.284375 26.459375 L 67.35 25.81875 L 68.41875 25.45625 L 69.484375 25.4 L 70.553125 25.665625 L 71.621875 26.259375 L 72.6875 27.18125 L 73.75625 28.41875 L 74.821875 29.953125 L 76.246875 32.425 L 78.025 36.09375 L 80.159375 41.13125 L 83.3625 49.4 L 88.7 63.225 L 91.546875 69.975 L 94.0375 75.3 L 96.171875 79.290625 L 97.95 82.103125 L 99.371875 83.95 L 100.796875 85.38125 L 101.8625 86.159375 L 102.93125 86.6625 L 104 86.88125 L 105.065625 86.815625 L 106.134375 86.465625 L 107.2 85.84375 L 108.26875 84.96875 L 109.690625 83.45 L 111.115625 81.603125 L 113.25 78.434375 L 117.1625 72.509375 L 118.94375 70.26875 L 120.365625 68.859375 L 121.434375 68.075 L 122.5 67.55 L 123.56875 67.309375 L 124.634375 67.3625 L 125.703125 67.71875 L 126.76875 68.38125 L 127.8375 69.353125 L 128.90625 70.61875 L 130.328125 72.753125 L 131.75 75.353125 L 133.53125 79.1625 L 135.665625 84.334375 L 141.003125 97.7 L 142.78125 101.38125 L 144.203125 103.75 L 145.271875 105.121875 L 146.340625 106.109375 L 147.05 106.54375 L 147.7625 106.796875 L 148.475 106.86875 L 149.184375 106.759375 L 149.896875 106.478125 L 150.965625 105.75 L 152.03125 104.69375 L 153.45625 102.871875 L 155.234375 100.15625 L 158.4375 95.140625 L 159.859375 93.309375 L 160.928125 92.240625 L 161.99375 91.490625 L 163.0625 91.1 L 163.775 91.046875 L 164.484375 91.1625 L 165.196875 91.453125 L 166.265625 92.196875 L 167.33125 93.2875 L 168.4 94.69375 L 169.821875 96.959375 L 171.95625 100.909375 L 175.515625 107.571875 L 176.9375 109.790625 L 178.00625 111.159375 L 179.071875 112.2125 L 180.140625 112.91875 L 180.853125 113.18125 L 181.5625 113.265625 L 182.275 113.171875 L 182.9875 112.890625 L 183.7 112.428125 L 184.765625 111.3875 L 185.834375 109.9375 L 186.9 108.1 L 188.325 105.084375 L 189.746875 101.490625 L 191.525 96.334375 L 194.015625 88.265625 L 199.709375 69.35 L 201.84375 63.165625 L 203.621875 58.659375 L 205.403125 54.771875 L 207.18125 51.45625 L 208.959375 48.609375 L 211.45 45.1125 L 215.365625 39.8 " transform="matrix(1.25,0,0,1.25,0.000000000000028422,0)"/>
<path style="fill:none;stroke-width:1.5;stroke-linecap:square;stroke-linejoin:round;stroke:rgb(0%,0%,0%);stroke-opacity:0.501961;stroke-miterlimit:4;" d="M 37.81875 22.31875 L 39.6 29.30625 L 42.090625 40.15625 L 46.003125 57.221875 L 47.78125 64.084375 L 49.20625 68.9 L 50.628125 73.01875 L 52.05 76.390625 L 53.11875 78.41875 L 54.1875 80.01875 L 55.253125 81.209375 L 56.321875 82.009375 L 57.3875 82.45 L 58.45625 82.559375 L 59.521875 82.375 L 60.590625 81.94375 L 62.0125 81.04375 L 63.4375 79.86875 L 65.571875 77.8 L 69.840625 73.5875 L 71.975 71.834375 L 73.75625 70.640625 L 75.890625 69.4875 L 79.446875 67.925 L 81.9375 66.70625 L 83.71875 65.59375 L 85.496875 64.209375 L 87.275 62.525 L 89.409375 60.1625 L 92.96875 55.759375 L 95.815625 52.359375 L 97.59375 50.51875 L 99.371875 48.9875 L 100.796875 48.01875 L 102.21875 47.278125 L 103.64375 46.7625 L 105.065625 46.446875 L 106.84375 46.315625 L 108.625 46.44375 L 110.403125 46.821875 L 111.825 47.321875 L 113.25 48.03125 L 114.671875 48.990625 L 116.096875 50.25 L 117.51875 51.86875 L 118.94375 53.896875 L 120.365625 56.38125 L 121.7875 59.34375 L 123.2125 62.7875 L 124.990625 67.728125 L 127.125 74.425 L 134.240625 97.740625 L 135.665625 101.43125 L 137.0875 104.434375 L 138.15625 106.159375 L 139.221875 107.390625 L 139.934375 107.91875 L 140.646875 108.20625 L 141.359375 108.246875 L 142.06875 108.04375 L 142.78125 107.590625 L 143.49375 106.896875 L 144.559375 105.409375 L 145.628125 103.41875 L 146.69375 100.959375 L 148.11875 97.034375 L 149.896875 91.2875 L 152.03125 83.546875 L 158.08125 61.06875 L 159.859375 55.36875 L 161.6375 50.40625 L 163.0625 47.034375 L 164.484375 44.221875 L 165.909375 41.9875 L 166.975 40.69375 L 168.04375 39.728125 L 169.109375 39.0875 L 170.178125 38.771875 L 171.246875 38.784375 L 172.3125 39.121875 L 173.38125 39.790625 L 174.446875 40.790625 L 175.515625 42.115625 L 176.58125 43.771875 L 178.00625 46.478125 L 179.428125 49.73125 L 181.209375 54.49375 L 183.34375 61.053125 L 186.54375 71.8625 L 189.746875 82.46875 L 191.525 87.65625 L 192.95 91.221875 L 194.371875 94.15 L 195.440625 95.88125 L 196.50625 97.19375 L 197.575 98.075 L 198.2875 98.428125 L 198.996875 98.59375 L 199.709375 98.578125 L 200.421875 98.390625 L 201.4875 97.80625 L 202.55625 96.89375 L 203.621875 95.69375 L 205.046875 93.7375 L 206.825 90.890625 L 213.23125 80.1875 L 215.009375 77.75 L 215.365625 77.30625 " transform="matrix(1.25,0,0,1.25,0.000000000000028422,0)"/>
<path style="fill:none;stroke-width:1.5;stroke-linecap:square;stroke-linejoin:round;stroke:rgb(0%,0%,0%);stroke-opacity:0.501961;stroke-miterlimit:4;" d="M 37.81875 74.259375 L 38.8875 74.771875 L 39.953125 75.55625 L 41.021875 76.609375 L 42.44375 78.41875 L 43.86875 80.64375 L 45.646875 83.88125 L 52.40625 96.81875 L 53.83125 98.828125 L 54.896875 100.025 L 55.965625 100.928125 L 57.03125 101.525 L 58.1 101.809375 L 59.16875 101.7875 L 60.234375 101.475 L 61.303125 100.903125 L 62.725 99.796875 L 64.503125 98.021875 L 68.775 93.45625 L 70.196875 92.31875 L 71.265625 91.71875 L 72.33125 91.371875 L 73.4 91.303125 L 74.465625 91.525 L 75.534375 92.0375 L 76.603125 92.821875 L 77.66875 93.859375 L 79.09375 95.5625 L 81.228125 98.584375 L 85.140625 104.284375 L 86.91875 106.4375 L 88.34375 107.8375 L 89.765625 108.93125 L 91.190625 109.746875 L 92.96875 110.45625 L 98.6625 112.346875 L 100.084375 113.15625 L 101.509375 114.196875 L 103.2875 115.80625 L 105.421875 118.08125 L 109.334375 122.36875 L 111.115625 123.934375 L 112.5375 124.853125 L 113.60625 125.3125 L 114.671875 125.55 L 115.740625 125.56875 L 116.80625 125.365625 L 117.875 124.953125 L 119.296875 124.11875 L 120.721875 123.009375 L 122.85625 121.021875 L 126.76875 117.265625 L 128.55 115.896875 L 129.971875 115.078125 L 131.396875 114.540625 L 132.81875 114.3 L 134.240625 114.35 L 135.665625 114.659375 L 137.44375 115.321875 L 142.78125 117.615625 L 144.203125 117.8375 L 145.271875 117.784375 L 146.340625 117.503125 L 147.40625 116.96875 L 148.475 116.165625 L 149.540625 115.0875 L 150.609375 113.7375 L 152.03125 111.534375 L 153.45625 108.934375 L 155.590625 104.4875 L 160.215625 94.5625 L 161.6375 92.025 L 163.0625 89.975 L 164.128125 88.81875 L 165.196875 88.028125 L 165.909375 87.71875 L 166.61875 87.5875 L 167.33125 87.6375 L 168.04375 87.865625 L 168.75625 88.271875 L 169.821875 89.196875 L 170.890625 90.48125 L 171.95625 92.084375 L 173.38125 94.63125 L 175.159375 98.290625 L 179.784375 108.15 L 181.209375 110.6625 L 182.63125 112.678125 L 183.7 113.79375 L 184.765625 114.53125 L 185.478125 114.796875 L 186.190625 114.875 L 186.9 114.7625 L 187.6125 114.453125 L 188.325 113.953125 L 189.390625 112.846875 L 190.459375 111.325 L 191.525 109.4125 L 192.95 106.309375 L 194.371875 102.65625 L 196.153125 97.471875 L 198.64375 89.434375 L 210.028125 51.56875 L 214.296875 38.540625 L 215.365625 35.4625 " transform="matrix(1.25,0,0,1.25,0.000000000000028422,0)"/>
<path style="fill:none;stroke-width:2;stroke-linecap:square;stroke-linejoin:round;stroke:rgb(12.156863%,46.666667%,70.588235%);stroke-opacity:1;stroke-miterlimit:4;" d="M 37.81875 75.76875 L 215.365625 75.76875 " transform="matrix(1.25,0,0,1.25,0.000000000000028422,0)"/>
<path style="fill:none;stroke-width:0.8;stroke-linecap:square;stroke-linejoin:miter;stroke:rgb(0%,0%,0%);stroke-opacity:1;stroke-miterlimit:4;" d="M 28.94375 145.8 L 28.94375 7.2 " transform="matrix(1.25,0,0,1.25,0.000000000000028422,0)"/>
<path style="fill:none;stroke-width:0.8;stroke-linecap:square;stroke-linejoin:miter;stroke:rgb(0%,0%,0%);stroke-opacity:1;stroke-miterlimit:4;" d="M 224.24375 145.8 L 224.24375 7.2 " transform="matrix(1.25,0,0,1.25,0.000000000000028422,0)"/>
<path style="fill:none;stroke-width:0.8;stroke-linecap:square;stroke-linejoin:miter;stroke:rgb(0%,0%,0%);stroke-opacity:1;stroke-miterlimit:4;" d="M 28.940625 145.8 L 224.24375 145.8 " transform="matrix(1.25,0,0,1.25,0.000000000000028422,0)"/>
<path style="fill:none;stroke-width:0.8;stroke-linecap:square;stroke-linejoin:miter;stroke:rgb(0%,0%,0%);stroke-opacity:1;stroke-miterlimit:4;" d="M 28.940625 7.2 L 224.24375 7.2 " transform="matrix(1.25,0,0,1.25,0.000000000000028422,0)"/>
</g>
</svg>
