<?xml version="1.0" encoding="UTF-8"?>
<svg xmlns="http://www.w3.org/2000/svg" xmlns:xlink="http://www.w3.org/1999/xlink" width="289pt" height="212pt" viewBox="0 0 289 212" version="1.1">
<g id="surface1">
<rect x="0" y="0" width="289" height="212" style="fill:rgb(100%,100%,100%);fill-opacity:1;stroke:none;"/>
<path style=" stroke:none;fill-rule:nonzero;fill:rgb(100%,100%,100%);fill-opacity:1;" d="M 36.179688 182.25 L 280.304688 182.25 L 280.304688 9 L 36.179688 9 Z M 36.179688 182.25 "/>
<path style="fill:none;stroke-width:0.8;stroke-linecap:butt;stroke-linejoin:round;stroke:rgb(0%,0%,0%);stroke-opacity:1;stroke-miterlimit:4;" d="M -0.00071 0.000000000000028422 L -0.00071 3.5 " transform="matrix(1.25,0,0,1.25,47.274325,182.25)"/>
<path style=" stroke:none;fill-rule:nonzero;fill:rgb(0%,0%,0%);fill-opacity:1;" d="M 47.269531 192.199219 C 46.636719 192.199219 46.160156 192.511719 45.839844 193.136719 C 45.519531 193.757812 45.359375 194.699219 45.359375 195.953125 C 45.359375 197.199219 45.519531 198.136719 45.839844 198.761719 C 46.160156 199.386719 46.636719 199.699219 47.269531 199.699219 C 47.910156 199.699219 48.390625 199.386719 48.707031 198.761719 C 49.027344 198.136719 49.1875 197.199219 49.1875 195.953125 C 49.1875 194.699219 49.027344 193.757812 48.707031 193.136719 C 48.390625 192.511719 47.910156 192.199219 47.269531 192.199219 Z M 47.269531 191.222656 C 48.292969 191.222656 49.074219 191.625 49.613281 192.433594 C 50.152344 193.242188 50.421875 194.414062 50.421875 195.953125 C 50.421875 197.484375 50.152344 198.65625 49.613281 199.464844 C 49.074219 200.273438 48.292969 200.675781 47.269531 200.675781 C 46.25 200.675781 45.46875 200.273438 44.929688 199.464844 C 44.390625 198.65625 44.121094 197.484375 44.121094 195.953125 C 44.121094 194.414062 44.390625 193.242188 44.929688 192.433594 C 45.46875 191.625 46.25 191.222656 47.269531 191.222656 Z M 47.269531 191.222656 "/>
<path style="fill:none;stroke-width:0.8;stroke-linecap:butt;stroke-linejoin:round;stroke:rgb(0%,0%,0%);stroke-opacity:1;stroke-miterlimit:4;" d="M -0.000426 0.000000000000028422 L -0.000426 3.5 " transform="matrix(1.25,0,0,1.25,91.660689,182.25)"/>
<path style=" stroke:none;fill-rule:nonzero;fill:rgb(0%,0%,0%);fill-opacity:1;" d="M 89.234375 199.460938 L 91.25 199.460938 L 91.25 192.507812 L 89.058594 192.949219 L 89.058594 191.824219 L 91.238281 191.386719 L 92.46875 191.386719 L 92.46875 199.460938 L 94.484375 199.460938 L 94.484375 200.5 L 89.234375 200.5 Z M 89.234375 199.460938 "/>
<path style="fill:none;stroke-width:0.8;stroke-linecap:butt;stroke-linejoin:round;stroke:rgb(0%,0%,0%);stroke-opacity:1;stroke-miterlimit:4;" d="M -0.000142 0.000000000000028422 L -0.000142 3.5 " transform="matrix(1.25,0,0,1.25,136.047053,182.25)"/>
<path style=" stroke:none;fill-rule:nonzero;fill:rgb(0%,0%,0%);fill-opacity:1;" d="M 134.46875 199.460938 L 138.773438 199.460938 L 138.773438 200.5 L 132.988281 200.5 L 132.988281 199.460938 C 133.453125 198.976562 134.089844 198.328125 134.898438 197.511719 C 135.707031 196.695312 136.214844 196.167969 136.421875 195.933594 C 136.816406 195.488281 137.09375 195.113281 137.25 194.808594 C 137.40625 194.5 137.484375 194.199219 137.484375 193.902344 C 137.484375 193.417969 137.316406 193.023438 136.976562 192.71875 C 136.636719 192.410156 136.191406 192.257812 135.648438 192.257812 C 135.261719 192.257812 134.851562 192.324219 134.421875 192.460938 C 133.992188 192.59375 133.535156 192.796875 133.046875 193.070312 L 133.046875 191.824219 C 133.542969 191.625 134.007812 191.476562 134.4375 191.375 C 134.871094 191.273438 135.265625 191.222656 135.625 191.222656 C 136.566406 191.222656 137.320312 191.457031 137.882812 191.929688 C 138.441406 192.402344 138.722656 193.03125 138.722656 193.820312 C 138.722656 194.195312 138.652344 194.550781 138.511719 194.886719 C 138.371094 195.222656 138.117188 195.617188 137.746094 196.074219 C 137.644531 196.191406 137.320312 196.53125 136.777344 197.097656 C 136.230469 197.660156 135.460938 198.449219 134.46875 199.460938 Z M 134.46875 199.460938 "/>
<path style="fill:none;stroke-width:0.8;stroke-linecap:butt;stroke-linejoin:round;stroke:rgb(0%,0%,0%);stroke-opacity:1;stroke-miterlimit:4;" d="M 0.000142 0.000000000000028422 L 0.000142 3.5 " transform="matrix(1.25,0,0,1.25,180.433416,182.25)"/>
<path style=" stroke:none;fill-rule:nonzero;fill:rgb(0%,0%,0%);fill-opacity:1;" d="M 181.527344 195.585938 C 182.117188 195.710938 182.578125 195.972656 182.910156 196.375 C 183.242188 196.773438 183.40625 197.265625 183.40625 197.851562 C 183.40625 198.75 183.097656 199.445312 182.480469 199.9375 C 181.863281 200.429688 180.984375 200.675781 179.84375 200.675781 C 179.460938 200.675781 179.070312 200.636719 178.664062 200.5625 C 178.257812 200.488281 177.839844 200.375 177.410156 200.222656 L 177.410156 199.035156 C 177.75 199.234375 178.125 199.382812 178.53125 199.484375 C 178.9375 199.585938 179.363281 199.636719 179.808594 199.636719 C 180.582031 199.636719 181.167969 199.484375 181.574219 199.179688 C 181.980469 198.875 182.179688 198.433594 182.179688 197.851562 C 182.179688 197.3125 181.992188 196.890625 181.617188 196.589844 C 181.242188 196.285156 180.71875 196.136719 180.046875 196.136719 L 178.984375 196.136719 L 178.984375 195.121094 L 180.09375 195.121094 C 180.699219 195.121094 181.164062 195 181.484375 194.757812 C 181.808594 194.515625 181.96875 194.167969 181.96875 193.710938 C 181.96875 193.242188 181.800781 192.886719 181.46875 192.636719 C 181.140625 192.382812 180.664062 192.257812 180.046875 192.257812 C 179.707031 192.257812 179.34375 192.296875 178.957031 192.371094 C 178.570312 192.441406 178.148438 192.554688 177.683594 192.710938 L 177.683594 191.613281 C 178.152344 191.480469 178.589844 191.382812 179 191.320312 C 179.410156 191.253906 179.792969 191.222656 180.15625 191.222656 C 181.09375 191.222656 181.832031 191.433594 182.375 191.859375 C 182.921875 192.285156 183.195312 192.859375 183.195312 193.582031 C 183.195312 194.085938 183.050781 194.515625 182.761719 194.863281 C 182.472656 195.210938 182.0625 195.449219 181.527344 195.585938 Z M 181.527344 195.585938 "/>
<path style="fill:none;stroke-width:0.8;stroke-linecap:butt;stroke-linejoin:round;stroke:rgb(0%,0%,0%);stroke-opacity:1;stroke-miterlimit:4;" d="M 0.000426 0.000000000000028422 L 0.000426 3.5 " transform="matrix(1.25,0,0,1.25,224.81978,182.25)"/>
<path style=" stroke:none;fill-rule:nonzero;fill:rgb(0%,0%,0%);fill-opacity:1;" d="M 225.566406 192.460938 L 222.453125 197.324219 L 225.566406 197.324219 Z M 225.242188 191.386719 L 226.792969 191.386719 L 226.792969 197.324219 L 228.09375 197.324219 L 228.09375 198.351562 L 226.792969 198.351562 L 226.792969 200.5 L 225.566406 200.5 L 225.566406 198.351562 L 221.453125 198.351562 L 221.453125 197.160156 Z M 225.242188 191.386719 "/>
<path style="fill:none;stroke-width:0.8;stroke-linecap:butt;stroke-linejoin:round;stroke:rgb(0%,0%,0%);stroke-opacity:1;stroke-miterlimit:4;" d="M 0.00071 0.000000000000028422 L 0.00071 3.5 " transform="matrix(1.25,0,0,1.25,269.206144,182.25)"/>
<path style=" stroke:none;fill-rule:nonzero;fill:rgb(0%,0%,0%);fill-opacity:1;" d="M 266.578125 191.386719 L 271.417969 191.386719 L 271.417969 192.425781 L 267.707031 192.425781 L 267.707031 194.65625 C 267.886719 194.59375 268.066406 194.550781 268.242188 194.519531 C 268.421875 194.488281 268.601562 194.476562 268.78125 194.476562 C 269.800781 194.476562 270.605469 194.753906 271.199219 195.3125 C 271.792969 195.867188 272.089844 196.621094 272.089844 197.574219 C 272.089844 198.554688 271.785156 199.316406 271.175781 199.863281 C 270.5625 200.40625 269.703125 200.675781 268.59375 200.675781 C 268.210938 200.675781 267.820312 200.644531 267.421875 200.578125 C 267.027344 200.511719 266.617188 200.414062 266.195312 200.285156 L 266.195312 199.046875 C 266.558594 199.246094 266.9375 199.394531 267.328125 199.492188 C 267.71875 199.589844 268.132812 199.636719 268.566406 199.636719 C 269.273438 199.636719 269.828125 199.453125 270.238281 199.082031 C 270.652344 198.710938 270.855469 198.210938 270.855469 197.574219 C 270.855469 196.941406 270.652344 196.4375 270.238281 196.070312 C 269.828125 195.699219 269.273438 195.511719 268.566406 195.511719 C 268.238281 195.511719 267.910156 195.546875 267.582031 195.621094 C 267.253906 195.695312 266.921875 195.808594 266.578125 195.964844 Z M 266.578125 191.386719 "/>
<path style="fill:none;stroke-width:0.8;stroke-linecap:butt;stroke-linejoin:round;stroke:rgb(0%,0%,0%);stroke-opacity:1;stroke-miterlimit:4;" d="M 0.001562 -0.000913 L -3.498438 -0.000913 " transform="matrix(1.25,0,0,1.25,36.177735,181.840985)"/>
<path style=" stroke:none;fill-rule:nonzero;fill:rgb(0%,0%,0%);fill-opacity:1;" d="M 10.324219 182.152344 L 18.148438 182.152344 L 18.148438 183.191406 L 10.324219 183.191406 Z M 10.324219 182.152344 "/>
<path style=" stroke:none;fill-rule:nonzero;fill:rgb(0%,0%,0%);fill-opacity:1;" d="M 21.871094 185.554688 L 26.175781 185.554688 L 26.175781 186.589844 L 20.390625 186.589844 L 20.390625 185.554688 C 20.855469 185.070312 21.496094 184.417969 22.300781 183.605469 C 23.109375 182.789062 23.617188 182.261719 23.824219 182.023438 C 24.21875 181.582031 24.496094 181.207031 24.652344 180.898438 C 24.808594 180.589844 24.886719 180.289062 24.886719 179.992188 C 24.886719 179.507812 24.71875 179.113281 24.378906 178.808594 C 24.039062 178.503906 23.59375 178.351562 23.050781 178.351562 C 22.664062 178.351562 22.253906 178.417969 21.824219 178.550781 C 21.398438 178.683594 20.9375 178.890625 20.449219 179.164062 L 20.449219 177.917969 C 20.945312 177.71875 21.410156 177.566406 21.839844 177.464844 C 22.273438 177.363281 22.667969 177.3125 23.027344 177.3125 C 23.96875 177.3125 24.722656 177.550781 25.285156 178.023438 C 25.84375 178.492188 26.125 179.125 26.125 179.914062 C 26.125 180.289062 26.054688 180.644531 25.914062 180.980469 C 25.777344 181.3125 25.519531 181.707031 25.148438 182.164062 C 25.046875 182.28125 24.722656 182.625 24.179688 183.1875 C 23.632812 183.75 22.867188 184.539062 21.871094 185.554688 Z M 21.871094 185.554688 "/>
<path style="fill:none;stroke-width:0.8;stroke-linecap:butt;stroke-linejoin:round;stroke:rgb(0%,0%,0%);stroke-opacity:1;stroke-miterlimit:4;" d="M 0.001562 0.000689 L -3.498438 0.000689 " transform="matrix(1.25,0,0,1.25,36.177735,148.881951)"/>
<path style=" stroke:none;fill-rule:nonzero;fill:rgb(0%,0%,0%);fill-opacity:1;" d="M 10.324219 149.195312 L 18.148438 149.195312 L 18.148438 150.230469 L 10.324219 150.230469 Z M 10.324219 149.195312 "/>
<path style=" stroke:none;fill-rule:nonzero;fill:rgb(0%,0%,0%);fill-opacity:1;" d="M 21.023438 152.59375 L 23.039062 152.59375 L 23.039062 145.640625 L 20.847656 146.082031 L 20.847656 144.957031 L 23.027344 144.519531 L 24.257812 144.519531 L 24.257812 152.59375 L 26.273438 152.59375 L 26.273438 153.632812 L 21.023438 153.632812 Z M 21.023438 152.59375 "/>
<path style="fill:none;stroke-width:0.8;stroke-linecap:butt;stroke-linejoin:round;stroke:rgb(0%,0%,0%);stroke-opacity:1;stroke-miterlimit:4;" d="M 0.001562 -0.000833 L -3.498438 -0.000833 " transform="matrix(1.25,0,0,1.25,36.177735,115.922916)"/>
<path style=" stroke:none;fill-rule:nonzero;fill:rgb(0%,0%,0%);fill-opacity:1;" d="M 23.449219 112.371094 C 22.8125 112.371094 22.335938 112.683594 22.015625 113.308594 C 21.695312 113.933594 21.539062 114.871094 21.539062 116.125 C 21.539062 117.375 21.695312 118.3125 22.015625 118.9375 C 22.335938 119.5625 22.8125 119.875 23.449219 119.875 C 24.085938 119.875 24.566406 119.5625 24.886719 118.9375 C 25.207031 118.3125 25.367188 117.375 25.367188 116.125 C 25.367188 114.871094 25.207031 113.933594 24.886719 113.308594 C 24.566406 112.683594 24.085938 112.371094 23.449219 112.371094 Z M 23.449219 111.394531 C 24.46875 111.394531 25.25 111.800781 25.789062 112.609375 C 26.328125 113.414062 26.597656 114.585938 26.597656 116.125 C 26.597656 117.660156 26.328125 118.832031 25.789062 119.640625 C 25.25 120.445312 24.46875 120.851562 23.449219 120.851562 C 22.425781 120.851562 21.648438 120.445312 21.109375 119.640625 C 20.570312 118.832031 20.300781 117.660156 20.300781 116.125 C 20.300781 114.585938 20.570312 113.414062 21.109375 112.609375 C 21.648438 111.800781 22.425781 111.394531 23.449219 111.394531 Z M 23.449219 111.394531 "/>
<path style="fill:none;stroke-width:0.8;stroke-linecap:butt;stroke-linejoin:round;stroke:rgb(0%,0%,0%);stroke-opacity:1;stroke-miterlimit:4;" d="M 0.001562 0.00077 L -3.498438 0.00077 " transform="matrix(1.25,0,0,1.25,36.177735,82.963881)"/>
<path style=" stroke:none;fill-rule:nonzero;fill:rgb(0%,0%,0%);fill-opacity:1;" d="M 21.027344 86.675781 L 23.039062 86.675781 L 23.039062 79.722656 L 20.847656 80.164062 L 20.847656 79.039062 L 23.027344 78.601562 L 24.261719 78.601562 L 24.261719 86.675781 L 26.273438 86.675781 L 26.273438 87.714844 L 21.027344 87.714844 Z M 21.027344 86.675781 "/>
<path style="fill:none;stroke-width:0.8;stroke-linecap:butt;stroke-linejoin:round;stroke:rgb(0%,0%,0%);stroke-opacity:1;stroke-miterlimit:4;" d="M 0.001562 -0.000753 L -3.498438 -0.000753 " transform="matrix(1.25,0,0,1.25,36.177735,50.004847)"/>
<path style=" stroke:none;fill-rule:nonzero;fill:rgb(0%,0%,0%);fill-opacity:1;" d="M 21.875 53.714844 L 26.175781 53.714844 L 26.175781 54.753906 L 20.390625 54.753906 L 20.390625 53.714844 C 20.859375 53.230469 21.496094 52.582031 22.304688 51.765625 C 23.113281 50.949219 23.621094 50.425781 23.828125 50.1875 C 24.222656 49.746094 24.496094 49.371094 24.652344 49.0625 C 24.808594 48.753906 24.890625 48.453125 24.890625 48.15625 C 24.890625 47.671875 24.71875 47.277344 24.378906 46.972656 C 24.039062 46.667969 23.597656 46.511719 23.050781 46.511719 C 22.664062 46.511719 22.257812 46.582031 21.828125 46.714844 C 21.398438 46.847656 20.941406 47.050781 20.453125 47.324219 L 20.453125 46.078125 C 20.949219 45.878906 21.410156 45.730469 21.84375 45.628906 C 22.273438 45.527344 22.667969 45.476562 23.027344 45.476562 C 23.972656 45.476562 24.722656 45.710938 25.285156 46.183594 C 25.847656 46.65625 26.128906 47.285156 26.128906 48.074219 C 26.128906 48.449219 26.058594 48.804688 25.917969 49.140625 C 25.777344 49.476562 25.523438 49.871094 25.152344 50.328125 C 25.050781 50.445312 24.726562 50.789062 24.179688 51.351562 C 23.636719 51.914062 22.867188 52.703125 21.875 53.714844 Z M 21.875 53.714844 "/>
<path style="fill:none;stroke-width:0.8;stroke-linecap:butt;stroke-linejoin:round;stroke:rgb(0%,0%,0%);stroke-opacity:1;stroke-miterlimit:4;" d="M 0.001562 0.00085 L -3.498438 0.00085 " transform="matrix(1.25,0,0,1.25,36.177735,17.045812)"/>
<path style=" stroke:none;fill-rule:nonzero;fill:rgb(0%,0%,0%);fill-opacity:1;" d="M 24.546875 16.878906 C 25.136719 17.007812 25.597656 17.269531 25.929688 17.667969 C 26.261719 18.066406 26.425781 18.558594 26.425781 19.144531 C 26.425781 20.042969 26.117188 20.742188 25.5 21.234375 C 24.878906 21.726562 24 21.972656 22.863281 21.972656 C 22.480469 21.972656 22.085938 21.933594 21.683594 21.859375 C 21.277344 21.785156 20.859375 21.671875 20.429688 21.519531 L 20.429688 20.328125 C 20.769531 20.527344 21.144531 20.679688 21.550781 20.78125 C 21.957031 20.882812 22.382812 20.933594 22.828125 20.933594 C 23.597656 20.933594 24.1875 20.78125 24.59375 20.476562 C 24.996094 20.171875 25.199219 19.726562 25.199219 19.144531 C 25.199219 18.609375 25.011719 18.1875 24.636719 17.886719 C 24.257812 17.582031 23.734375 17.429688 23.066406 17.429688 L 22.003906 17.429688 L 22.003906 16.417969 L 23.113281 16.417969 C 23.71875 16.417969 24.183594 16.296875 24.503906 16.054688 C 24.824219 15.8125 24.988281 15.464844 24.988281 15.007812 C 24.988281 14.539062 24.820312 14.179688 24.488281 13.929688 C 24.15625 13.679688 23.683594 13.554688 23.066406 13.554688 C 22.726562 13.554688 22.363281 13.589844 21.976562 13.664062 C 21.589844 13.738281 21.164062 13.851562 20.703125 14.003906 L 20.703125 12.90625 C 21.171875 12.777344 21.609375 12.679688 22.019531 12.613281 C 22.425781 12.550781 22.8125 12.515625 23.175781 12.515625 C 24.109375 12.515625 24.851562 12.730469 25.394531 13.15625 C 25.941406 13.582031 26.214844 14.15625 26.214844 14.878906 C 26.214844 15.382812 26.070312 15.808594 25.78125 16.15625 C 25.492188 16.503906 25.078125 16.746094 24.546875 16.878906 Z M 24.546875 16.878906 "/>
<path style="fill:none;stroke-width:1.5;stroke-linecap:square;stroke-linejoin:round;stroke:rgb(12.156863%,46.666667%,70.588235%);stroke-opacity:0.501961;stroke-miterlimit:4;" d="M 37.81875 56.4375 L 41.44375 53.528125 L 45.065625 50.46875 L 48.690625 47.259375 L 52.3125 43.90625 L 55.9375 40.425 L 59.559375 36.84375 L 63.184375 33.2 L 66.80625 29.565625 L 70.43125 26.028125 L 74.053125 22.696875 L 77.678125 19.69375 L 81.3 17.153125 L 84.921875 15.203125 L 88.546875 13.953125 L 92.16875 13.5 L 95.79375 13.896875 L 99.415625 15.153125 L 103.040625 17.24375 L 106.6625 20.090625 L 110.2875 23.571875 L 113.909375 27.54375 L 117.534375 31.83125 L 121.15625 36.259375 L 124.78125 40.6625 L 128.403125 44.89375 L 132.028125 48.840625 L 135.65 52.425 L 139.275 55.625 L 142.896875 58.44375 L 146.521875 60.9375 L 150.14375 63.171875 L 153.76875 65.24375 L 157.390625 67.240625 L 161.015625 69.25 L 164.6375 71.3375 L 168.2625 73.5375 L 171.884375 75.8625 L 175.50625 78.290625 L 179.13125 80.765625 L 182.753125 83.215625 L 186.378125 85.54375 L 190 87.65625 L 193.625 89.45625 L 197.246875 90.853125 L 200.871875 91.79375 L 204.49375 92.234375 L 208.11875 92.178125 L 211.740625 91.6625 L 215.365625 90.753125 " transform="matrix(1.25,0,0,1.25,0.000000000000028422,0)"/>
<path style="fill:none;stroke-width:1.5;stroke-linecap:square;stroke-linejoin:round;stroke:rgb(100%,49.803922%,5.490196%);stroke-opacity:0.501961;stroke-miterlimit:4;" d="M 37.81875 43.946875 L 41.44375 44.0375 L 45.065625 44.878125 L 48.690625 46.459375 L 52.3125 48.74375 L 55.9375 51.65625 L 59.559375 55.109375 L 63.184375 58.9875 L 66.80625 63.175 L 70.43125 67.553125 L 74.053125 72.009375 L 77.678125 76.434375 L 81.3 80.740625 L 84.921875 84.846875 L 88.546875 88.6875 L 92.16875 92.196875 L 95.79375 95.31875 L 99.415625 97.996875 L 103.040625 100.171875 L 106.6625 101.8 L 110.2875 102.84375 L 113.909375 103.278125 L 117.534375 103.115625 L 121.15625 102.3875 L 124.78125 101.165625 L 128.403125 99.559375 L 132.028125 97.70625 L 135.65 95.765625 L 139.275 93.903125 L 142.896875 92.284375 L 146.521875 91.05625 L 150.14375 90.334375 L 153.76875 90.190625 L 157.390625 90.65 L 161.015625 91.68125 L 164.6375 93.203125 L 168.2625 95.084375 L 171.884375 97.159375 L 175.50625 99.23125 L 179.13125 101.096875 L 182.753125 102.55 L 186.378125 103.4125 L 190 103.528125 L 193.625 102.8 L 197.246875 101.175 L 200.871875 98.6625 L 204.49375 95.33125 L 208.11875 91.296875 L 211.740625 86.721875 L 215.365625 81.7875 " transform="matrix(1.25,0,0,1.25,0.000000000000028422,0)"/>
<path style="fill:none;stroke-width:1.5;stroke-linecap:square;stroke-linejoin:round;stroke:rgb(17.254902%,62.745098%,17.254902%);stroke-opacity:0.501961;stroke-miterlimit:4;" d="M 37.81875 115.559375 L 41.44375 115.109375 L 45.065625 113.765625 L 48.690625 111.521875 L 52.3125 108.421875 L 55.9375 104.56875 L 59.559375 100.1125 L 63.184375 95.24375 L 66.80625 90.175 L 70.43125 85.13125 L 74.053125 80.340625 L 77.678125 76.009375 L 81.3 72.315625 L 84.921875 69.4 L 88.546875 67.3625 L 92.16875 66.246875 L 95.79375 66.046875 L 99.415625 66.709375 L 103.040625 68.1375 L 106.6625 70.1875 L 110.2875 72.7 L 113.909375 75.4875 L 117.534375 78.365625 L 121.15625 81.165625 L 124.78125 83.73125 L 128.403125 85.953125 L 132.028125 87.7625 L 135.65 89.134375 L 139.275 90.1 L 142.896875 90.725 L 146.521875 91.121875 L 150.14375 91.415625 L 153.76875 91.7375 L 157.390625 92.215625 L 161.015625 92.953125 L 164.6375 94.01875 L 168.2625 95.4375 L 171.884375 97.203125 L 175.50625 99.25625 L 179.13125 101.51875 L 182.753125 103.878125 L 186.378125 106.225 L 190 108.44375 L 193.625 110.440625 L 197.246875 112.14375 L 200.871875 113.51875 L 204.49375 114.559375 L 208.11875 115.296875 L 211.740625 115.79375 L 215.365625 116.134375 " transform="matrix(1.25,0,0,1.25,0.000000000000028422,0)"/>
<path style="fill:none;stroke-width:1.5;stroke-linecap:square;stroke-linejoin:round;stroke:rgb(83.921569%,15.294118%,15.686275%);stroke-opacity:0.501961;stroke-miterlimit:4;" d="M 37.81875 129.878125 L 41.44375 132.01875 L 45.065625 133.809375 L 48.690625 135.309375 L 52.3125 136.575 L 55.9375 137.63125 L 59.559375 138.490625 L 63.184375 139.121875 L 66.80625 139.478125 L 70.43125 139.5 L 74.053125 139.11875 L 77.678125 138.28125 L 81.3 136.95625 L 84.921875 135.146875 L 88.546875 132.9 L 92.16875 130.3 L 95.79375 127.4625 L 99.415625 124.5375 L 103.040625 121.671875 L 106.6625 119.028125 L 110.2875 116.7375 L 113.909375 114.909375 L 117.534375 113.61875 L 121.15625 112.896875 L 124.78125 112.740625 L 128.403125 113.109375 L 132.028125 113.925 L 135.65 115.1 L 139.275 116.528125 L 142.896875 118.09375 L 146.521875 119.6875 L 150.14375 121.2125 L 153.76875 122.571875 L 157.390625 123.696875 L 161.015625 124.53125 L 164.6375 125.04375 L 168.2625 125.228125 L 171.884375 125.1 L 175.50625 124.7 L 179.13125 124.096875 L 182.753125 123.375 L 186.378125 122.628125 L 190 121.9625 L 193.625 121.46875 L 197.246875 121.228125 L 200.871875 121.2875 L 204.49375 121.665625 L 208.11875 122.340625 L 211.740625 123.253125 L 215.365625 124.3125 " transform="matrix(1.25,0,0,1.25,0.000000000000028422,0)"/>
<path style="fill:none;stroke-width:1.5;stroke-linecap:square;stroke-linejoin:round;stroke:rgb(58.039216%,40.392157%,74.117647%);stroke-opacity:0.501961;stroke-miterlimit:4;" d="M 37.81875 97.73125 L 41.44375 96.61875 L 45.065625 95.15 L 48.690625 93.209375 L 52.3125 90.696875 L 55.9375 87.5625 L 59.559375 83.790625 L 63.184375 79.4125 L 66.80625 74.50625 L 70.43125 69.196875 L 74.053125 63.646875 L 77.678125 58.04375 L 81.3 52.596875 L 84.921875 47.5125 L 88.546875 42.978125 L 92.16875 39.159375 L 95.79375 36.175 L 99.415625 34.090625 L 103.040625 32.925 L 106.6625 32.640625 L 110.2875 33.15625 L 113.909375 34.365625 L 117.534375 36.1375 L 121.15625 38.346875 L 124.78125 40.86875 L 128.403125 43.6125 L 132.028125 46.496875 L 135.65 49.4875 L 139.275 52.55625 L 142.896875 55.70625 L 146.521875 58.946875 L 150.14375 62.296875 L 153.76875 65.765625 L 157.390625 69.35625 L 161.015625 73.05625 L 164.6375 76.8375 L 168.2625 80.65625 L 171.884375 84.446875 L 175.50625 88.1375 L 179.13125 91.6375 L 182.753125 94.85625 L 186.378125 97.696875 L 190 100.06875 L 193.625 101.8875 L 197.246875 103.0875 L 200.871875 103.61875 L 204.49375 103.46875 L 208.11875 102.6375 L 211.740625 101.175 L 215.365625 99.153125 " transform="matrix(1.25,0,0,1.25,0.000000000000028422,0)"/>
<path style="fill:none;stroke-width:0.8;stroke-linecap:square;stroke-linejoin:miter;stroke:rgb(0%,0%,0%);stroke-opacity:1;stroke-miterlimit:4;" d="M 28.94375 145.8 L 28.94375 7.2 " transform="matrix(1.25,0,0,1.25,0.000000000000028422,0)"/>
<path style="fill:none;stroke-width:0.8;stroke-linecap:square;stroke-linejoin:miter;stroke:rgb(0%,0%,0%);stroke-opacity:1;stroke-miterlimit:4;" d="M 224.24375 145.8 L 224.24375 7.2 " transform="matrix(1.25,0,0,1.25,0.000000000000028422,0)"/>
<path style="fill:none;stroke-width:0.8;stroke-linecap:square;stroke-linejoin:miter;stroke:rgb(0%,0%,0%);stroke-opacity:1;stroke-miterlimit:4;" d="M 28.940625 145.8 L 224.24375 145.8 " transform="matrix(1.25,0,0,1.25,0.000000000000028422,0)"/>
<path style="fill:none;stroke-width:0.8;stroke-linecap:square;stroke-linejoin:miter;stroke:rgb(0%,0%,0%);stroke-opacity:1;stroke-miterlimit:4;" d="M 28.940625 7.2 L 224.24375 7.2 " transform="matrix(1.25,0,0,1.25,0.000000000000028422,0)"/>
</g>
</svg>
