<?xml version="1.0" encoding="UTF-8"?>
<svg xmlns="http://www.w3.org/2000/svg" xmlns:xlink="http://www.w3.org/1999/xlink" width="326pt" height="241pt" viewBox="0 0 326 241" version="1.1">
<g id="surface1">
<rect x="0" y="0" width="326" height="241" style="fill:rgb(100%,100%,100%);fill-opacity:1;stroke:none;"/>
<path style=" stroke:none;fill-rule:nonzero;fill:rgb(100%,100%,100%);fill-opacity:1;" d="M 73.328125 182.25 L 317.453125 182.25 L 317.453125 9 L 73.328125 9 Z M 73.328125 182.25 "/>
<path style=" stroke:none;fill-rule:nonzero;fill:rgb(12.156863%,46.666667%,70.588235%);fill-opacity:0.25098;" d="M 84.421875 16.875 L 84.421875 174.375 L 88.953125 171.285156 L 93.480469 168.203125 L 98.011719 165.128906 L 102.539062 162.058594 L 107.070312 158.996094 L 111.597656 155.945312 L 116.128906 152.902344 L 120.65625 149.875 L 125.1875 146.863281 L 129.714844 143.867188 L 134.246094 140.890625 L 138.773438 137.941406 L 143.300781 135.023438 L 147.832031 132.144531 L 152.359375 129.316406 L 156.890625 126.546875 L 161.417969 123.863281 L 165.949219 121.28125 L 170.476562 118.84375 L 175.007812 116.59375 L 179.535156 114.605469 L 184.066406 112.964844 L 188.59375 111.777344 L 193.125 111.148438 L 197.652344 111.148438 L 202.183594 111.777344 L 206.710938 112.964844 L 211.242188 114.605469 L 215.769531 116.59375 L 220.300781 118.84375 L 224.828125 121.28125 L 229.359375 123.863281 L 233.886719 126.546875 L 238.417969 129.316406 L 242.945312 132.144531 L 247.476562 135.023438 L 252.003906 137.941406 L 256.53125 140.890625 L 261.0625 143.867188 L 265.589844 146.863281 L 270.121094 149.875 L 274.648438 152.902344 L 279.179688 155.945312 L 283.707031 158.996094 L 288.238281 162.058594 L 292.765625 165.128906 L 297.296875 168.203125 L 301.824219 171.285156 L 306.355469 174.375 L 306.355469 16.875 L 301.824219 19.964844 L 297.296875 23.046875 L 292.765625 26.121094 L 288.238281 29.191406 L 283.707031 32.253906 L 279.179688 35.304688 L 274.648438 38.347656 L 270.121094 41.375 L 265.589844 44.386719 L 261.0625 47.382812 L 256.53125 50.359375 L 252.003906 53.308594 L 247.476562 56.226562 L 242.945312 59.105469 L 238.417969 61.933594 L 233.886719 64.703125 L 229.359375 67.386719 L 224.828125 69.96875 L 220.300781 72.40625 L 215.769531 74.65625 L 211.242188 76.644531 L 206.710938 78.285156 L 202.183594 79.472656 L 197.652344 80.101562 L 193.125 80.101562 L 188.59375 79.472656 L 184.066406 78.285156 L 179.535156 76.644531 L 175.007812 74.65625 L 170.476562 72.40625 L 165.949219 69.96875 L 161.417969 67.386719 L 156.890625 64.703125 L 152.359375 61.933594 L 147.832031 59.105469 L 143.300781 56.226562 L 138.773438 53.308594 L 134.246094 50.359375 L 129.714844 47.382812 L 125.1875 44.386719 L 120.65625 41.375 L 116.128906 38.347656 L 111.597656 35.304688 L 107.070312 32.253906 L 102.539062 29.191406 L 98.011719 26.121094 L 93.480469 23.046875 L 88.953125 19.964844 Z M 84.421875 16.875 "/>
<path style="fill:none;stroke-width:0.8;stroke-linecap:butt;stroke-linejoin:round;stroke:rgb(0%,0%,0%);stroke-opacity:1;stroke-miterlimit:4;" d="M 0.000994 0 L 0.000994 3.5 " transform="matrix(1.25,0,0,1.25,106.615945,182.25)"/>
<path style=" stroke:none;fill-rule:nonzero;fill:rgb(0%,0%,0%);fill-opacity:1;" d="M 98.726562 196.0625 L 106.550781 196.0625 L 106.550781 197.097656 L 98.726562 197.097656 Z M 98.726562 196.0625 "/>
<path style=" stroke:none;fill-rule:nonzero;fill:rgb(0%,0%,0%);fill-opacity:1;" d="M 112.601562 192.460938 L 109.488281 197.324219 L 112.601562 197.324219 Z M 112.277344 191.386719 L 113.828125 191.386719 L 113.828125 197.324219 L 115.128906 197.324219 L 115.128906 198.351562 L 113.828125 198.351562 L 113.828125 200.5 L 112.601562 200.5 L 112.601562 198.351562 L 108.488281 198.351562 L 108.488281 197.160156 Z M 112.277344 191.386719 "/>
<path style="fill:none;stroke-width:0.8;stroke-linecap:butt;stroke-linejoin:round;stroke:rgb(0%,0%,0%);stroke-opacity:1;stroke-miterlimit:4;" d="M 0.001278 0 L 0.001278 3.5 " transform="matrix(1.25,0,0,1.25,151.002309,182.25)"/>
<path style=" stroke:none;fill-rule:nonzero;fill:rgb(0%,0%,0%);fill-opacity:1;" d="M 143.113281 196.0625 L 150.9375 196.0625 L 150.9375 197.097656 L 143.113281 197.097656 Z M 143.113281 196.0625 "/>
<path style=" stroke:none;fill-rule:nonzero;fill:rgb(0%,0%,0%);fill-opacity:1;" d="M 154.660156 199.460938 L 158.964844 199.460938 L 158.964844 200.5 L 153.179688 200.5 L 153.179688 199.460938 C 153.644531 198.976562 154.28125 198.328125 155.089844 197.511719 C 155.898438 196.695312 156.40625 196.167969 156.613281 195.933594 C 157.007812 195.488281 157.285156 195.113281 157.441406 194.808594 C 157.597656 194.5 157.675781 194.199219 157.675781 193.902344 C 157.675781 193.417969 157.507812 193.023438 157.167969 192.71875 C 156.828125 192.410156 156.382812 192.257812 155.839844 192.257812 C 155.453125 192.257812 155.042969 192.324219 154.613281 192.460938 C 154.183594 192.59375 153.726562 192.796875 153.238281 193.070312 L 153.238281 191.824219 C 153.734375 191.625 154.199219 191.476562 154.628906 191.375 C 155.0625 191.273438 155.457031 191.222656 155.816406 191.222656 C 156.757812 191.222656 157.511719 191.457031 158.074219 191.929688 C 158.632812 192.402344 158.914062 193.03125 158.914062 193.820312 C 158.914062 194.195312 158.84375 194.550781 158.703125 194.886719 C 158.5625 195.222656 158.308594 195.617188 157.9375 196.074219 C 157.835938 196.191406 157.511719 196.53125 156.96875 197.097656 C 156.421875 197.660156 155.652344 198.449219 154.660156 199.460938 Z M 154.660156 199.460938 "/>
<path style="fill:none;stroke-width:0.8;stroke-linecap:butt;stroke-linejoin:round;stroke:rgb(0%,0%,0%);stroke-opacity:1;stroke-miterlimit:4;" d="M 0.001562 0 L 0.001562 3.5 " transform="matrix(1.25,0,0,1.25,195.388672,182.25)"/>
<path style=" stroke:none;fill-rule:nonzero;fill:rgb(0%,0%,0%);fill-opacity:1;" d="M 195.386719 192.199219 C 194.75 192.199219 194.273438 192.511719 193.953125 193.136719 C 193.632812 193.757812 193.476562 194.699219 193.476562 195.953125 C 193.476562 197.199219 193.632812 198.136719 193.953125 198.761719 C 194.273438 199.386719 194.75 199.699219 195.386719 199.699219 C 196.023438 199.699219 196.503906 199.386719 196.824219 198.761719 C 197.144531 198.136719 197.304688 197.199219 197.304688 195.953125 C 197.304688 194.699219 197.144531 193.757812 196.824219 193.136719 C 196.503906 192.511719 196.023438 192.199219 195.386719 192.199219 Z M 195.386719 191.222656 C 196.40625 191.222656 197.1875 191.625 197.726562 192.433594 C 198.265625 193.242188 198.535156 194.414062 198.535156 195.953125 C 198.535156 197.484375 198.265625 198.65625 197.726562 199.464844 C 197.1875 200.273438 196.40625 200.675781 195.386719 200.675781 C 194.363281 200.675781 193.585938 200.273438 193.046875 199.464844 C 192.507812 198.65625 192.238281 197.484375 192.238281 195.953125 C 192.238281 194.414062 192.507812 193.242188 193.046875 192.433594 C 193.585938 191.625 194.363281 191.222656 195.386719 191.222656 Z M 195.386719 191.222656 "/>
<path style="fill:none;stroke-width:0.8;stroke-linecap:butt;stroke-linejoin:round;stroke:rgb(0%,0%,0%);stroke-opacity:1;stroke-miterlimit:4;" d="M -0.001278 0 L -0.001278 3.5 " transform="matrix(1.25,0,0,1.25,239.775035,182.25)"/>
<path style=" stroke:none;fill-rule:nonzero;fill:rgb(0%,0%,0%);fill-opacity:1;" d="M 238.195312 199.460938 L 242.5 199.460938 L 242.5 200.5 L 236.714844 200.5 L 236.714844 199.460938 C 237.183594 198.976562 237.820312 198.328125 238.625 197.511719 C 239.433594 196.695312 239.941406 196.167969 240.148438 195.933594 C 240.542969 195.488281 240.820312 195.113281 240.976562 194.808594 C 241.132812 194.5 241.210938 194.199219 241.210938 193.902344 C 241.210938 193.417969 241.042969 193.023438 240.703125 192.71875 C 240.363281 192.410156 239.921875 192.257812 239.375 192.257812 C 238.988281 192.257812 238.578125 192.324219 238.148438 192.460938 C 237.722656 192.59375 237.261719 192.796875 236.773438 193.070312 L 236.773438 191.824219 C 237.269531 191.625 237.734375 191.476562 238.164062 191.375 C 238.597656 191.273438 238.992188 191.222656 239.351562 191.222656 C 240.296875 191.222656 241.046875 191.457031 241.609375 191.929688 C 242.171875 192.402344 242.449219 193.03125 242.449219 193.820312 C 242.449219 194.195312 242.378906 194.550781 242.238281 194.886719 C 242.101562 195.222656 241.84375 195.617188 241.472656 196.074219 C 241.371094 196.191406 241.050781 196.53125 240.503906 197.097656 C 239.960938 197.660156 239.191406 198.449219 238.195312 199.460938 Z M 238.195312 199.460938 "/>
<path style="fill:none;stroke-width:0.8;stroke-linecap:butt;stroke-linejoin:round;stroke:rgb(0%,0%,0%);stroke-opacity:1;stroke-miterlimit:4;" d="M -0.000994 0 L -0.000994 3.5 " transform="matrix(1.25,0,0,1.25,284.161399,182.25)"/>
<path style=" stroke:none;fill-rule:nonzero;fill:rgb(0%,0%,0%);fill-opacity:1;" d="M 284.910156 192.460938 L 281.796875 197.324219 L 284.910156 197.324219 Z M 284.585938 191.386719 L 286.136719 191.386719 L 286.136719 197.324219 L 287.4375 197.324219 L 287.4375 198.351562 L 286.136719 198.351562 L 286.136719 200.5 L 284.910156 200.5 L 284.910156 198.351562 L 280.796875 198.351562 L 280.796875 197.160156 Z M 284.585938 191.386719 "/>
<path style=" stroke:none;fill-rule:nonzero;fill:rgb(0%,0%,0%);fill-opacity:1;" d="M 201.714844 213.421875 L 196.769531 220.074219 L 201.96875 227.09375 L 199.320312 227.09375 L 195.339844 221.722656 L 191.363281 227.09375 L 188.710938 227.09375 L 194.023438 219.941406 L 189.164062 213.421875 L 191.8125 213.421875 L 195.4375 218.292969 L 199.0625 213.421875 Z M 201.714844 213.421875 "/>
<path style="fill:none;stroke-width:0.8;stroke-linecap:butt;stroke-linejoin:round;stroke:rgb(0%,0%,0%);stroke-opacity:1;stroke-miterlimit:4;" d="M 0.001562 0.001542 L -3.498438 0.001542 " transform="matrix(1.25,0,0,1.25,73.326172,172.845729)"/>
<path style=" stroke:none;fill-rule:nonzero;fill:rgb(0%,0%,0%);fill-opacity:1;" d="M 39.519531 173.15625 L 47.34375 173.15625 L 47.34375 174.195312 L 39.519531 174.195312 Z M 39.519531 173.15625 "/>
<path style=" stroke:none;fill-rule:nonzero;fill:rgb(0%,0%,0%);fill-opacity:1;" d="M 50.21875 176.558594 L 52.234375 176.558594 L 52.234375 169.605469 L 50.042969 170.042969 L 50.042969 168.921875 L 52.222656 168.480469 L 53.453125 168.480469 L 53.453125 176.558594 L 55.46875 176.558594 L 55.46875 177.59375 L 50.21875 177.59375 Z M 50.21875 176.558594 "/>
<path style=" stroke:none;fill-rule:nonzero;fill:rgb(0%,0%,0%);fill-opacity:1;" d="M 60.59375 169.292969 C 59.960938 169.292969 59.484375 169.605469 59.164062 170.230469 C 58.84375 170.855469 58.683594 171.792969 58.683594 173.046875 C 58.683594 174.296875 58.84375 175.234375 59.164062 175.859375 C 59.484375 176.484375 59.960938 176.796875 60.59375 176.796875 C 61.234375 176.796875 61.714844 176.484375 62.03125 175.859375 C 62.351562 175.234375 62.511719 174.296875 62.511719 173.046875 C 62.511719 171.792969 62.351562 170.855469 62.03125 170.230469 C 61.714844 169.605469 61.234375 169.292969 60.59375 169.292969 Z M 60.59375 168.316406 C 61.617188 168.316406 62.398438 168.722656 62.9375 169.53125 C 63.476562 170.335938 63.746094 171.511719 63.746094 173.046875 C 63.746094 174.582031 63.476562 175.753906 62.9375 176.5625 C 62.398438 177.367188 61.617188 177.773438 60.59375 177.773438 C 59.574219 177.773438 58.792969 177.367188 58.253906 176.5625 C 57.714844 175.753906 57.445312 174.582031 57.445312 173.046875 C 57.445312 171.511719 57.714844 170.335938 58.253906 169.53125 C 58.792969 168.722656 59.574219 168.316406 60.59375 168.316406 Z M 60.59375 168.316406 "/>
<path style="fill:none;stroke-width:0.8;stroke-linecap:butt;stroke-linejoin:round;stroke:rgb(0%,0%,0%);stroke-opacity:1;stroke-miterlimit:4;" d="M 0.001562 -0.000791 L -3.498438 -0.000791 " transform="matrix(1.25,0,0,1.25,73.326172,134.235364)"/>
<path style=" stroke:none;fill-rule:nonzero;fill:rgb(0%,0%,0%);fill-opacity:1;" d="M 47.472656 134.546875 L 55.296875 134.546875 L 55.296875 135.585938 L 47.472656 135.585938 Z M 47.472656 134.546875 "/>
<path style=" stroke:none;fill-rule:nonzero;fill:rgb(0%,0%,0%);fill-opacity:1;" d="M 57.972656 129.871094 L 62.8125 129.871094 L 62.8125 130.910156 L 59.101562 130.910156 L 59.101562 133.144531 C 59.277344 133.082031 59.457031 133.035156 59.636719 133.007812 C 59.816406 132.976562 59.996094 132.960938 60.175781 132.960938 C 61.191406 132.960938 61.996094 133.238281 62.589844 133.796875 C 63.1875 134.355469 63.484375 135.109375 63.484375 136.0625 C 63.484375 137.042969 63.179688 137.804688 62.566406 138.347656 C 61.957031 138.890625 61.097656 139.164062 59.984375 139.164062 C 59.601562 139.164062 59.210938 139.128906 58.816406 139.066406 C 58.417969 139 58.011719 138.902344 57.585938 138.773438 L 57.585938 137.53125 C 57.953125 137.730469 58.332031 137.878906 58.722656 137.976562 C 59.113281 138.074219 59.523438 138.125 59.960938 138.125 C 60.664062 138.125 61.222656 137.9375 61.632812 137.570312 C 62.042969 137.199219 62.25 136.695312 62.25 136.0625 C 62.25 135.425781 62.042969 134.925781 61.632812 134.554688 C 61.222656 134.183594 60.664062 134 59.960938 134 C 59.628906 134 59.300781 134.035156 58.972656 134.109375 C 58.648438 134.179688 58.3125 134.292969 57.972656 134.449219 Z M 57.972656 129.871094 "/>
<path style="fill:none;stroke-width:0.8;stroke-linecap:butt;stroke-linejoin:round;stroke:rgb(0%,0%,0%);stroke-opacity:1;stroke-miterlimit:4;" d="M 0.001562 0 L -3.498438 0 " transform="matrix(1.25,0,0,1.25,73.326172,95.625)"/>
<path style=" stroke:none;fill-rule:nonzero;fill:rgb(0%,0%,0%);fill-opacity:1;" d="M 60.597656 92.074219 C 59.960938 92.074219 59.484375 92.386719 59.164062 93.011719 C 58.84375 93.632812 58.6875 94.574219 58.6875 95.828125 C 58.6875 97.074219 58.84375 98.011719 59.164062 98.636719 C 59.484375 99.261719 59.960938 99.574219 60.597656 99.574219 C 61.234375 99.574219 61.714844 99.261719 62.035156 98.636719 C 62.355469 98.011719 62.515625 97.074219 62.515625 95.828125 C 62.515625 94.574219 62.355469 93.632812 62.035156 93.011719 C 61.714844 92.386719 61.234375 92.074219 60.597656 92.074219 Z M 60.597656 91.097656 C 61.617188 91.097656 62.398438 91.5 62.9375 92.308594 C 63.476562 93.117188 63.746094 94.289062 63.746094 95.828125 C 63.746094 97.359375 63.476562 98.53125 62.9375 99.339844 C 62.398438 100.148438 61.617188 100.550781 60.597656 100.550781 C 59.574219 100.550781 58.796875 100.148438 58.257812 99.339844 C 57.71875 98.53125 57.449219 97.359375 57.449219 95.828125 C 57.449219 94.289062 57.71875 93.117188 58.257812 92.308594 C 58.796875 91.5 59.574219 91.097656 60.597656 91.097656 Z M 60.597656 91.097656 "/>
<path style="fill:none;stroke-width:0.8;stroke-linecap:butt;stroke-linejoin:round;stroke:rgb(0%,0%,0%);stroke-opacity:1;stroke-miterlimit:4;" d="M 0.001562 0.000791 L -3.498438 0.000791 " transform="matrix(1.25,0,0,1.25,73.326172,57.014636)"/>
<path style=" stroke:none;fill-rule:nonzero;fill:rgb(0%,0%,0%);fill-opacity:1;" d="M 57.972656 52.648438 L 62.8125 52.648438 L 62.8125 53.6875 L 59.101562 53.6875 L 59.101562 55.921875 C 59.28125 55.859375 59.457031 55.816406 59.636719 55.785156 C 59.816406 55.753906 59.996094 55.738281 60.175781 55.738281 C 61.191406 55.738281 62 56.019531 62.59375 56.574219 C 63.1875 57.132812 63.484375 57.886719 63.484375 58.839844 C 63.484375 59.820312 63.179688 60.582031 62.570312 61.125 C 61.957031 61.667969 61.097656 61.941406 59.988281 61.941406 C 59.605469 61.941406 59.214844 61.910156 58.816406 61.84375 C 58.421875 61.777344 58.011719 61.679688 57.589844 61.550781 L 57.589844 60.308594 C 57.953125 60.507812 58.332031 60.65625 58.722656 60.753906 C 59.113281 60.851562 59.527344 60.902344 59.960938 60.902344 C 60.664062 60.902344 61.222656 60.71875 61.632812 60.347656 C 62.042969 59.976562 62.25 59.476562 62.25 58.839844 C 62.25 58.207031 62.042969 57.703125 61.632812 57.332031 C 61.222656 56.960938 60.664062 56.777344 59.960938 56.777344 C 59.632812 56.777344 59.304688 56.8125 58.976562 56.886719 C 58.648438 56.960938 58.3125 57.074219 57.972656 57.226562 Z M 57.972656 52.648438 "/>
<path style="fill:none;stroke-width:0.8;stroke-linecap:butt;stroke-linejoin:round;stroke:rgb(0%,0%,0%);stroke-opacity:1;stroke-miterlimit:4;" d="M 0.001562 -0.001542 L -3.498438 -0.001542 " transform="matrix(1.25,0,0,1.25,73.326172,18.404271)"/>
<path style=" stroke:none;fill-rule:nonzero;fill:rgb(0%,0%,0%);fill-opacity:1;" d="M 50.222656 22.117188 L 52.234375 22.117188 L 52.234375 15.164062 L 50.042969 15.601562 L 50.042969 14.480469 L 52.222656 14.039062 L 53.457031 14.039062 L 53.457031 22.117188 L 55.46875 22.117188 L 55.46875 23.152344 L 50.222656 23.152344 Z M 50.222656 22.117188 "/>
<path style=" stroke:none;fill-rule:nonzero;fill:rgb(0%,0%,0%);fill-opacity:1;" d="M 60.59375 14.851562 C 59.960938 14.851562 59.484375 15.164062 59.164062 15.789062 C 58.84375 16.414062 58.683594 17.351562 58.683594 18.605469 C 58.683594 19.855469 58.84375 20.792969 59.164062 21.417969 C 59.484375 22.042969 59.960938 22.355469 60.59375 22.355469 C 61.234375 22.355469 61.714844 22.042969 62.03125 21.417969 C 62.351562 20.792969 62.511719 19.855469 62.511719 18.605469 C 62.511719 17.351562 62.351562 16.414062 62.03125 15.789062 C 61.714844 15.164062 61.234375 14.851562 60.59375 14.851562 Z M 60.59375 13.875 C 61.617188 13.875 62.398438 14.28125 62.9375 15.089844 C 63.476562 15.894531 63.746094 17.070312 63.746094 18.605469 C 63.746094 20.140625 63.476562 21.3125 62.9375 22.121094 C 62.398438 22.925781 61.617188 23.332031 60.59375 23.332031 C 59.574219 23.332031 58.792969 22.925781 58.253906 22.121094 C 57.714844 21.3125 57.445312 20.140625 57.445312 18.605469 C 57.445312 17.070312 57.714844 15.894531 58.253906 15.089844 C 58.792969 14.28125 59.574219 13.875 60.59375 13.875 Z M 60.59375 13.875 "/>
<path style=" stroke:none;fill-rule:nonzero;fill:rgb(0%,0%,0%);fill-opacity:1;" d="M 9 107.902344 L 10.871094 107.902344 L 10.871094 110.050781 C 10.871094 110.855469 11.035156 111.414062 11.359375 111.730469 C 11.683594 112.042969 12.269531 112.199219 13.117188 112.199219 L 14.324219 112.199219 L 14.324219 108.5 L 16.070312 108.5 L 16.070312 112.199219 L 27.996094 112.199219 L 27.996094 114.457031 L 16.070312 114.457031 L 16.070312 116.605469 L 14.324219 116.605469 L 14.324219 114.457031 L 13.371094 114.457031 C 11.851562 114.457031 10.742188 114.101562 10.046875 113.394531 C 9.347656 112.683594 9 111.5625 9 110.027344 Z M 9 107.902344 "/>
<path style=" stroke:none;fill-rule:nonzero;fill:rgb(0%,0%,0%);fill-opacity:1;" d="M 9.027344 100.625 C 10.898438 101.714844 12.75 102.523438 14.582031 103.054688 C 16.414062 103.585938 18.269531 103.847656 20.148438 103.847656 C 22.027344 103.847656 23.886719 103.582031 25.730469 103.046875 C 27.574219 102.515625 29.429688 101.707031 31.292969 100.625 L 31.292969 102.578125 C 29.378906 103.796875 27.5 104.710938 25.652344 105.316406 C 23.804688 105.925781 21.972656 106.226562 20.148438 106.226562 C 18.332031 106.226562 16.507812 105.925781 14.667969 105.324219 C 12.828125 104.722656 10.945312 103.804688 9.027344 102.578125 Z M 9.027344 100.625 "/>
<path style=" stroke:none;fill-rule:nonzero;fill:rgb(0%,0%,0%);fill-opacity:1;" d="M 14.324219 84.902344 L 20.976562 89.847656 L 27.996094 84.648438 L 27.996094 87.296875 L 22.625 91.277344 L 27.996094 95.253906 L 27.996094 97.90625 L 20.84375 92.59375 L 14.324219 97.453125 L 14.324219 94.804688 L 19.195312 91.179688 L 14.324219 87.554688 Z M 14.324219 84.902344 "/>
<path style=" stroke:none;fill-rule:nonzero;fill:rgb(0%,0%,0%);fill-opacity:1;" d="M 9.027344 81.824219 L 9.027344 79.871094 C 10.945312 78.652344 12.828125 77.738281 14.667969 77.132812 C 16.507812 76.527344 18.332031 76.222656 20.148438 76.222656 C 21.972656 76.222656 23.804688 76.527344 25.652344 77.132812 C 27.5 77.738281 29.378906 78.652344 31.292969 79.871094 L 31.292969 81.824219 C 29.429688 80.742188 27.574219 79.9375 25.730469 79.402344 C 23.886719 78.867188 22.027344 78.601562 20.148438 78.601562 C 18.269531 78.601562 16.414062 78.867188 14.582031 79.402344 C 12.75 79.9375 10.898438 80.742188 9.027344 81.824219 Z M 9.027344 81.824219 "/>
<path style="fill:none;stroke-width:4;stroke-linecap:square;stroke-linejoin:round;stroke:rgb(0%,0%,0%);stroke-opacity:1;stroke-miterlimit:4;" d="M 67.5375 76.5 L 245.084375 76.5 " transform="matrix(1.25,0,0,1.25,0,0.000000000000014211)"/>
<path style="fill:none;stroke-width:1.5;stroke-linecap:square;stroke-linejoin:round;stroke:rgb(12.156863%,46.666667%,70.588235%);stroke-opacity:1;stroke-miterlimit:4;" d="M 67.5375 79.828125 L 71.1625 79.25625 L 74.784375 78.684375 L 78.409375 78.115625 L 82.03125 77.54375 L 85.65625 76.975 L 89.278125 76.403125 L 92.903125 75.834375 L 96.525 75.2625 L 100.15 74.69375 L 103.771875 74.121875 L 107.396875 73.55 L 111.01875 72.98125 L 114.640625 72.409375 L 118.265625 71.840625 L 121.8875 71.26875 L 125.5125 70.7 L 129.134375 70.128125 L 132.759375 69.559375 L 136.38125 68.9875 L 140.00625 68.415625 L 143.628125 67.846875 L 147.253125 67.275 L 150.875 66.70625 L 154.5 66.134375 L 158.121875 65.565625 L 161.746875 64.99375 L 165.36875 64.425 L 168.99375 63.853125 L 172.615625 63.28125 L 176.240625 62.7125 L 179.8625 62.140625 L 183.4875 61.571875 L 187.109375 61 L 190.734375 60.43125 L 194.35625 59.859375 L 197.98125 59.290625 L 205.225 58.146875 L 208.85 57.578125 L 212.471875 57.00625 L 216.096875 56.4375 L 219.71875 55.865625 L 223.34375 55.296875 L 226.965625 54.725 L 230.590625 54.153125 L 234.2125 53.584375 L 237.8375 53.0125 L 241.459375 52.44375 L 245.084375 51.871875 " transform="matrix(1.25,0,0,1.25,0,0.000000000000014211)"/>
<path style="fill:none;stroke-width:1.5;stroke-linecap:square;stroke-linejoin:round;stroke:rgb(100%,49.803922%,5.490196%);stroke-opacity:1;stroke-miterlimit:4;" d="M 67.5375 65.26875 L 71.1625 65.753125 L 74.784375 66.234375 L 78.409375 66.71875 L 82.03125 67.203125 L 85.65625 67.6875 L 89.278125 68.171875 L 92.903125 68.65625 L 96.525 69.1375 L 100.15 69.621875 L 103.771875 70.10625 L 107.396875 70.590625 L 114.640625 71.559375 L 118.265625 72.040625 L 121.8875 72.525 L 125.5125 73.009375 L 129.134375 73.49375 L 132.759375 73.978125 L 136.38125 74.4625 L 140.00625 74.94375 L 143.628125 75.428125 L 147.253125 75.9125 L 150.875 76.396875 L 154.5 76.88125 L 158.121875 77.365625 L 161.746875 77.846875 L 165.36875 78.33125 L 168.99375 78.815625 L 172.615625 79.3 L 176.240625 79.784375 L 179.8625 80.26875 L 183.4875 80.75 L 187.109375 81.234375 L 190.734375 81.71875 L 194.35625 82.203125 L 197.98125 82.6875 L 201.603125 83.16875 L 205.225 83.653125 L 208.85 84.1375 L 212.471875 84.621875 L 216.096875 85.10625 L 219.71875 85.590625 L 223.34375 86.071875 L 226.965625 86.55625 L 230.590625 87.040625 L 234.2125 87.525 L 237.8375 88.009375 L 241.459375 88.49375 L 245.084375 88.975 " transform="matrix(1.25,0,0,1.25,0,0.000000000000014211)"/>
<path style="fill:none;stroke-width:1.5;stroke-linecap:square;stroke-linejoin:round;stroke:rgb(17.254902%,62.745098%,17.254902%);stroke-opacity:1;stroke-miterlimit:4;" d="M 67.5375 74.984375 L 71.1625 74.78125 L 74.784375 74.578125 L 78.409375 74.375 L 82.03125 74.171875 L 85.65625 73.96875 L 89.278125 73.765625 L 92.903125 73.5625 L 96.525 73.35625 L 100.15 73.153125 L 103.771875 72.95 L 107.396875 72.746875 L 114.640625 72.340625 L 118.265625 72.1375 L 121.8875 71.93125 L 125.5125 71.728125 L 129.134375 71.525 L 132.759375 71.321875 L 136.38125 71.11875 L 140.00625 70.915625 L 143.628125 70.7125 L 147.253125 70.509375 L 150.875 70.303125 L 154.5 70.1 L 158.121875 69.896875 L 161.746875 69.69375 L 165.36875 69.490625 L 168.99375 69.2875 L 172.615625 69.084375 L 176.240625 68.878125 L 179.8625 68.675 L 183.4875 68.471875 L 187.109375 68.26875 L 190.734375 68.065625 L 194.35625 67.8625 L 197.98125 67.659375 L 201.603125 67.45625 L 205.225 67.25 L 208.85 67.046875 L 212.471875 66.84375 L 216.096875 66.640625 L 219.71875 66.4375 L 223.34375 66.234375 L 226.965625 66.03125 L 230.590625 65.828125 L 234.2125 65.621875 L 237.8375 65.41875 L 241.459375 65.215625 L 245.084375 65.0125 " transform="matrix(1.25,0,0,1.25,0,0.000000000000014211)"/>
<path style="fill:none;stroke-width:1.5;stroke-linecap:square;stroke-linejoin:round;stroke:rgb(83.921569%,15.294118%,15.686275%);stroke-opacity:1;stroke-miterlimit:4;" d="M 67.5375 79.3375 L 71.1625 79.1875 L 74.784375 79.0375 L 78.409375 78.8875 L 82.03125 78.7375 L 85.65625 78.5875 L 89.278125 78.4375 L 92.903125 78.284375 L 96.525 78.134375 L 100.15 77.984375 L 103.771875 77.834375 L 107.396875 77.684375 L 114.640625 77.384375 L 118.265625 77.234375 L 121.8875 77.084375 L 125.5125 76.934375 L 129.134375 76.78125 L 132.759375 76.63125 L 136.38125 76.48125 L 140.00625 76.33125 L 143.628125 76.18125 L 147.253125 76.03125 L 150.875 75.88125 L 154.5 75.73125 L 158.121875 75.58125 L 161.746875 75.43125 L 165.36875 75.278125 L 168.99375 75.128125 L 172.615625 74.978125 L 176.240625 74.828125 L 179.8625 74.678125 L 183.4875 74.528125 L 187.109375 74.378125 L 190.734375 74.228125 L 194.35625 74.078125 L 197.98125 73.928125 L 201.603125 73.775 L 205.225 73.625 L 208.85 73.475 L 212.471875 73.325 L 216.096875 73.175 L 219.71875 73.025 L 223.34375 72.875 L 226.965625 72.725 L 230.590625 72.575 L 234.2125 72.425 L 237.8375 72.271875 L 241.459375 72.121875 L 245.084375 71.971875 " transform="matrix(1.25,0,0,1.25,0,0.000000000000014211)"/>
<path style="fill:none;stroke-width:1.5;stroke-linecap:square;stroke-linejoin:round;stroke:rgb(58.039216%,40.392157%,74.117647%);stroke-opacity:1;stroke-miterlimit:4;" d="M 67.5375 63.815625 L 71.1625 64.18125 L 74.784375 64.546875 L 78.409375 64.9125 L 82.03125 65.278125 L 85.65625 65.64375 L 89.278125 66.009375 L 92.903125 66.375 L 96.525 66.740625 L 100.15 67.10625 L 103.771875 67.471875 L 107.396875 67.8375 L 114.640625 68.56875 L 118.265625 68.934375 L 121.8875 69.3 L 125.5125 69.665625 L 129.134375 70.028125 L 132.759375 70.39375 L 136.38125 70.759375 L 140.00625 71.125 L 143.628125 71.490625 L 147.253125 71.85625 L 150.875 72.221875 L 154.5 72.5875 L 158.121875 72.953125 L 161.746875 73.31875 L 165.36875 73.684375 L 168.99375 74.05 L 172.615625 74.415625 L 176.240625 74.78125 L 179.8625 75.146875 L 183.4875 75.5125 L 187.109375 75.878125 L 190.734375 76.24375 L 194.35625 76.609375 L 197.98125 76.975 L 205.225 77.70625 L 208.85 78.071875 L 212.471875 78.4375 L 216.096875 78.803125 L 219.71875 79.16875 L 223.34375 79.534375 L 226.965625 79.9 L 230.590625 80.265625 L 234.2125 80.63125 L 237.8375 80.996875 L 241.459375 81.3625 L 245.084375 81.728125 " transform="matrix(1.25,0,0,1.25,0,0.000000000000014211)"/>
<path style="fill:none;stroke-width:1.5;stroke-linecap:square;stroke-linejoin:round;stroke:rgb(54.901961%,33.72549%,29.411765%);stroke-opacity:1;stroke-miterlimit:4;" d="M 67.5375 19.865625 L 71.1625 22.175 L 74.784375 24.484375 L 78.409375 26.79375 L 82.03125 29.103125 L 85.65625 31.4125 L 89.278125 33.71875 L 92.903125 36.028125 L 96.525 38.3375 L 100.15 40.646875 L 103.771875 42.95625 L 107.396875 45.265625 L 111.01875 47.575 L 114.640625 49.88125 L 118.265625 52.190625 L 121.8875 54.5 L 125.5125 56.809375 L 129.134375 59.11875 L 132.759375 61.428125 L 136.38125 63.7375 L 140.00625 66.04375 L 143.628125 68.353125 L 147.253125 70.6625 L 150.875 72.971875 L 154.5 75.28125 L 158.121875 77.590625 L 161.746875 79.9 L 165.36875 82.20625 L 168.99375 84.515625 L 172.615625 86.825 L 176.240625 89.134375 L 179.8625 91.44375 L 183.4875 93.753125 L 187.109375 96.0625 L 190.734375 98.36875 L 194.35625 100.678125 L 197.98125 102.9875 L 205.225 107.60625 L 208.85 109.915625 L 212.471875 112.221875 L 216.096875 114.53125 L 219.71875 116.840625 L 223.34375 119.15 L 226.965625 121.459375 L 230.590625 123.76875 L 234.2125 126.078125 L 237.8375 128.384375 L 241.459375 130.69375 L 245.084375 133.003125 " transform="matrix(1.25,0,0,1.25,0,0.000000000000014211)"/>
<path style="fill:none;stroke-width:1.5;stroke-linecap:square;stroke-linejoin:round;stroke:rgb(89.019608%,46.666667%,76.078431%);stroke-opacity:1;stroke-miterlimit:4;" d="M 67.5375 67.01875 L 71.1625 67.078125 L 74.784375 67.1375 L 78.409375 67.196875 L 82.03125 67.259375 L 85.65625 67.31875 L 89.278125 67.378125 L 92.903125 67.4375 L 96.525 67.496875 L 100.15 67.55625 L 103.771875 67.61875 L 107.396875 67.678125 L 114.640625 67.796875 L 118.265625 67.85625 L 121.8875 67.915625 L 125.5125 67.975 L 129.134375 68.0375 L 132.759375 68.096875 L 136.38125 68.15625 L 140.00625 68.215625 L 143.628125 68.275 L 147.253125 68.334375 L 150.875 68.396875 L 154.5 68.45625 L 158.121875 68.515625 L 161.746875 68.575 L 165.36875 68.634375 L 168.99375 68.69375 L 172.615625 68.75625 L 176.240625 68.815625 L 179.8625 68.875 L 183.4875 68.934375 L 187.109375 68.99375 L 190.734375 69.053125 L 194.35625 69.1125 L 197.98125 69.175 L 205.225 69.29375 L 208.85 69.353125 L 212.471875 69.4125 L 216.096875 69.471875 L 219.71875 69.534375 L 223.34375 69.59375 L 226.965625 69.653125 L 230.590625 69.7125 L 234.2125 69.771875 L 237.8375 69.83125 L 241.459375 69.890625 L 245.084375 69.953125 " transform="matrix(1.25,0,0,1.25,0,0.000000000000014211)"/>
<path style="fill:none;stroke-width:1.5;stroke-linecap:square;stroke-linejoin:round;stroke:rgb(49.803922%,49.803922%,49.803922%);stroke-opacity:1;stroke-miterlimit:4;" d="M 67.5375 97.821875 L 71.1625 96.98125 L 74.784375 96.1375 L 78.409375 95.29375 L 82.03125 94.453125 L 85.65625 93.609375 L 89.278125 92.765625 L 92.903125 91.925 L 96.525 91.08125 L 100.15 90.2375 L 103.771875 89.396875 L 107.396875 88.553125 L 111.01875 87.709375 L 114.640625 86.86875 L 118.265625 86.025 L 121.8875 85.18125 L 125.5125 84.340625 L 129.134375 83.496875 L 132.759375 82.653125 L 136.38125 81.8125 L 140.00625 80.96875 L 143.628125 80.128125 L 147.253125 79.284375 L 150.875 78.440625 L 154.5 77.6 L 158.121875 76.75625 L 161.746875 75.9125 L 165.36875 75.071875 L 168.99375 74.228125 L 172.615625 73.384375 L 176.240625 72.54375 L 179.8625 71.7 L 183.4875 70.85625 L 187.109375 70.015625 L 190.734375 69.171875 L 194.35625 68.328125 L 197.98125 67.4875 L 205.225 65.8 L 208.85 64.959375 L 212.471875 64.115625 L 216.096875 63.271875 L 219.71875 62.43125 L 223.34375 61.5875 L 226.965625 60.74375 L 230.590625 59.903125 L 234.2125 59.059375 L 237.8375 58.215625 L 241.459375 57.375 L 245.084375 56.53125 " transform="matrix(1.25,0,0,1.25,0,0.000000000000014211)"/>
<path style="fill:none;stroke-width:1.5;stroke-linecap:square;stroke-linejoin:round;stroke:rgb(73.72549%,74.117647%,13.333333%);stroke-opacity:1;stroke-miterlimit:4;" d="M 67.5375 58.853125 L 71.1625 60.0125 L 74.784375 61.171875 L 78.409375 62.33125 L 82.03125 63.490625 L 85.65625 64.65 L 89.278125 65.809375 L 92.903125 66.96875 L 96.525 68.128125 L 100.15 69.2875 L 103.771875 70.446875 L 107.396875 71.60625 L 114.640625 73.925 L 118.265625 75.08125 L 121.8875 76.240625 L 125.5125 77.4 L 129.134375 78.559375 L 132.759375 79.71875 L 136.38125 80.878125 L 140.00625 82.0375 L 143.628125 83.196875 L 147.253125 84.35625 L 150.875 85.515625 L 154.5 86.675 L 158.121875 87.834375 L 161.746875 88.99375 L 165.36875 90.153125 L 168.99375 91.3125 L 172.615625 92.471875 L 176.240625 93.63125 L 179.8625 94.790625 L 183.4875 95.95 L 187.109375 97.109375 L 190.734375 98.26875 L 194.35625 99.428125 L 197.98125 100.5875 L 205.225 102.90625 L 208.85 104.065625 L 212.471875 105.225 L 216.096875 106.384375 L 219.71875 107.54375 L 223.34375 108.703125 L 226.965625 109.8625 L 230.590625 111.021875 L 234.2125 112.18125 L 237.8375 113.340625 L 241.459375 114.5 L 245.084375 115.659375 " transform="matrix(1.25,0,0,1.25,0,0.000000000000014211)"/>
<path style="fill:none;stroke-width:1.5;stroke-linecap:square;stroke-linejoin:round;stroke:rgb(9.019608%,74.509804%,81.176471%);stroke-opacity:1;stroke-miterlimit:4;" d="M 67.5375 90.403125 L 71.1625 89.584375 L 74.784375 88.765625 L 78.409375 87.95 L 82.03125 87.13125 L 85.65625 86.315625 L 89.278125 85.496875 L 92.903125 84.678125 L 96.525 83.8625 L 100.15 83.04375 L 103.771875 82.228125 L 107.396875 81.409375 L 111.01875 80.59375 L 114.640625 79.775 L 118.265625 78.95625 L 121.8875 78.140625 L 125.5125 77.321875 L 129.134375 76.50625 L 132.759375 75.6875 L 136.38125 74.86875 L 140.00625 74.053125 L 143.628125 73.234375 L 147.253125 72.41875 L 150.875 71.6 L 154.5 70.784375 L 158.121875 69.965625 L 161.746875 69.146875 L 165.36875 68.33125 L 168.99375 67.5125 L 172.615625 66.696875 L 176.240625 65.878125 L 179.8625 65.059375 L 183.4875 64.24375 L 187.109375 63.425 L 190.734375 62.609375 L 194.35625 61.790625 L 197.98125 60.975 L 205.225 59.3375 L 208.85 58.521875 L 212.471875 57.703125 L 216.096875 56.8875 L 219.71875 56.06875 L 223.34375 55.25 L 226.965625 54.434375 L 230.590625 53.615625 L 234.2125 52.8 L 237.8375 51.98125 L 241.459375 51.165625 L 245.084375 50.346875 " transform="matrix(1.25,0,0,1.25,0,0.000000000000014211)"/>
<path style="fill:none;stroke-width:0.8;stroke-linecap:square;stroke-linejoin:miter;stroke:rgb(0%,0%,0%);stroke-opacity:1;stroke-miterlimit:4;" d="M 58.6625 145.8 L 58.6625 7.2 " transform="matrix(1.25,0,0,1.25,0,0.000000000000014211)"/>
<path style="fill:none;stroke-width:0.8;stroke-linecap:square;stroke-linejoin:miter;stroke:rgb(0%,0%,0%);stroke-opacity:1;stroke-miterlimit:4;" d="M 253.9625 145.8 L 253.9625 7.2 " transform="matrix(1.25,0,0,1.25,0,0.000000000000014211)"/>
<path style="fill:none;stroke-width:0.8;stroke-linecap:square;stroke-linejoin:miter;stroke:rgb(0%,0%,0%);stroke-opacity:1;stroke-miterlimit:4;" d="M 58.6625 145.8 L 253.9625 145.8 " transform="matrix(1.25,0,0,1.25,0,0.000000000000014211)"/>
<path style="fill:none;stroke-width:0.8;stroke-linecap:square;stroke-linejoin:miter;stroke:rgb(0%,0%,0%);stroke-opacity:1;stroke-miterlimit:4;" d="M 58.6625 7.2 L 253.9625 7.2 " transform="matrix(1.25,0,0,1.25,0,0.000000000000014211)"/>
</g>
</svg>
